{
.appVersion = "1267";
copyright = "Copyright 2010 Google Inc. All Rights Reserved.";
customParameters = (
{
name = glyphOrder;
value = (
.notdef,
.null,
nonmarkingreturn,
space,
exclam,
quotedbl,
numbersign,
dollar,
percent,
ampersand,
quotesingle,
parenleft,
parenright,
asterisk,
plus,
comma,
hyphen,
period,
slash,
zero,
one,
two,
three,
four,
five,
six,
seven,
eight,
nine,
colon,
semicolon,
less,
equal,
greater,
question,
at,
A,
B,
C,
D,
E,
F,
G,
H,
I,
J,
K,
L,
M,
N,
O,
P,
Q,
R,
S,
T,
U,
V,
W,
X,
Y,
Z,
bracketleft,
backslash,
bracketright,
asciicircum,
underscore,
grave,
a,
b,
c,
d,
e,
f,
g,
h,
i,
j,
k,
l,
m,
n,
o,
p,
q,
r,
s,
t,
u,
v,
w,
x,
y,
z,
braceleft,
bar,
braceright,
asciitilde,
Adieresis,
Aring,
Ccedilla,
Eacute,
Ntilde,
Odieresis,
Udieresis,
aacute,
agrave,
acircumflex,
adieresis,
atilde,
aring,
ccedilla,
eacute,
egrave,
ecircumflex,
edieresis,
iacute,
igrave,
icircumflex,
idieresis,
ntilde,
oacute,
ograve,
ocircumflex,
odieresis,
otilde,
uacute,
ugrave,
ucircumflex,
udieresis,
dagger,
degree,
cent,
sterling,
section,
bullet,
paragraph,
germandbls,
registered,
copyright,
trademark,
acute,
dieresis,
notequal,
AE,
Oslash,
infinity,
plusminus,
lessequal,
greaterequal,
yen,
mu1,
partialdiff,
summation,
product,
integral,
ordfeminine,
ordmasculine,
Ohm,
ae,
oslash,
questiondown,
exclamdown,
logicalnot,
radical,
florin,
approxequal,
uni2206,
guillemotleft,
guillemotright,
ellipsis,
Agrave,
Atilde,
Otilde,
OE,
oe,
endash,
emdash,
quotedblleft,
quotedblright,
quoteleft,
quoteright,
divide,
lozenge,
ydieresis,
Ydieresis,
fraction,
Euro,
guilsinglleft,
guilsinglright,
fi,
fl,
daggerdbl,
periodcentered,
quotesinglbase,
quotedblbase,
perthousand,
Acircumflex,
Ecircumflex,
Aacute,
Edieresis,
Egrave,
Iacute,
Icircumflex,
Idieresis,
Igrave,
Oacute,
Ocircumflex,
Ograve,
Uacute,
Ucircumflex,
Ugrave,
dotlessi,
circumflex,
tilde,
macron,
breve,
dotaccent,
ring,
cedilla,
hungarumlaut,
ogonek,
caron,
Lslash,
lslash,
Scaron,
scaron,
Zcaron,
zcaron,
brokenbar,
Eth,
eth,

glyphs = (
{
glyphname = .notdef;
lastChange = "2020-03-13 21:33:49 +0000";
layers = (
{
layerId = "B8E4E6F7-CD69-4587-8CB0-DED49904045E";
paths = (
{
closed = 1;
nodes = (
"205 1409 LINE",
"205 0 LINE",
"1330 0 LINE",
"1330 1409 LINE",
"205 1409 LINE"
);
},
{
closed = 1;
nodes = (
"281 1333 LINE",
"1254 1333 LINE",
"1254 76 LINE",
"281 76 LINE",
"281 1333 LINE"
);
}
);
width = 1536;
}
);
note = .notdef;
},
{
glyphname = exclam;
lastChange = "2020-03-13 21:33:49 +0000";
layers = (
{
layerId = "B8E4E6F7-CD69-4587-8CB0-DED49904045E";
paths = (
{
closed = 1;
nodes = (
"329 397 LINE",
"549 1409 LINE",
"353 1409 LINE",
"181 397 LINE",
"329 397 LINE"
);
},
{
closed = 1;
nodes = (
"77 0 LINE",
"271 0 LINE",
"311 201 LINE",
"117 201 LINE",
"77 0 LINE"
);
}
);
width = 569;
}
);
note = exclam;
unicode = 0021;
},
{
glyphname = quotedbl;
lastChange = "2020-03-13 21:33:49 +0000";
layers = (
{
layerId = "B8E4E6F7-CD69-4587-8CB0-DED49904045E";
paths = (
{
closed = 1;
nodes = (
"697 966 LINE",
"803 1409 LINE",
"619 1409 LINE",
"555 966 LINE",
"697 966 LINE"
);
},
{
closed = 1;
nodes = (
"328 966 LINE",
"434 1409 LINE",
"250 1409 LINE",
"187 966 LINE",
"328 966 LINE"
);
}
);
width = 727;
}
);
note = quotedbl;
unicode = 0022;
},
{
glyphname = numbersign;
lastChange = "2020-03-13 21:33:49 +0000";
layers = (
{
layerId = "B8E4E6F7-CD69-4587-8CB0-DED49904045E";
paths = (
{
closed = 1;
nodes = (
"926 885 LINE",
"1159 885 LINE",
"1159 993 LINE",
"948 993 LINE",
"1036 1401 LINE",
"926 1401 LINE",
"838 993 LINE",
"475 993 LINE",
"563 1401 LINE",
"453 1401 LINE",
"364 993 LINE",
"90 993 LINE",
"90 885 LINE",
"342 885 LINE",
"264 516 LINE",
"39 516 LINE",
"39 408 LINE",
"240 408 LINE",
"156 0 LINE",
"266 0 LINE",
"350 408 LINE",
"713 408 LINE",
"627 0 LINE",
"737 0 LINE",
"825 408 LINE",
"1108 408 LINE",
"1108 516 LINE",
"848 516 LINE",
"926 885 LINE"
);
},
{
closed = 1;
nodes = (
"455 885 LINE",
"815 885 LINE",
"737 516 LINE",
"375 516 LINE",
"455 885 LINE"
);
}
);
width = 1139;
}
);
note = numbersign;
unicode = 0023;
},
{
glyphname = dollar;
lastChange = "2020-03-13 21:33:49 +0000";
layers = (
{
layerId = "B8E4E6F7-CD69-4587-8CB0-DED49904045E";
paths = (
{
closed = 1;
nodes = (
"1072 425 LINE",
"1072 602.333 OFFCURVE",
"951.333 724.333 OFFCURVE",
"690 795 CURVE",
"776 1236 LINE",
"904.667 1218 OFFCURVE",
"984 1153.333 OFFCURVE",
"1014 1042 CURVE",
"1170 1087 LINE",
"1135.333 1251 OFFCURVE",
"1011 1353.667 OFFCURVE",
"803 1379 CURVE",
"830 1516 LINE",
"716 1516 LINE",
"691 1385 LINE",
"495 1383.667 OFFCURVE",
"332.667 1322.5 OFFCURVE",
"246 1212.5 CURVE SMOOTH",
"202.667 1157.5 OFFCURVE",
"181 1092.667 OFFCURVE",
"181 1018 CURVE SMOOTH",
"181 892.667 OFFCURVE",
"232.833 810.167 OFFCURVE",
"329.5 749.5 CURVE SMOOTH",
"377.833 719.167 OFFCURVE",
"451.667 690.333 OFFCURVE",
"551 663 CURVE",
"455 170 LINE",
"276.333 183.333 OFFCURVE",
"184.333 259.667 OFFCURVE",
"151 413 CURVE",
"-12 376 LINE",
"24 164 OFFCURVE",
"159 41.667 OFFCURVE",
"427 23 CURVE",
"395 -140 LINE",
"509 -140 LINE",
"540 21 LINE",
"882.667 31.667 OFFCURVE",
"1072 178.333 OFFCURVE",
"1072 425 CURVE"
);
},
{
closed = 1;
nodes = (
"887 413 LINE",
"887 261.667 OFFCURVE",
"781 180.333 OFFCURVE",
"569 169 CURVE",
"659 632 LINE",
"828.333 578.667 OFFCURVE",
"887 517 OFFCURVE",
"887 413 CURVE"
);
},
{
closed = 1;
nodes = (
"363 1018 LINE",
"363 1155.333 OFFCURVE",
"469.667 1233.333 OFFCURVE",
"663 1240 CURVE",
"582 825 LINE",
"410 878.333 OFFCURVE",
"363 928.667 OFFCURVE",
"363 1018 CURVE"
);
}
);
width = 1139;
}
);
note = dollar;
unicode = 0024;
},
{
glyphname = percent;
lastChange = "2020-03-13 21:33:49 +0000";
layers = (
{
layerId = "B8E4E6F7-CD69-4587-8CB0-DED49904045E";
paths = (
{
closed = 1;
nodes = (
"425 0 LINE",
"1613 1409 LINE",
"1446 1409 LINE",
"260 0 LINE",
"425 0 LINE"
);
},
{
closed = 1;
nodes = (
"545 1421 LINE",
"371.667 1421 OFFCURVE",
"254.5 1320.5 OFFCURVE",
"192.5 1130.5 CURVE SMOOTH",
"161.5 1035.5 OFFCURVE",
"146 939 OFFCURVE",
"146 841 CURVE SMOOTH",
"146 638.333 OFFCURVE",
"240.667 524 OFFCURVE",
"406 524 CURVE SMOOTH",
"524.667 524 OFFCURVE",
"621.667 581.167 OFFCURVE",
"695 692.5 CURVE SMOOTH",
"768.333 803.833 OFFCURVE",
"804 971.667 OFFCURVE",
"804 1113 CURVE SMOOTH",
"804 1313 OFFCURVE",
"711.667 1421 OFFCURVE",
"545 1421 CURVE"
);
},
{
closed = 1;
nodes = (
"544 1313 LINE",
"624.667 1313 OFFCURVE",
"665 1252.333 OFFCURVE",
"665 1131 CURVE SMOOTH",
"665 1003 OFFCURVE",
"623.333 793.333 OFFCURVE",
"550 704 CURVE SMOOTH",
"513.333 659.333 OFFCURVE",
"466.667 637 OFFCURVE",
"410 637 CURVE SMOOTH",
"326 637 OFFCURVE",
"284 700.333 OFFCURVE",
"284 827 CURVE SMOOTH",
"284 929.667 OFFCURVE",
"316.333 1095.833 OFFCURVE",
"359 1184.5 CURVE SMOOTH",
"401.667 1273.167 OFFCURVE",
"454.667 1313 OFFCURVE",
"544 1313 CURVE"
);
},
{
closed = 1;
nodes = (
"1474 885 LINE",
"1300.667 885 OFFCURVE",
"1183.5 784.5 OFFCURVE",
"1121.5 594.5 CURVE SMOOTH",
"1090.5 499.5 OFFCURVE",
"1075 403 OFFCURVE",
"1075 305 CURVE SMOOTH",
"1075 102.333 OFFCURVE",
"1169.667 -12 OFFCURVE",
"1335 -12 CURVE SMOOTH",
"1453.667 -12 OFFCURVE",
"1550.667 45.167 OFFCURVE",
"1624 156.5 CURVE SMOOTH",
"1697.333 267.833 OFFCURVE",
"1733 435.667 OFFCURVE",
"1733 577 CURVE SMOOTH",
"1733 777 OFFCURVE",
"1640.667 885 OFFCURVE",
"1474 885 CURVE"
);
},
{
closed = 1;
nodes = (
"1473 777 LINE",
"1553.667 777 OFFCURVE",
"1594 716.333 OFFCURVE",
"1594 595 CURVE SMOOTH",
"1594 467 OFFCURVE",
"1552.333 257.333 OFFCURVE",
"1479 168 CURVE SMOOTH",
"1442.333 123.333 OFFCURVE",
"1395.667 101 OFFCURVE",
"1339 101 CURVE SMOOTH",
"1255 101 OFFCURVE",
"1213 164.333 OFFCURVE",
"1213 291 CURVE SMOOTH",
"1213 393.667 OFFCURVE",
"1245.333 559.833 OFFCURVE",
"1288 648.5 CURVE SMOOTH",
"1330.667 737.167 OFFCURVE",
"1383.667 777 OFFCURVE",
"1473 777 CURVE"
);
}
);
width = 1821;
}
);
note = percent;
unicode = 0025;
},
{
glyphname = ampersand;
lastChange = "2020-03-13 21:33:49 +0000";
layers = (
{
layerId = "B8E4E6F7-CD69-4587-8CB0-DED49904045E";
paths = (
{
closed = 1;
nodes = (
"1248 684 LINE",
"1116 739 LINE",
"1012 515 OFFCURVE",
"944 405.667 OFFCURVE",
"864 315 CURVE",
"769.333 445 OFFCURVE",
"696.667 584.667 OFFCURVE",
"646 734 CURVE",
"771 784 LINE SMOOTH",
"1051 894.667 OFFCURVE",
"1144 1000.333 OFFCURVE",
"1144 1155 CURVE SMOOTH",
"1144 1312.333 OFFCURVE",
"1017 1417 OFFCURVE",
"833 1417 CURVE SMOOTH",
"590.333 1417 OFFCURVE",
"434 1266.667 OFFCURVE",
"434 1036 CURVE SMOOTH",
"434 962 OFFCURVE",
"443.333 885.333 OFFCURVE",
"462 806 CURVE",
"138 682 OFFCURVE",
"33 560.333 OFFCURVE",
"33 351 CURVE SMOOTH",
"33 124.333 OFFCURVE",
"188 -20 OFFCURVE",
"440 -20 CURVE SMOOTH",
"592.667 -20 OFFCURVE",
"728.333 23.333 OFFCURVE",
"847 110 CURVE",
"928.333 28.667 OFFCURVE",
"1018.667 -12 OFFCURVE",
"1118 -12 CURVE SMOOTH",
"1161.333 -12 OFFCURVE",
"1203 -4.667 OFFCURVE",
"1243 10 CURVE",
"1256 145 LINE",
"1221.333 134.333 OFFCURVE",
"1184 129 OFFCURVE",
"1144 129 CURVE SMOOTH",
"1082.667 129 OFFCURVE",
"1010.333 157.333 OFFCURVE",
"957 208 CURVE",
"1058.333 315.333 OFFCURVE",
"1155.333 474 OFFCURVE",
"1248 684 CURVE"
);
},
{
closed = 1;
nodes = (
"452 111 LINE",
"302.667 111 OFFCURVE",
"203 206 OFFCURVE",
"203 354 CURVE SMOOTH",
"203 500.667 OFFCURVE",
"278 587 OFFCURVE",
"502 675 CURVE",
"560.667 504.333 OFFCURVE",
"655.667 332 OFFCURVE",
"753 212 CURVE",
"661 144.667 OFFCURVE",
"560.667 111 OFFCURVE",
"452 111 CURVE"
);
},
{
closed = 1;
nodes = (
"592 1041 LINE",
"592 1201 OFFCURVE",
"676.667 1296 OFFCURVE",
"826 1296 CURVE SMOOTH",
"923.333 1296 OFFCURVE",
"990 1234.667 OFFCURVE",
"990 1148 CURVE SMOOTH",
"990 1070.667 OFFCURVE",
"948.167 1018.667 OFFCURVE",
"879.5 976 CURVE SMOOTH",
"810.833 933.333 OFFCURVE",
"716.333 901.667 OFFCURVE",
"611 863 CURVE",
"598.333 929.667 OFFCURVE",
"592 989 OFFCURVE",
"592 1041 CURVE"
);
}
);
width = 1366;
}
);
note = ampersand;
unicode = 0026;
},
{
glyphname = quotesingle;
lastChange = "2020-03-13 21:33:49 +0000";
layers = (
{
layerId = "B8E4E6F7-CD69-4587-8CB0-DED49904045E";
paths = (
{
closed = 1;
nodes = (
"343 966 LINE",
"449 1409 LINE",
"265 1409 LINE",
"202 966 LINE",
"343 966 LINE"
);
}
);
width = 391;
}
);
note = quotesingle;
unicode = 0027;
},
{
glyphname = parenleft;
lastChange = "2020-03-13 21:33:49 +0000";
layers = (
{
layerId = "B8E4E6F7-CD69-4587-8CB0-DED49904045E";
paths = (
{
closed = 1;
nodes = (
"855 1484 LINE",
"681 1484 LINE",
"301 1190.667 OFFCURVE",
"96 774 OFFCURVE",
"96 278 CURVE SMOOTH",
"96 7.333 OFFCURVE",
"167.333 -226.667 OFFCURVE",
"310 -424 CURVE",
"484 -424 LINE",
"346 -226 OFFCURVE",
"277 2.667 OFFCURVE",
"277 262 CURVE SMOOTH",
"277 737.333 OFFCURVE",
"469.667 1144.667 OFFCURVE",
"855 1484 CURVE"
);
}
);
width = 682;
}
);
note = parenleft;
unicode = 0028;
},
{
glyphname = parenright;
lastChange = "2020-03-13 21:33:49 +0000";
layers = (
{
layerId = "B8E4E6F7-CD69-4587-8CB0-DED49904045E";
paths = (
{
closed = 1;
nodes = (
"-199 -424 LINE",
"-25 -424 LINE",
"355 -130.667 OFFCURVE",
"560 286 OFFCURVE",
"560 782 CURVE SMOOTH",
"560 1052.667 OFFCURVE",
"488.667 1286.667 OFFCURVE",
"346 1484 CURVE",
"172 1484 LINE",
"310 1286 OFFCURVE",
"379 1057.333 OFFCURVE",
"379 798 CURVE SMOOTH",
"379 322.667 OFFCURVE",
"186.333 -84.667 OFFCURVE",
"-199 -424 CURVE"
);
}
);
width = 682;
}
);
note = parenright;
unicode = 0029;
},
{
glyphname = asterisk;
lastChange = "2020-03-13 21:33:49 +0000";
layers = (
{
layerId = "B8E4E6F7-CD69-4587-8CB0-DED49904045E";
paths = (
{
closed = 1;
nodes = (
"543 1114 LINE",
"556 1409 LINE",
"420 1409 LINE",
"432 1112 LINE",
"165 1219 LINE",
"120 1085 LINE",
"400 1012 LINE",
"211 764 LINE",
"330 692 LINE",
"486 948 LINE",
"636 690 LINE",
"755 762 LINE",
"570 1012 LINE",
"852 1085 LINE",
"807 1217 LINE",
"543 1114 LINE"
);
}
);
width = 797;
}
);
note = asterisk;
unicode = 002A;
},
{
glyphname = plus;
lastChange = "2020-03-13 21:33:49 +0000";
layers = (
{
layerId = "B8E4E6F7-CD69-4587-8CB0-DED49904045E";
paths = (
{
closed = 1;
nodes = (
"701 608 LINE",
"1125 608 LINE",
"1125 754 LINE",
"701 754 LINE",
"701 1182 LINE",
"554 1182 LINE",
"554 754 LINE",
"130 754 LINE",
"130 608 LINE",
"554 608 LINE",
"554 180 LINE",
"701 180 LINE",
"701 608 LINE"
);
}
);
width = 1196;
}
);
note = plus;
unicode = 002B;
},
{
glyphname = comma;
lastChange = "2020-03-13 21:33:49 +0000";
layers = (
{
layerId = "B8E4E6F7-CD69-4587-8CB0-DED49904045E";
paths = (
{
closed = 1;
nodes = (
"160 -262 LINE",
"233.333 -171.333 OFFCURVE",
"275 -75.667 OFFCURVE",
"299 51 CURVE SMOOTH",
"331 219 LINE",
"136 219 LINE",
"94 0 LINE",
"182 0 LINE",
"165.333 -83.333 OFFCURVE",
"117 -170.667 OFFCURVE",
"37 -262 CURVE",
"160 -262 LINE"
);
}
);
width = 569;
}
);
note = comma;
unicode = 002C;
},
{
glyphname = hyphen;
lastChange = "2020-03-13 21:33:49 +0000";
layers = (
{
layerId = "B8E4E6F7-CD69-4587-8CB0-DED49904045E";
paths = (
{
closed = 1;
nodes = (
"105 464 LINE",
"605 464 LINE",
"636 624 LINE",
"136 624 LINE",
"105 464 LINE"
);
}
);
width = 682;
}
);
note = hyphen;
unicode = "002D,00AD";
},
{
glyphname = period;
lastChange = "2020-03-13 21:33:49 +0000";
layers = (
{
layerId = "B8E4E6F7-CD69-4587-8CB0-DED49904045E";
paths = (
{
closed = 1;
nodes = (
"80 0 LINE",
"275 0 LINE",
"318 219 LINE",
"123 219 LINE",
"80 0 LINE"
);
}
);
width = 569;
}
);
note = period;
unicode = 002E;
},
{
glyphname = slash;
lastChange = "2020-03-13 21:33:49 +0000";
layers = (
{
layerId = "B8E4E6F7-CD69-4587-8CB0-DED49904045E";
paths = (
{
closed = 1;
nodes = (
"-116 -20 LINE",
"45 -20 LINE",
"745 1484 LINE",
"587 1484 LINE",
"-116 -20 LINE"
);
}
);
width = 569;
}
);
note = slash;
unicode = 002F;
},
{
glyphname = zero;
lastChange = "2020-03-13 21:33:49 +0000";
layers = (
{
layerId = "B8E4E6F7-CD69-4587-8CB0-DED49904045E";
paths = (
{
closed = 1;
nodes = (
"732 1430 LINE",
"518.667 1430 OFFCURVE",
"363.5 1334.333 OFFCURVE",
"257.5 1153 CURVE SMOOTH",
"151.5 971.667 OFFCURVE",
"89 705 OFFCURVE",
"89 465 CURVE SMOOTH",
"89 162.333 OFFCURVE",
"234.667 -20 OFFCURVE",
"476 -20 CURVE SMOOTH",
"748 -20 OFFCURVE",
"940 149.167 OFFCURVE",
"1044 468.5 CURVE SMOOTH",
"1096 628.167 OFFCURVE",
"1122 793.333 OFFCURVE",
"1122 964 CURVE SMOOTH",
"1122 1257.333 OFFCURVE",
"976 1430 OFFCURVE",
"732 1430 CURVE"
);
},
{
closed = 1;
nodes = (
"491 127 LINE",
"347 127 OFFCURVE",
"264 231.333 OFFCURVE",
"264 438 CURVE SMOOTH",
"264 687.333 OFFCURVE",
"346.167 1036.667 OFFCURVE",
"473.5 1178 CURVE SMOOTH",
"537.167 1248.667 OFFCURVE",
"619.333 1284 OFFCURVE",
"720 1284 CURVE SMOOTH",
"864 1284 OFFCURVE",
"947 1179.667 OFFCURVE",
"947 973 CURVE SMOOTH",
"947 723.667 OFFCURVE",
"864.833 374.333 OFFCURVE",
"737.5 233 CURVE SMOOTH",
"673.833 162.333 OFFCURVE",
"591.667 127 OFFCURVE",
"491 127 CURVE"
);
}
);
width = 1139;
}
);
note = zero;
unicode = 0030;
},
{
glyphname = one;
lastChange = "2020-03-13 21:33:49 +0000";
layers = (
{
layerId = "B8E4E6F7-CD69-4587-8CB0-DED49904045E";
paths = (
{
closed = 1;
nodes = (
"53 0 LINE",
"936 0 LINE",
"966 153 LINE",
"623 153 LINE",
"867 1409 LINE",
"701 1409 LINE",
"324 1180 LINE",
"289 1000 LINE",
"650 1223 LINE",
"442 153 LINE",
"83 153 LINE",
"53 0 LINE"
);
}
);
width = 1139;
}
);
note = one;
unicode = 0031;
},
{
glyphname = two;
lastChange = "2020-03-13 21:33:49 +0000";
layers = (
{
layerId = "B8E4E6F7-CD69-4587-8CB0-DED49904045E";
paths = (
{
closed = 1;
nodes = (
"-12 0 LINE",
"920 0 LINE",
"949 153 LINE",
"222 153 LINE",
"283.333 249 OFFCURVE",
"400 346 OFFCURVE",
"596 470 CURVE SMOOTH",
"870.667 643.333 OFFCURVE",
"990 745.667 OFFCURVE",
"1058 875 CURVE SMOOTH",
"1092 939.667 OFFCURVE",
"1109 1007.333 OFFCURVE",
"1109 1078 CURVE SMOOTH",
"1109 1286 OFFCURVE",
"942.667 1430 OFFCURVE",
"700 1430 CURVE SMOOTH",
"450.667 1430 OFFCURVE",
"283 1307.667 OFFCURVE",
"211 1081 CURVE",
"381 1044 LINE",
"430.333 1202.667 OFFCURVE",
"543.667 1282 OFFCURVE",
"689 1282 CURVE SMOOTH",
"830.333 1282 OFFCURVE",
"920 1193.667 OFFCURVE",
"920 1063 CURVE SMOOTH",
"920 961.667 OFFCURVE",
"881.667 883 OFFCURVE",
"819 815 CURVE SMOOTH",
"756.333 747 OFFCURVE",
"670.833 689.167 OFFCURVE",
"575.5 628.5 CURVE SMOOTH",
"480.167 567.833 OFFCURVE",
"375.667 504.833 OFFCURVE",
"277 425.5 CURVE SMOOTH",
"178.333 346.167 OFFCURVE",
"85.333 251 OFFCURVE",
"12 127 CURVE",
"-12 0 LINE"
);
}
);
width = 1139;
}
);
note = two;
unicode = 0032;
},
{
glyphname = three;
lastChange = "2020-03-13 21:33:49 +0000";
layers = (
{
layerId = "B8E4E6F7-CD69-4587-8CB0-DED49904045E";
paths = (
{
closed = 1;
nodes = (
"566 795 LINE",
"468 795 LINE",
"438 639 LINE",
"562 639 LINE SMOOTH",
"734 639 OFFCURVE",
"841 553.333 OFFCURVE",
"841 404 CURVE SMOOTH",
"841 236 OFFCURVE",
"729 129 OFFCURVE",
"541 129 CURVE SMOOTH",
"377 129 OFFCURVE",
"252 231.333 OFFCURVE",
"212 386 CURVE",
"48 338 LINE",
"81.333 192.667 OFFCURVE",
"169.333 82.667 OFFCURVE",
"300 24 CURVE SMOOTH",
"365.333 -5.333 OFFCURVE",
"440.667 -20 OFFCURVE",
"526 -20 CURVE SMOOTH",
"730 -20 OFFCURVE",
"887.833 54.5 OFFCURVE",
"968.5 184.5 CURVE SMOOTH",
"1008.833 249.5 OFFCURVE",
"1029 323.667 OFFCURVE",
"1029 407 CURVE SMOOTH",
"1029 571 OFFCURVE",
"926.667 678.333 OFFCURVE",
"752 713 CURVE",
"753 717 LINE",
"986.333 747.667 OFFCURVE",
"1121 882 OFFCURVE",
"1121 1086 CURVE SMOOTH",
"1121 1299.333 OFFCURVE",
"967.333 1430 OFFCURVE",
"718 1430 CURVE SMOOTH",
"468.667 1430 OFFCURVE",
"283.333 1311 OFFCURVE",
"206 1063 CURVE",
"384 1049 LINE",
"429.333 1197 OFFCURVE",
"549.333 1282 OFFCURVE",
"708 1282 CURVE SMOOTH",
"842.667 1282 OFFCURVE",
"930 1205 OFFCURVE",
"930 1081 CURVE SMOOTH",
"930 894.333 OFFCURVE",
"810 795 OFFCURVE",
"566 795 CURVE"
);
}
);
width = 1139;
}
);
note = three;
unicode = 0033;
},
{
glyphname = four;
lastChange = "2020-03-13 21:33:49 +0000";
layers = (
{
layerId = "B8E4E6F7-CD69-4587-8CB0-DED49904045E";
paths = (
{
closed = 1;
nodes = (
"846 319 LINE",
"1034 319 LINE",
"1062 461 LINE",
"874 461 LINE",
"1058 1409 LINE",
"859 1409 LINE",
"40 459 LINE",
"13 319 LINE",
"666 319 LINE",
"604 0 LINE",
"784 0 LINE",
"846 319 LINE"
);
},
{
closed = 1;
nodes = (
"826 1157 LINE",
"694 461 LINE",
"227 461 LINE",
"826 1157 LINE"
);
}
);
width = 1139;
}
);
note = four;
unicode = 0034;
},
{
glyphname = five;
lastChange = "2020-03-13 21:33:49 +0000";
layers = (
{
layerId = "B8E4E6F7-CD69-4587-8CB0-DED49904045E";
paths = (
{
closed = 1;
nodes = (
"343 1409 LINE",
"149 651 LINE",
"325 651 LINE",
"404.333 718.333 OFFCURVE",
"498.333 752 OFFCURVE",
"607 752 CURVE SMOOTH",
"761.667 752 OFFCURVE",
"861 648.667 OFFCURVE",
"861 486 CURVE SMOOTH",
"861 256.667 OFFCURVE",
"736.333 127 OFFCURVE",
"515 127 CURVE SMOOTH",
"359 127 OFFCURVE",
"250.333 200 OFFCURVE",
"209 352 CURVE",
"46 309 LINE",
"104.667 89.667 OFFCURVE",
"257.667 -20 OFFCURVE",
"505 -20 CURVE SMOOTH",
"849 -20 OFFCURVE",
"1051 178 OFFCURVE",
"1051 506 CURVE SMOOTH",
"1051 746 OFFCURVE",
"886.333 899 OFFCURVE",
"641 899 CURVE SMOOTH",
"530.333 899 OFFCURVE",
"430.667 865 OFFCURVE",
"364 809 CURVE",
"478 1256 LINE",
"1115 1256 LINE",
"1144 1409 LINE",
"343 1409 LINE"
);
}
);
width = 1139;
}
);
note = five;
unicode = 0035;
},
{
glyphname = six;
lastChange = "2020-03-13 21:33:49 +0000";
layers = (
{
layerId = "B8E4E6F7-CD69-4587-8CB0-DED49904045E";
paths = (
{
closed = 1;
nodes = (
"534 -20 LINE",
"727.333 -20 OFFCURVE",
"891.833 81.167 OFFCURVE",
"980.5 252.5 CURVE SMOOTH",
"1024.833 338.167 OFFCURVE",
"1047 431.667 OFFCURVE",
"1047 533 CURVE SMOOTH",
"1047 757 OFFCURVE",
"892.333 911 OFFCURVE",
"663 911 CURVE SMOOTH",
"512.333 911 OFFCURVE",
"387 846 OFFCURVE",
"307 726 CURVE",
"376.333 1080.667 OFFCURVE",
"534.333 1284 OFFCURVE",
"753 1284 CURVE SMOOTH",
"861 1284 OFFCURVE",
"939.667 1223 OFFCURVE",
"973 1115 CURVE",
"1139 1151 LINE",
"1092.333 1332.333 OFFCURVE",
"961 1430 OFFCURVE",
"761 1430 CURVE SMOOTH",
"509 1430 OFFCURVE",
"309.833 1254.5 OFFCURVE",
"198.5 940.5 CURVE SMOOTH",
"142.833 783.5 OFFCURVE",
"115 624.667 OFFCURVE",
"115 464 CURVE SMOOTH",
"115 176 OFFCURVE",
"276.667 -20 OFFCURVE",
"534 -20 CURVE"
);
},
{
closed = 1;
nodes = (
"288 421 LINE",
"288 567.667 OFFCURVE",
"353.833 672.833 OFFCURVE",
"458.5 729.5 CURVE SMOOTH",
"510.833 757.833 OFFCURVE",
"568 772 OFFCURVE",
"630 772 CURVE SMOOTH",
"779.333 772 OFFCURVE",
"861 675.333 OFFCURVE",
"861 522 CURVE SMOOTH",
"861 292.667 OFFCURVE",
"723.333 125 OFFCURVE",
"538 125 CURVE SMOOTH",
"386 125 OFFCURVE",
"288 246.333 OFFCURVE",
"288 421 CURVE"
);
}
);
width = 1139;
}
);
note = six;
unicode = 0036;
},
{
glyphname = seven;
lastChange = "2020-03-13 21:33:49 +0000";
layers = (
{
layerId = "B8E4E6F7-CD69-4587-8CB0-DED49904045E";
paths = (
{
closed = 1;
nodes = (
"435 0 LINE",
"468.333 170.667 OFFCURVE",
"521.333 324.5 OFFCURVE",
"592 466.5 CURVE SMOOTH",
"627.333 537.5 OFFCURVE",
"667.667 607.667 OFFCURVE",
"713 677 CURVE SMOOTH",
"758.333 746.333 OFFCURVE",
"809.333 817.667 OFFCURVE",
"866 891 CURVE SMOOTH",
"922.667 964.333 OFFCURVE",
"1025.333 1088.333 OFFCURVE",
"1174 1263 CURVE",
"1202 1409 LINE",
"241 1409 LINE",
"212 1256 LINE",
"986 1256 LINE",
"610 826.667 OFFCURVE",
"482.833 633.333 OFFCURVE",
"371.5 388 CURVE SMOOTH",
"315.833 265.333 OFFCURVE",
"274.333 136 OFFCURVE",
"247 0 CURVE",
"435 0 LINE"
);
}
);
width = 1139;
}
);
note = seven;
unicode = 0037;
},
{
glyphname = eight;
lastChange = "2020-03-13 21:33:49 +0000";
layers = (
{
layerId = "B8E4E6F7-CD69-4587-8CB0-DED49904045E";
paths = (
{
closed = 1;
nodes = (
"704 1429 LINE",
"405.333 1429 OFFCURVE",
"220 1288 OFFCURVE",
"220 1052 CURVE SMOOTH",
"220 914.667 OFFCURVE",
"289.667 810.667 OFFCURVE",
"411 760 CURVE",
"411 756 LINE",
"177.667 704 OFFCURVE",
"54 560 OFFCURVE",
"54 360 CURVE SMOOTH",
"54 122.667 OFFCURVE",
"216 -20 OFFCURVE",
"500 -20 CURVE SMOOTH",
"832 -20 OFFCURVE",
"1033 154.667 OFFCURVE",
"1033 432 CURVE SMOOTH",
"1033 578.667 OFFCURVE",
"952.667 685 OFFCURVE",
"806 729 CURVE",
"807 733 LINE",
"1003 762.333 OFFCURVE",
"1127 904.333 OFFCURVE",
"1127 1091 CURVE SMOOTH",
"1127 1297.667 OFFCURVE",
"958.667 1429 OFFCURVE",
"704 1429 CURVE"
);
},
{
closed = 1;
nodes = (
"658 811 LINE",
"496.667 811 OFFCURVE",
"400 895.667 OFFCURVE",
"400 1033 CURVE SMOOTH",
"400 1202.333 OFFCURVE",
"505.667 1294 OFFCURVE",
"683 1294 CURVE SMOOTH",
"852.333 1294 OFFCURVE",
"941 1217.667 OFFCURVE",
"941 1087 CURVE SMOOTH",
"941 909.667 OFFCURVE",
"836.667 811 OFFCURVE",
"658 811 CURVE"
);
},
{
closed = 1;
nodes = (
"566 672 LINE",
"740.667 672 OFFCURVE",
"850 584 OFFCURVE",
"850 436 CURVE SMOOTH",
"850 240 OFFCURVE",
"716.333 117 OFFCURVE",
"519 117 CURVE SMOOTH",
"343 117 OFFCURVE",
"239 206.667 OFFCURVE",
"239 356 CURVE SMOOTH",
"239 556 OFFCURVE",
"358 672 OFFCURVE",
"566 672 CURVE"
);
}
);
width = 1139;
}
);
note = eight;
unicode = 0038;
},
{
glyphname = nine;
lastChange = "2020-03-13 21:33:49 +0000";
layers = (
{
layerId = "B8E4E6F7-CD69-4587-8CB0-DED49904045E";
paths = (
{
closed = 1;
nodes = (
"898 684 LINE",
"823.333 324 OFFCURVE",
"671.667 125 OFFCURVE",
"461 125 CURVE SMOOTH",
"339.667 125 OFFCURVE",
"260 188.667 OFFCURVE",
"228 302 CURVE",
"70 257 LINE",
"120 72.333 OFFCURVE",
"247.667 -20 OFFCURVE",
"453 -20 CURVE SMOOTH",
"582.333 -20 OFFCURVE",
"709.333 27.167 OFFCURVE",
"816 134.5 CURVE SMOOTH",
"869.333 188.167 OFFCURVE",
"917 256.667 OFFCURVE",
"959 340 CURVE SMOOTH",
"1043 506.667 OFFCURVE",
"1097 750.333 OFFCURVE",
"1097 957 CURVE SMOOTH",
"1097 1249 OFFCURVE",
"943.333 1430 OFFCURVE",
"682 1430 CURVE SMOOTH",
"484.667 1430 OFFCURVE",
"317 1328.167 OFFCURVE",
"229 1159.5 CURVE SMOOTH",
"185 1075.167 OFFCURVE",
"163 982.333 OFFCURVE",
"163 881 CURVE SMOOTH",
"163 730.333 OFFCURVE",
"231 601.167 OFFCURVE",
"351 532.5 CURVE SMOOTH",
"411 498.167 OFFCURVE",
"480.333 481 OFFCURVE",
"559 481 CURVE SMOOTH",
"695.667 481 OFFCURVE",
"808.667 548.667 OFFCURVE",
"898 684 CURVE"
);
},
{
closed = 1;
nodes = (
"925 1017 LINE",
"925 854.333 OFFCURVE",
"866.5 742 OFFCURVE",
"756.5 674 CURVE SMOOTH",
"701.5 640 OFFCURVE",
"642.667 623 OFFCURVE",
"580 623 CURVE SMOOTH",
"436 623 OFFCURVE",
"346 716.333 OFFCURVE",
"346 879 CURVE SMOOTH",
"346 1131 OFFCURVE",
"480.667 1284 OFFCURVE",
"678 1284 CURVE SMOOTH",
"823.333 1284 OFFCURVE",
"925 1178.333 OFFCURVE",
"925 1017 CURVE"
);
}
);
width = 1139;
}
);
note = nine;
unicode = 0039;
},
{
glyphname = colon;
lastChange = "2020-03-13 21:33:49 +0000";
layers = (
{
layerId = "B8E4E6F7-CD69-4587-8CB0-DED49904045E";
paths = (
{
closed = 1;
nodes = (
"251 875 LINE",
"446 875 LINE",
"487 1082 LINE",
"292 1082 LINE",
"251 875 LINE"
);
},
{
closed = 1;
nodes = (
"81 0 LINE",
"276 0 LINE",
"317 207 LINE",
"122 207 LINE",
"81 0 LINE"
);
}
);
width = 569;
}
);
note = colon;
unicode = 003A;
},
{
glyphname = semicolon;
lastChange = "2020-03-13 21:33:49 +0000";
layers = (
{
layerId = "B8E4E6F7-CD69-4587-8CB0-DED49904045E";
paths = (
{
closed = 1;
nodes = (
"161 -262 LINE",
"234.333 -171.333 OFFCURVE",
"276 -75.667 OFFCURVE",
"300 51 CURVE SMOOTH",
"330 207 LINE",
"135 207 LINE",
"95 0 LINE",
"183 0 LINE",
"166.333 -83.333 OFFCURVE",
"118 -170.667 OFFCURVE",
"38 -262 CURVE",
"161 -262 LINE"
);
},
{
closed = 1;
nodes = (
"265 875 LINE",
"460 875 LINE",
"500 1082 LINE",
"305 1082 LINE",
"265 875 LINE"
);
}
);
width = 569;
}
);
note = semicolon;
unicode = "003B,037E";
},
{
glyphname = less;
lastChange = "2020-03-13 21:33:49 +0000";
layers = (
{
layerId = "B8E4E6F7-CD69-4587-8CB0-DED49904045E";
paths = (
{
closed = 1;
nodes = (
"131 571 LINE",
"1126 154 LINE",
"1126 307 LINE",
"268 674 LINE",
"1126 1040 LINE",
"1126 1194 LINE",
"131 776 LINE",
"131 571 LINE"
);
}
);
width = 1196;
}
);
note = less;
unicode = 003C;
},
{
glyphname = equal;
lastChange = "2020-03-13 21:33:49 +0000";
layers = (
{
layerId = "B8E4E6F7-CD69-4587-8CB0-DED49904045E";
paths = (
{
closed = 1;
nodes = (
"130 856 LINE",
"1125 856 LINE",
"1125 1004 LINE",
"130 1004 LINE",
"130 856 LINE"
);
},
{
closed = 1;
nodes = (
"130 344 LINE",
"1125 344 LINE",
"1125 492 LINE",
"130 492 LINE",
"130 344 LINE"
);
}
);
width = 1196;
}
);
note = equal;
unicode = 003D;
},
{
glyphname = greater;
lastChange = "2020-03-13 21:33:49 +0000";
layers = (
{
layerId = "B8E4E6F7-CD69-4587-8CB0-DED49904045E";
paths = (
{
closed = 1;
nodes = (
"131 154 LINE",
"1126 571 LINE",
"1126 776 LINE",
"131 1194 LINE",
"131 1040 LINE",
"989 674 LINE",
"131 307 LINE",
"131 154 LINE"
);
}
);
width = 1196;
}
);
note = greater;
unicode = 003E;
},
{
glyphname = question;
lastChange = "2020-03-13 21:33:49 +0000";
layers = (
{
layerId = "B8E4E6F7-CD69-4587-8CB0-DED49904045E";
paths = (
{
closed = 1;
nodes = (
"701 1430 LINE",
"426.333 1430 OFFCURVE",
"243 1308 OFFCURVE",
"159 1048 CURVE",
"324 1008 LINE",
"374.667 1170.667 OFFCURVE",
"497.333 1270 OFFCURVE",
"684 1270 CURVE SMOOTH",
"838.667 1270 OFFCURVE",
"946 1182.667 OFFCURVE",
"946 1052 CURVE SMOOTH",
"946 968 OFFCURVE",
"915.333 902.833 OFFCURVE",
"854 847.5 CURVE SMOOTH",
"823.333 819.833 OFFCURVE",
"772.667 786 OFFCURVE",
"702 746 CURVE SMOOTH",
"523.333 644.667 OFFCURVE",
"474.667 595.833 OFFCURVE",
"428 516.5 CURVE SMOOTH",
"404.667 476.833 OFFCURVE",
"388.667 430.333 OFFCURVE",
"380 377 CURVE",
"555 377 LINE",
"573.667 467.667 OFFCURVE",
"624.667 533 OFFCURVE",
"794 629 CURVE SMOOTH",
"874 675.667 OFFCURVE",
"958.833 721.167 OFFCURVE",
"1023.5 788.5 CURVE SMOOTH",
"1088.167 855.833 OFFCURVE",
"1133 943.667 OFFCURVE",
"1133 1073 CURVE SMOOTH",
"1133 1282.333 OFFCURVE",
"963.667 1430 OFFCURVE",
"701 1430 CURVE"
);
},
{
closed = 1;
nodes = (
"299 0 LINE",
"494 0 LINE",
"533 201 LINE",
"338 201 LINE",
"299 0 LINE"
);
}
);
width = 1139;
}
);
note = question;
unicode = 003F;
},
{
glyphname = at;
lastChange = "2020-03-13 21:33:49 +0000";
layers = (
{
layerId = "B8E4E6F7-CD69-4587-8CB0-DED49904045E";
paths = (
{
closed = 1;
nodes = (
"1935 755 LINE",
"1935 1045.667 OFFCURVE",
"1808.333 1272.833 OFFCURVE",
"1575 1393.5 CURVE SMOOTH",
"1458.333 1453.833 OFFCURVE",
"1319.667 1484 OFFCURVE",
"1159 1484 CURVE SMOOTH",
"793.667 1484 OFFCURVE",
"484.5 1305.333 OFFCURVE",
"318.5 1000 CURVE SMOOTH",
"235.5 847.333 OFFCURVE",
"194 677.667 OFFCURVE",
"194 491 CURVE SMOOTH",
"194 184.333 OFFCURVE",
"328.167 -61.333 OFFCURVE",
"567.5 -188 CURVE SMOOTH",
"687.167 -251.333 OFFCURVE",
"827 -283 OFFCURVE",
"987 -283 CURVE SMOOTH",
"1219 -283 OFFCURVE",
"1451.667 -221 OFFCURVE",
"1645 -105 CURVE",
"1590 7 LINE",
"1396.667 -101 OFFCURVE",
"1195.667 -155 OFFCURVE",
"987 -155 CURVE SMOOTH",
"723 -155 OFFCURVE",
"518.167 -46.167 OFFCURVE",
"413.5 150.5 CURVE SMOOTH",
"361.167 248.833 OFFCURVE",
"335 362.333 OFFCURVE",
"335 491 CURVE SMOOTH",
"335 824.333 OFFCURVE",
"485 1108.333 OFFCURVE",
"733 1251 CURVE SMOOTH",
"857 1322.333 OFFCURVE",
"999.667 1358 OFFCURVE",
"1161 1358 CURVE SMOOTH",
"1419.667 1358 OFFCURVE",
"1619.333 1255.167 OFFCURVE",
"1722 1070.5 CURVE SMOOTH",
"1773.333 978.167 OFFCURVE",
"1799 872.333 OFFCURVE",
"1799 753 CURVE SMOOTH",
"1799 557 OFFCURVE",
"1743.5 387 OFFCURVE",
"1653.5 295 CURVE SMOOTH",
"1608.5 249 OFFCURVE",
"1559.333 226 OFFCURVE",
"1506 226 CURVE SMOOTH",
"1452 226 OFFCURVE",
"1425 257.333 OFFCURVE",
"1425 320 CURVE SMOOTH",
"1425 379.333 OFFCURVE",
"1437.333 463.667 OFFCURVE",
"1462 573 CURVE SMOOTH",
"1578 1079 LINE",
"1422 1079 LINE",
"1383 919 LINE",
"1377 919 LINE",
"1322.333 1040.333 OFFCURVE",
"1222 1101 OFFCURVE",
"1076 1101 CURVE SMOOTH",
"888 1101 OFFCURVE",
"724.5 982 OFFCURVE",
"638.5 794 CURVE SMOOTH",
"595.5 700 OFFCURVE",
"574 598.333 OFFCURVE",
"574 489 CURVE SMOOTH",
"574 247.667 OFFCURVE",
"694.667 104 OFFCURVE",
"904 104 CURVE SMOOTH",
"1054.667 104 OFFCURVE",
"1190 186 OFFCURVE",
"1278 350 CURVE",
"1284 350 LINE",
"1281 280 LINE SMOOTH",
"1281 166.667 OFFCURVE",
"1353.333 104 OFFCURVE",
"1488 104 CURVE SMOOTH",
"1657.333 104 OFFCURVE",
"1800.833 217.833 OFFCURVE",
"1877.5 418.5 CURVE SMOOTH",
"1915.833 518.833 OFFCURVE",
"1935 631 OFFCURVE",
"1935 755 CURVE"
);
},
{
closed = 1;
nodes = (
"1329 747 LINE",
"1329 651 OFFCURVE",
"1287.333 503.833 OFFCURVE",
"1214 400.5 CURVE SMOOTH",
"1140.667 297.167 OFFCURVE",
"1039.667 235 OFFCURVE",
"933 235 CURVE SMOOTH",
"801 235 OFFCURVE",
"739 331 OFFCURVE",
"739 491 CURVE SMOOTH",
"739 661.667 OFFCURVE",
"802.833 825.833 OFFCURVE",
"907.5 910.5 CURVE SMOOTH",
"959.833 952.833 OFFCURVE",
"1019.667 974 OFFCURVE",
"1087 974 CURVE SMOOTH",
"1233.667 974 OFFCURVE",
"1329 883 OFFCURVE",
"1329 747 CURVE"
);
}
);
width = 2079;
}
);
note = at;
unicode = 0040;
},
{
glyphname = A;
lastChange = "2020-03-13 21:33:49 +0000";
layers = (
{
layerId = "B8E4E6F7-CD69-4587-8CB0-DED49904045E";
paths = (
{
closed = 1;
nodes = (
"1061 0 LINE",
"1256 0 LINE",
"964 1409 LINE",
"747 1409 LINE",
"-101 0 LINE",
"107 0 LINE",
"347 412 LINE",
"986 412 LINE",
"1061 0 LINE"
);
},
{
closed = 1;
nodes = (
"830 1265 LINE",
"856 1114 LINE",
"958 561 LINE",
"431 561 LINE",
"656.333 955.667 OFFCURVE",
"777 1167.333 OFFCURVE",
"793 1196 CURVE SMOOTH",
"809 1224.667 OFFCURVE",
"821.333 1247.667 OFFCURVE",
"830 1265 CURVE"
);
}
);
width = 1366;
}
);
note = A;
unicode = 0041;
},
{
glyphname = B;
lastChange = "2020-03-13 21:33:49 +0000";
layers = (
{
layerId = "B8E4E6F7-CD69-4587-8CB0-DED49904045E";
paths = (
{
closed = 1;
nodes = (
"336 1409 LINE",
"63 0 LINE",
"658 0 LINE SMOOTH",
"1027.333 0 OFFCURVE",
"1247 155 OFFCURVE",
"1247 439 CURVE SMOOTH",
"1247 596.333 OFFCURVE",
"1141 712.333 OFFCURVE",
"957 743 CURVE",
"1183 782.333 OFFCURVE",
"1296 897 OFFCURVE",
"1296 1087 CURVE SMOOTH",
"1296 1285.667 OFFCURVE",
"1124.667 1409 OFFCURVE",
"846 1409 CURVE SMOOTH",
"336 1409 LINE"
);
},
{
closed = 1;
nodes = (
"411 810 LINE",
"498 1256 LINE",
"829 1256 LINE SMOOTH",
"1007.667 1256 OFFCURVE",
"1097 1193.333 OFFCURVE",
"1097 1068 CURVE SMOOTH",
"1097 896 OFFCURVE",
"978.667 810 OFFCURVE",
"742 810 CURVE SMOOTH",
"411 810 LINE"
);
},
{
closed = 1;
nodes = (
"283 153 LINE",
"382 661 LINE",
"748 661 LINE SMOOTH",
"946.667 661 OFFCURVE",
"1056 584.667 OFFCURVE",
"1056 442 CURVE SMOOTH",
"1056 252.667 OFFCURVE",
"931 153 OFFCURVE",
"651 153 CURVE SMOOTH",
"283 153 LINE"
);
}
);
width = 1366;
}
);
note = B;
unicode = 0042;
},
{
glyphname = C;
lastChange = "2020-03-13 21:33:49 +0000";
layers = (
{
layerId = "B8E4E6F7-CD69-4587-8CB0-DED49904045E";
paths = (
{
closed = 1;
nodes = (
"1358 337 LINE",
"1215 426 LINE",
"1084.333 234 OFFCURVE",
"910.333 135 OFFCURVE",
"713 135 CURVE SMOOTH",
"455.667 135 OFFCURVE",
"302 299.333 OFFCURVE",
"302 566 CURVE SMOOTH",
"302 846 OFFCURVE",
"405.333 1067.5 OFFCURVE",
"592 1185.5 CURVE SMOOTH",
"685.333 1244.5 OFFCURVE",
"793.333 1274 OFFCURVE",
"916 1274 CURVE SMOOTH",
"1117.333 1274 OFFCURVE",
"1262 1179.333 OFFCURVE",
"1310 1030 CURVE",
"1490 1085 LINE",
"1426 1303.667 OFFCURVE",
"1215.333 1430 OFFCURVE",
"926 1430 CURVE SMOOTH",
"619.333 1430 OFFCURVE",
"358 1279.333 OFFCURVE",
"218 1014 CURVE SMOOTH",
"148 881.333 OFFCURVE",
"113 733 OFFCURVE",
"113 569 CURVE SMOOTH",
"113 334.333 OFFCURVE",
"207.5 149.167 OFFCURVE",
"385.5 52.5 CURVE SMOOTH",
"474.5 4.167 OFFCURVE",
"579.333 -20 OFFCURVE",
"700 -20 CURVE SMOOTH",
"982.667 -20 OFFCURVE",
"1190 86.333 OFFCURVE",
"1358 337 CURVE"
);
}
);
width = 1479;
}
);
note = C;
unicode = 0043;
},
{
glyphname = D;
lastChange = "2020-03-13 21:33:49 +0000";
layers = (
{
layerId = "B8E4E6F7-CD69-4587-8CB0-DED49904045E";
paths = (
{
closed = 1;
nodes = (
"744 1409 LINE",
"336 1409 LINE",
"63 0 LINE",
"575 0 LINE SMOOTH",
"901.667 0 OFFCURVE",
"1172.667 142 OFFCURVE",
"1310 378 CURVE SMOOTH",
"1378.667 496 OFFCURVE",
"1413 633.667 OFFCURVE",
"1413 791 CURVE SMOOTH",
"1413 1176.333 OFFCURVE",
"1160 1409 OFFCURVE",
"744 1409 CURVE"
);
},
{
closed = 1;
nodes = (
"283 153 LINE",
"498 1256 LINE",
"740 1256 LINE SMOOTH",
"1042.667 1256 OFFCURVE",
"1219 1085 OFFCURVE",
"1219 793 CURVE SMOOTH",
"1219 534.333 OFFCURVE",
"1109.667 333.833 OFFCURVE",
"911 230.5 CURVE SMOOTH",
"811.667 178.833 OFFCURVE",
"697 153 OFFCURVE",
"567 153 CURVE SMOOTH",
"283 153 LINE"
);
}
);
width = 1479;
}
);
note = D;
unicode = 0044;
},
{
glyphname = E;
lastChange = "2020-03-13 21:33:49 +0000";
layers = (
{
layerId = "B8E4E6F7-CD69-4587-8CB0-DED49904045E";
paths = (
{
closed = 1;
nodes = (
"63 0 LINE",
"1153 0 LINE",
"1183 156 LINE",
"284 156 LINE",
"379 647 LINE",
"1177 647 LINE",
"1207 801 LINE",
"409 801 LINE",
"497 1253 LINE",
"1355 1253 LINE",
"1385 1409 LINE",
"336 1409 LINE",
"63 0 LINE"
);
}
);
width = 1366;
}
);
note = E;
unicode = 0045;
},
{
glyphname = F;
lastChange = "2020-03-13 21:33:49 +0000";
layers = (
{
layerId = "B8E4E6F7-CD69-4587-8CB0-DED49904045E";
paths = (
{
closed = 1;
nodes = (
"497 1253 LINE",
"1317 1253 LINE",
"1347 1409 LINE",
"336 1409 LINE",
"63 0 LINE",
"254 0 LINE",
"364 571 LINE",
"1160 571 LINE",
"1191 729 LINE",
"395 729 LINE",
"497 1253 LINE"
);
}
);
width = 1251;
}
);
note = F;
unicode = 0046;
},
{
glyphname = G;
lastChange = "2020-03-13 21:33:49 +0000";
layers = (
{
layerId = "B8E4E6F7-CD69-4587-8CB0-DED49904045E";
paths = (
{
closed = 1;
nodes = (
"742 -20 LINE",
"996.667 -20 OFFCURVE",
"1203.333 50 OFFCURVE",
"1390 210 CURVE",
"1490 705 LINE",
"893 705 LINE",
"861 545 LINE",
"1282 545 LINE",
"1231 291 LINE",
"1107 188.333 OFFCURVE",
"932 135 OFFCURVE",
"748 135 CURVE SMOOTH",
"461.333 135 OFFCURVE",
"297 295.667 OFFCURVE",
"297 577 CURVE SMOOTH",
"297 854.333 OFFCURVE",
"402.833 1073.333 OFFCURVE",
"595.5 1188 CURVE SMOOTH",
"691.833 1245.333 OFFCURVE",
"804 1274 OFFCURVE",
"932 1274 CURVE SMOOTH",
"1130.667 1274 OFFCURVE",
"1262.667 1197.333 OFFCURVE",
"1312 1044 CURVE",
"1505 1098 LINE",
"1431.667 1316.667 OFFCURVE",
"1240 1430 OFFCURVE",
"944 1430 CURVE SMOOTH",
"613.333 1430 OFFCURVE",
"346 1280.5 OFFCURVE",
"206 1018.5 CURVE SMOOTH",
"136 887.5 OFFCURVE",
"101 739 OFFCURVE",
"101 573 CURVE SMOOTH",
"101 198.333 OFFCURVE",
"335.333 -20 OFFCURVE",
"742 -20 CURVE"
);
}
);
width = 1593;
}
);
note = G;
unicode = 0047;
},
{
glyphname = H;
lastChange = "2020-03-13 21:33:49 +0000";
layers = (
{
layerId = "B8E4E6F7-CD69-4587-8CB0-DED49904045E";
paths = (
{
closed = 1;
nodes = (
"1021 0 LINE",
"1207 0 LINE",
"1481 1409 LINE",
"1295 1409 LINE",
"1179 813 LINE",
"412 813 LINE",
"528 1409 LINE",
"337 1409 LINE",
"63 0 LINE",
"254 0 LINE",
"381 653 LINE",
"1148 653 LINE",
"1021 0 LINE"
);
}
);
width = 1479;
}
);
note = H;
unicode = 0048;
},
{
glyphname = I;
lastChange = "2020-03-13 21:33:49 +0000";
layers = (
{
layerId = "B8E4E6F7-CD69-4587-8CB0-DED49904045E";
paths = (
{
closed = 1;
nodes = (
"81 0 LINE",
"272 0 LINE",
"546 1409 LINE",
"355 1409 LINE",
"81 0 LINE"
);
}
);
width = 569;
}
);
note = I;
unicode = 0049;
},
{
glyphname = J;
lastChange = "2020-03-13 21:33:49 +0000";
layers = (
{
layerId = "B8E4E6F7-CD69-4587-8CB0-DED49904045E";
paths = (
{
closed = 1;
nodes = (
"381 -20 LINE",
"641 -20 OFFCURVE",
"789.667 124.333 OFFCURVE",
"847 423 CURVE SMOOTH",
"1040 1409 LINE",
"559 1409 LINE",
"529 1253 LINE",
"820 1253 LINE",
"663 440 LINE SMOOTH",
"623 226.667 OFFCURVE",
"538 135 OFFCURVE",
"398 135 CURVE SMOOTH",
"264.667 135 OFFCURVE",
"193.667 220 OFFCURVE",
"163 376 CURVE",
"-5 343 LINE",
"29.667 107 OFFCURVE",
"169 -20 OFFCURVE",
"381 -20 CURVE"
);
}
);
width = 1024;
}
);
note = J;
unicode = 004A;
},
{
glyphname = K;
lastChange = "2020-03-13 21:33:49 +0000";
layers = (
{
layerId = "B8E4E6F7-CD69-4587-8CB0-DED49904045E";
paths = (
{
closed = 1;
nodes = (
"1022 0 LINE",
"1248 0 LINE",
"691 779 LINE",
"1441 1409 LINE",
"1196 1409 LINE",
"531 847 LINE",
"391 718 LINE",
"527 1409 LINE",
"336 1409 LINE",
"63 0 LINE",
"254 0 LINE",
"360 545 LINE",
"550 674 LINE",
"1022 0 LINE"
);
}
);
width = 1366;
}
);
note = K;
unicode = 004B;
},
{
glyphname = L;
lastChange = "2020-03-13 21:33:49 +0000";
layers = (
{
layerId = "B8E4E6F7-CD69-4587-8CB0-DED49904045E";
paths = (
{
closed = 1;
nodes = (
"63 0 LINE",
"966 0 LINE",
"996 156 LINE",
"284 156 LINE",
"527 1409 LINE",
"336 1409 LINE",
"63 0 LINE"
);
}
);
width = 1139;
}
);
note = L;
unicode = 004C;
},
{
glyphname = M;
lastChange = "2020-03-13 21:33:49 +0000";
layers = (
{
layerId = "B8E4E6F7-CD69-4587-8CB0-DED49904045E";
paths = (
{
closed = 1;
nodes = (
"1261 0 LINE",
"1433 0 LINE",
"1706 1409 LINE",
"1450 1409 LINE",
"897 440 LINE",
"793 227 LINE",
"777 337.667 OFFCURVE",
"766.333 406 OFFCURVE",
"761 432 CURVE SMOOTH",
"572 1409 LINE",
"336 1409 LINE",
"63 0 LINE",
"233 0 LINE",
"352.333 608.667 OFFCURVE",
"419 955.5 OFFCURVE",
"433 1040.5 CURVE SMOOTH",
"447 1125.5 OFFCURVE",
"457 1188 OFFCURVE",
"463 1228 CURVE",
"486.333 1060.667 OFFCURVE",
"500 967.333 OFFCURVE",
"504 948 CURVE SMOOTH",
"689 0 LINE",
"813 0 LINE",
"1361 948 LINE SMOOTH",
"1397 1008.667 OFFCURVE",
"1445.333 1102 OFFCURVE",
"1506 1228 CURVE",
"1486.667 1151.333 OFFCURVE",
"1465 1051.333 OFFCURVE",
"1441 928 CURVE SMOOTH",
"1261 0 LINE"
);
}
);
width = 1706;
}
);
note = M;
unicode = 004D;
},
{
glyphname = N;
lastChange = "2020-03-13 21:33:49 +0000";
layers = (
{
layerId = "B8E4E6F7-CD69-4587-8CB0-DED49904045E";
paths = (
{
closed = 1;
nodes = (
"987 0 LINE",
"1207 0 LINE",
"1480 1409 LINE",
"1308 1409 LINE",
"1127 478 LINE SMOOTH",
"1114.333 414.667 OFFCURVE",
"1099.333 320 OFFCURVE",
"1082 194 CURVE",
"548 1409 LINE",
"336 1409 LINE",
"63 0 LINE",
"233 0 LINE",
"414 943 LINE SMOOTH",
"427.333 1007 OFFCURVE",
"441.333 1096 OFFCURVE",
"456 1210 CURVE",
"987 0 LINE"
);
}
);
width = 1479;
}
);
note = N;
unicode = 004E;
},
{
glyphname = O;
lastChange = "2020-03-13 21:33:49 +0000";
layers = (
{
layerId = "B8E4E6F7-CD69-4587-8CB0-DED49904045E";
paths = (
{
closed = 1;
nodes = (
"938 1430 LINE",
"620.667 1430 OFFCURVE",
"357.167 1279.833 OFFCURVE",
"216.5 1012.5 CURVE SMOOTH",
"146.167 878.833 OFFCURVE",
"111 732.333 OFFCURVE",
"111 573 CURVE SMOOTH",
"111 202.333 OFFCURVE",
"330.333 -20 OFFCURVE",
"709 -20 CURVE SMOOTH",
"1023.667 -20 OFFCURVE",
"1281.333 126.833 OFFCURVE",
"1424 387.5 CURVE SMOOTH",
"1495.333 517.833 OFFCURVE",
"1532.667 672.333 OFFCURVE",
"1536 851 CURVE SMOOTH",
"1536 1204.333 OFFCURVE",
"1307.333 1430 OFFCURVE",
"938 1430 CURVE"
);
},
{
closed = 1;
nodes = (
"929 1276 LINE",
"1194.333 1276 OFFCURVE",
"1345 1123 OFFCURVE",
"1345 847 CURVE SMOOTH",
"1345 589.667 OFFCURVE",
"1238.167 336.833 OFFCURVE",
"1053.5 221.5 CURVE SMOOTH",
"961.167 163.833 OFFCURVE",
"849.333 135 OFFCURVE",
"718 135 CURVE SMOOTH",
"447.333 135 OFFCURVE",
"302 284.333 OFFCURVE",
"302 563 CURVE SMOOTH",
"302 804.333 OFFCURVE",
"403.5 1068.333 OFFCURVE",
"589.5 1187 CURVE SMOOTH",
"682.5 1246.333 OFFCURVE",
"795.667 1276 OFFCURVE",
"929 1276 CURVE"
);
}
);
width = 1593;
}
);
note = O;
unicode = 004F;
},
{
glyphname = P;
lastChange = "2020-03-13 21:33:49 +0000";
layers = (
{
layerId = "B8E4E6F7-CD69-4587-8CB0-DED49904045E";
paths = (
{
closed = 1;
nodes = (
"852 1409 LINE",
"336 1409 LINE",
"63 0 LINE",
"254 0 LINE",
"360 549 LINE",
"784 549 LINE SMOOTH",
"1136 549 OFFCURVE",
"1353 726.667 OFFCURVE",
"1353 1020 CURVE SMOOTH",
"1353 1261.333 OFFCURVE",
"1160 1409 OFFCURVE",
"852 1409 CURVE"
);
},
{
closed = 1;
nodes = (
"390 700 LINE",
"498 1256 LINE",
"847 1256 LINE SMOOTH",
"1052.333 1256 OFFCURVE",
"1159 1169.667 OFFCURVE",
"1159 1011 CURVE SMOOTH",
"1159 803.667 OFFCURVE",
"1031.667 700 OFFCURVE",
"777 700 CURVE SMOOTH",
"390 700 LINE"
);
}
);
width = 1366;
}
);
note = P;
unicode = 0050;
},
{
glyphname = Q;
lastChange = "2020-03-13 21:33:49 +0000";
layers = (
{
layerId = "B8E4E6F7-CD69-4587-8CB0-DED49904045E";
paths = (
{
closed = 1;
nodes = (
"928 1430 LINE",
"610.667 1430 OFFCURVE",
"347.167 1279.833 OFFCURVE",
"206.5 1012.5 CURVE SMOOTH",
"136.167 878.833 OFFCURVE",
"101 732.333 OFFCURVE",
"101 573 CURVE SMOOTH",
"101 222.333 OFFCURVE",
"300.667 5.667 OFFCURVE",
"638 -17 CURVE",
"668.667 -281 OFFCURVE",
"772.667 -387 OFFCURVE",
"974 -387 CURVE SMOOTH",
"1036 -387 OFFCURVE",
"1092.333 -379.667 OFFCURVE",
"1143 -365 CURVE",
"1161 -231 LINE",
"1117.667 -239.667 OFFCURVE",
"1076.667 -244 OFFCURVE",
"1038 -244 CURVE SMOOTH",
"906 -244 OFFCURVE",
"844.667 -173.333 OFFCURVE",
"822 -12 CURVE",
"1096.667 24 OFFCURVE",
"1313.333 177.667 OFFCURVE",
"1432 423 CURVE SMOOTH",
"1491.333 545.667 OFFCURVE",
"1522.667 688.333 OFFCURVE",
"1526 851 CURVE SMOOTH",
"1526 1204.333 OFFCURVE",
"1297.333 1430 OFFCURVE",
"928 1430 CURVE"
);
},
{
closed = 1;
nodes = (
"919 1276 LINE",
"1184.333 1276 OFFCURVE",
"1335 1123 OFFCURVE",
"1335 847 CURVE SMOOTH",
"1335 589.667 OFFCURVE",
"1228.167 336.833 OFFCURVE",
"1043.5 221.5 CURVE SMOOTH",
"951.167 163.833 OFFCURVE",
"839.333 135 OFFCURVE",
"708 135 CURVE SMOOTH",
"437.333 135 OFFCURVE",
"292 284.333 OFFCURVE",
"292 563 CURVE SMOOTH",
"292 804.333 OFFCURVE",
"393.5 1068.333 OFFCURVE",
"579.5 1187 CURVE SMOOTH",
"672.5 1246.333 OFFCURVE",
"785.667 1276 OFFCURVE",
"919 1276 CURVE"
);
}
);
width = 1593;
}
);
note = Q;
unicode = 0051;
},
{
glyphname = R;
lastChange = "2020-03-13 21:33:49 +0000";
layers = (
{
layerId = "B8E4E6F7-CD69-4587-8CB0-DED49904045E";
paths = (
{
closed = 1;
nodes = (
"1051 0 LINE",
"1257 0 LINE",
"989 602 LINE",
"1270.333 640.667 OFFCURVE",
"1416 788.333 OFFCURVE",
"1416 1039 CURVE SMOOTH",
"1416 1260.333 OFFCURVE",
"1233.333 1409 OFFCURVE",
"948 1409 CURVE SMOOTH",
"336 1409 LINE",
"63 0 LINE",
"254 0 LINE",
"367 585 LINE",
"808 585 LINE",
"1051 0 LINE"
);
},
{
closed = 1;
nodes = (
"857 736 LINE",
"397 736 LINE",
"498 1256 LINE",
"925 1256 LINE SMOOTH",
"1122.333 1256 OFFCURVE",
"1222 1173.333 OFFCURVE",
"1222 1024 CURVE SMOOTH",
"1222 841.333 OFFCURVE",
"1098.333 736 OFFCURVE",
"857 736 CURVE"
);
}
);
width = 1479;
}
);
note = R;
unicode = 0052;
},
{
glyphname = S;
lastChange = "2020-03-13 21:33:49 +0000";
layers = (
{
layerId = "B8E4E6F7-CD69-4587-8CB0-DED49904045E";
paths = (
{
closed = 1;
nodes = (
"616 -20 LINE",
"1042.667 -20 OFFCURVE",
"1246 133.333 OFFCURVE",
"1246 408 CURVE SMOOTH",
"1246 548 OFFCURVE",
"1183.5 639.333 OFFCURVE",
"1069.5 706 CURVE SMOOTH",
"1012.5 739.333 OFFCURVE",
"919 774 OFFCURVE",
"789 810 CURVE SMOOTH",
"673 841.333 OFFCURVE",
"595.5 866.5 OFFCURVE",
"556.5 885.5 CURVE SMOOTH",
"478.5 923.5 OFFCURVE",
"447 970 OFFCURVE",
"447 1050 CURVE SMOOTH",
"447 1207.333 OFFCURVE",
"572.333 1286 OFFCURVE",
"823 1286 CURVE SMOOTH",
"1015 1286 OFFCURVE",
"1127 1221 OFFCURVE",
"1171 1081 CURVE",
"1344 1132 LINE",
"1298.667 1326.667 OFFCURVE",
"1117.333 1430 OFFCURVE",
"824 1430 CURVE SMOOTH",
"474.667 1430 OFFCURVE",
"255 1283.667 OFFCURVE",
"255 1041 CURVE SMOOTH",
"255 910.333 OFFCURVE",
"313.833 819.5 OFFCURVE",
"426.5 753.5 CURVE SMOOTH",
"482.833 720.5 OFFCURVE",
"568 688.333 OFFCURVE",
"682 657 CURVE SMOOTH",
"796 625 OFFCURVE",
"876.333 598.167 OFFCURVE",
"923 576.5 CURVE SMOOTH",
"1016.333 533.167 OFFCURVE",
"1051 485.333 OFFCURVE",
"1051 396 CURVE SMOOTH",
"1051 216 OFFCURVE",
"922 130 OFFCURVE",
"630 130 CURVE SMOOTH",
"387.333 130 OFFCURVE",
"271 203 OFFCURVE",
"235 375 CURVE",
"58 338 LINE",
"103.333 96.667 OFFCURVE",
"284 -20 OFFCURVE",
"616 -20 CURVE"
);
}
);
width = 1366;
}
);
note = S;
unicode = 0053;
},
{
glyphname = T;
lastChange = "2020-03-13 21:33:49 +0000";
layers = (
{
layerId = "B8E4E6F7-CD69-4587-8CB0-DED49904045E";
paths = (
{
closed = 1;
nodes = (
"858 1253 LINE",
"1342 1253 LINE",
"1372 1409 LINE",
"214 1409 LINE",
"184 1253 LINE",
"668 1253 LINE",
"424 0 LINE",
"614 0 LINE",
"858 1253 LINE"
);
}
);
width = 1251;
}
);
note = T;
unicode = 0054;
},
{
glyphname = U;
lastChange = "2020-03-13 21:33:49 +0000";
layers = (
{
layerId = "B8E4E6F7-CD69-4587-8CB0-DED49904045E";
paths = (
{
closed = 1;
nodes = (
"654 -20 LINE",
"1020.667 -20 OFFCURVE",
"1247 166 OFFCURVE",
"1319 530 CURVE SMOOTH",
"1489 1409 LINE",
"1299 1409 LINE",
"1131 541 LINE SMOOTH",
"1079.667 270.333 OFFCURVE",
"926 135 OFFCURVE",
"670 135 CURVE SMOOTH",
"460.667 135 OFFCURVE",
"338 241.667 OFFCURVE",
"338 423 CURVE SMOOTH",
"338 460.333 OFFCURVE",
"343.667 508 OFFCURVE",
"355 566 CURVE SMOOTH",
"517 1409 LINE",
"326 1409 LINE",
"176 635 LINE SMOOTH",
"165.333 585.667 OFFCURVE",
"153 489.667 OFFCURVE",
"153 431 CURVE SMOOTH",
"153 151 OFFCURVE",
"343.333 -20 OFFCURVE",
"654 -20 CURVE"
);
}
);
width = 1479;
}
);
note = U;
unicode = 0055;
},
{
glyphname = V;
lastChange = "2020-03-13 21:33:49 +0000";
layers = (
{
layerId = "B8E4E6F7-CD69-4587-8CB0-DED49904045E";
paths = (
{
closed = 1;
nodes = (
"677 0 LINE",
"1525 1409 LINE",
"1317 1409 LINE",
"737 417 LINE",
"604 168 LINE",
"569 417 LINE",
"371 1409 LINE",
"177 1409 LINE",
"479 0 LINE",
"677 0 LINE"
);
}
);
width = 1366;
}
);
note = V;
unicode = 0056;
},
{
glyphname = W;
lastChange = "2020-03-13 21:33:49 +0000";
layers = (
{
layerId = "B8E4E6F7-CD69-4587-8CB0-DED49904045E";
paths = (
{
closed = 1;
nodes = (
"1406 0 LINE",
"2094 1409 LINE",
"1893 1409 LINE",
"1592.333 773.667 OFFCURVE",
"1432 433 OFFCURVE",
"1412 387 CURVE SMOOTH",
"1392 341 OFFCURVE",
"1366 279.667 OFFCURVE",
"1334 203 CURVE SMOOTH",
"1318 168 LINE",
"1316 308 OFFCURVE",
"1310.333 429.333 OFFCURVE",
"1301 532 CURVE SMOOTH",
"1226 1409 LINE",
"1043 1409 LINE",
"781.667 859 OFFCURVE",
"633.833 546 OFFCURVE",
"599.5 470 CURVE SMOOTH",
"565.167 394 OFFCURVE",
"521.667 293.333 OFFCURVE",
"469 168 CURVE",
"466.333 295.333 OFFCURVE",
"461 410.667 OFFCURVE",
"453 514 CURVE SMOOTH",
"374 1409 LINE",
"177 1409 LINE",
"319 0 LINE",
"542 0 LINE",
"961 895 LINE SMOOTH",
"1000.333 978.333 OFFCURVE",
"1045.333 1086.333 OFFCURVE",
"1096 1219 CURVE",
"1097.333 1186.333 OFFCURVE",
"1102.667 1078.333 OFFCURVE",
"1112 895 CURVE",
"1183 0 LINE",
"1406 0 LINE"
);
}
);
width = 1933;
}
);
note = W;
unicode = 0057;
},
{
glyphname = X;
lastChange = "2020-03-13 21:33:49 +0000";
layers = (
{
layerId = "B8E4E6F7-CD69-4587-8CB0-DED49904045E";
paths = (
{
closed = 1;
nodes = (
"999 0 LINE",
"1198 0 LINE",
"830 733 LINE",
"1430 1409 LINE",
"1219 1409 LINE",
"744 858 LINE",
"474 1409 LINE",
"275 1409 LINE",
"615 746 LINE",
"-39 0 LINE",
"172 0 LINE",
"696 606 LINE",
"999 0 LINE"
);
}
);
width = 1366;
}
);
note = X;
unicode = 0058;
},
{
glyphname = Y;
lastChange = "2020-03-13 21:33:49 +0000";
layers = (
{
layerId = "B8E4E6F7-CD69-4587-8CB0-DED49904045E";
paths = (
{
closed = 1;
nodes = (
"672 0 LINE",
"785 584 LINE",
"1489 1409 LINE",
"1275 1409 LINE",
"715 735 LINE",
"409 1409 LINE",
"213 1409 LINE",
"597 584 LINE",
"482 0 LINE",
"672 0 LINE"
);
}
);
width = 1366;
}
);
note = Y;
unicode = 0059;
},
{
glyphname = Z;
lastChange = "2020-03-13 21:33:49 +0000";
layers = (
{
layerId = "B8E4E6F7-CD69-4587-8CB0-DED49904045E";
paths = (
{
closed = 1;
nodes = (
"1082 0 LINE",
"1112 156 LINE",
"227 156 LINE",
"1281 1270 LINE",
"1308 1409 LINE",
"306 1409 LINE",
"276 1253 LINE",
"1041 1253 LINE",
"-13 143 LINE",
"-40 0 LINE",
"1082 0 LINE"
);
}
);
width = 1251;
}
);
note = Z;
unicode = 005A;
},
{
glyphname = bracketleft;
lastChange = "2020-03-13 21:33:49 +0000";
layers = (
{
layerId = "B8E4E6F7-CD69-4587-8CB0-DED49904045E";
paths = (
{
closed = 1;
nodes = (
"-39 -425 LINE",
"367 -425 LINE",
"392 -296 LINE",
"159 -296 LINE",
"480 1355 LINE",
"713 1355 LINE",
"738 1484 LINE",
"331 1484 LINE",
"-39 -425 LINE"
);
}
);
width = 569;
}
);
note = bracketleft;
unicode = 005B;
},
{
glyphname = backslash;
lastChange = "2020-03-13 21:33:49 +0000";
layers = (
{
layerId = "B8E4E6F7-CD69-4587-8CB0-DED49904045E";
paths = (
{
closed = 1;
nodes = (
"320 -20 LINE",
"472 -20 LINE",
"294 1484 LINE",
"146 1484 LINE",
"320 -20 LINE"
);
}
);
width = 569;
}
);
note = backslash;
unicode = 005C;
},
{
glyphname = bracketright;
lastChange = "2020-03-13 21:33:49 +0000";
layers = (
{
layerId = "B8E4E6F7-CD69-4587-8CB0-DED49904045E";
paths = (
{
closed = 1;
nodes = (
"-169 -425 LINE",
"237 -425 LINE",
"608 1484 LINE",
"201 1484 LINE",
"176 1355 LINE",
"409 1355 LINE",
"88 -296 LINE",
"-144 -296 LINE",
"-169 -425 LINE"
);
}
);
width = 569;
}
);
note = bracketright;
unicode = 005D;
},
{
glyphname = asciicircum;
lastChange = "2020-03-13 21:33:49 +0000";
layers = (
{
layerId = "B8E4E6F7-CD69-4587-8CB0-DED49904045E";
paths = (
{
closed = 1;
nodes = (
"817 673 LINE",
"981 673 LINE",
"611 1409 LINE",
"408 1409 LINE",
"40 673 LINE",
"202 673 LINE",
"508 1306 LINE",
"817 673 LINE"
);
}
);
width = 961;
}
);
note = asciicircum;
unicode = 005E;
},
{
glyphname = underscore;
lastChange = "2020-03-13 21:33:49 +0000";
layers = (
{
layerId = "B8E4E6F7-CD69-4587-8CB0-DED49904045E";
paths = (
{
closed = 1;
nodes = (
"-160 -250 LINE",
"1018 -250 LINE",
"1018 -174 LINE",
"-160 -174 LINE",
"-160 -250 LINE"
);
}
);
width = 1139;
}
);
note = underscore;
unicode = 005F;
},
{
glyphname = grave;
lastChange = "2020-03-13 21:33:49 +0000";
layers = (
{
layerId = "B8E4E6F7-CD69-4587-8CB0-DED49904045E";
paths = (
{
closed = 1;
nodes = (
"412 1201 LINE",
"500 1201 LINE",
"503 1221 LINE",
"342 1508 LINE",
"135 1508 LINE",
"130 1479 LINE",
"412 1201 LINE"
);
}
);
width = 682;
}
);
note = grave;
unicode = 0060;
},
{
glyphname = a;
lastChange = "2020-03-13 21:33:49 +0000";
layers = (
{
layerId = "B8E4E6F7-CD69-4587-8CB0-DED49904045E";
paths = (
{
closed = 1;
nodes = (
"927 -10 LINE",
"968.333 -10 OFFCURVE",
"1011 -4.667 OFFCURVE",
"1055 6 CURVE",
"1069 118 LINE",
"1047 113.333 OFFCURVE",
"1027 111 OFFCURVE",
"1009 111 CURVE SMOOTH",
"955 111 OFFCURVE",
"928 135.333 OFFCURVE",
"928 184 CURVE SMOOTH",
"928 210.667 OFFCURVE",
"931.667 240 OFFCURVE",
"939 272 CURVE SMOOTH",
"1013 650 LINE SMOOTH",
"1025.667 712 OFFCURVE",
"1032 764.333 OFFCURVE",
"1032 807 CURVE SMOOTH",
"1032 987 OFFCURVE",
"890 1102 OFFCURVE",
"662 1102 CURVE SMOOTH",
"411.333 1102 OFFCURVE",
"266 1018 OFFCURVE",
"206 822 CURVE",
"384 793 LINE",
"420 909 OFFCURVE",
"493.333 965 OFFCURVE",
"652 965 CURVE SMOOTH",
"777.333 965 OFFCURVE",
"852 908.333 OFFCURVE",
"852 787 CURVE SMOOTH",
"852 767.667 OFFCURVE",
"845.667 725.333 OFFCURVE",
"833 660 CURVE",
"601 657 LINE SMOOTH",
"214.333 651.667 OFFCURVE",
"46 524.667 OFFCURVE",
"46 278 CURVE SMOOTH",
"46 104.667 OFFCURVE",
"174.333 -20 OFFCURVE",
"361 -20 CURVE SMOOTH",
"529 -20 OFFCURVE",
"637.333 39 OFFCURVE",
"748 207 CURVE",
"754 207 LINE",
"749 143 LINE",
"749 41.667 OFFCURVE",
"803 -10 OFFCURVE",
"927 -10 CURVE"
);
},
{
closed = 1;
nodes = (
"809 536 LINE",
"782 411 LINE SMOOTH",
"760.667 308.333 OFFCURVE",
"690 213.833 OFFCURVE",
"586 158.5 CURVE SMOOTH",
"534 130.833 OFFCURVE",
"475.667 117 OFFCURVE",
"411 117 CURVE SMOOTH",
"308.333 117 OFFCURVE",
"237 186 OFFCURVE",
"237 286 CURVE SMOOTH",
"237 368.667 OFFCURVE",
"267.5 425.5 OFFCURVE",
"317.5 463.5 CURVE SMOOTH",
"367.5 501.5 OFFCURVE",
"451.333 528 OFFCURVE",
"610 532 CURVE SMOOTH",
"809 536 LINE"
);
}
);
width = 1139;
}
);
note = a;
unicode = 0061;
},
{
glyphname = b;
lastChange = "2020-03-13 21:33:49 +0000";
layers = (
{
layerId = "B8E4E6F7-CD69-4587-8CB0-DED49904045E";
paths = (
{
closed = 1;
nodes = (
"744 1102 LINE",
"585.333 1102 OFFCURVE",
"487.333 1047.667 OFFCURVE",
"390 921 CURVE",
"386 921 LINE",
"403.333 983.667 OFFCURVE",
"414.667 1030.333 OFFCURVE",
"420 1061 CURVE SMOOTH",
"503 1484 LINE",
"323 1484 LINE",
"78 223 LINE SMOOTH",
"58 124.333 OFFCURVE",
"35.667 20 OFFCURVE",
"29 0 CURVE",
"202 0 LINE",
"204.667 4 OFFCURVE",
"235.667 128.667 OFFCURVE",
"245 178 CURVE",
"248 178 LINE",
"290.667 52.667 OFFCURVE",
"393 -20 OFFCURVE",
"557 -20 CURVE SMOOTH",
"787.667 -20 OFFCURVE",
"932.5 100.5 OFFCURVE",
"1014.5 354.5 CURVE SMOOTH",
"1055.5 481.5 OFFCURVE",
"1076 612.667 OFFCURVE",
"1076 748 CURVE SMOOTH",
"1076 968 OFFCURVE",
"953.333 1102 OFFCURVE",
"744 1102 CURVE"
);
},
{
closed = 1;
nodes = (
"692 963 LINE",
"828 963 OFFCURVE",
"888 880 OFFCURVE",
"888 716 CURVE SMOOTH",
"888 552 OFFCURVE",
"830 289.167 OFFCURVE",
"734 188.5 CURVE SMOOTH",
"686 138.167 OFFCURVE",
"620.667 113 OFFCURVE",
"538 113 CURVE SMOOTH",
"387.333 113 OFFCURVE",
"298 210.333 OFFCURVE",
"298 377 CURVE SMOOTH",
"298 506.333 OFFCURVE",
"337.667 691.833 OFFCURVE",
"403 800.5 CURVE SMOOTH",
"468.333 909.167 OFFCURVE",
"560 963 OFFCURVE",
"692 963 CURVE"
);
}
);
width = 1139;
}
);
note = b;
unicode = 0062;
},
{
glyphname = c;
lastChange = "2020-03-13 21:33:49 +0000";
layers = (
{
layerId = "B8E4E6F7-CD69-4587-8CB0-DED49904045E";
paths = (
{
closed = 1;
nodes = (
"469 122 LINE",
"323.667 122 OFFCURVE",
"251 211 OFFCURVE",
"251 389 CURVE SMOOTH",
"251 579.667 OFFCURVE",
"311 803.5 OFFCURVE",
"415 893.5 CURVE SMOOTH",
"467 938.5 OFFCURVE",
"535 961 OFFCURVE",
"619 961 CURVE SMOOTH",
"740.333 961 OFFCURVE",
"816 888.333 OFFCURVE",
"824 759 CURVE",
"1001 784 LINE",
"987.667 981.333 OFFCURVE",
"850.333 1102 OFFCURVE",
"625 1102 CURVE SMOOTH",
"393 1102 OFFCURVE",
"236.167 996.333 OFFCURVE",
"139.5 767 CURVE SMOOTH",
"91.167 652.333 OFFCURVE",
"67 528.333 OFFCURVE",
"67 395 CURVE SMOOTH",
"67 132.333 OFFCURVE",
"209 -20 OFFCURVE",
"465 -20 CURVE SMOOTH",
"683.667 -20 OFFCURVE",
"833.333 87.667 OFFCURVE",
"914 303 CURVE",
"758 352 LINE",
"702 198.667 OFFCURVE",
"605.667 122 OFFCURVE",
"469 122 CURVE"
);
}
);
width = 1024;
}
);
note = c;
unicode = 0063;
},
{
glyphname = d;
lastChange = "2020-03-13 21:33:49 +0000";
layers = (
{
layerId = "B8E4E6F7-CD69-4587-8CB0-DED49904045E";
paths = (
{
closed = 1;
nodes = (
"401 -21 LINE",
"558.333 -21 OFFCURVE",
"656.667 33.333 OFFCURVE",
"754 160 CURVE",
"759 160 LINE",
"745 87.333 OFFCURVE",
"738 34 OFFCURVE",
"738 0 CURVE",
"910 0 LINE",
"916 54.667 OFFCURVE",
"928.667 129 OFFCURVE",
"948 223 CURVE SMOOTH",
"1193 1484 LINE",
"1013 1484 LINE",
"931 1065 LINE",
"903 903 LINE",
"898 903 LINE",
"855.333 1028.333 OFFCURVE",
"752 1101 OFFCURVE",
"588 1101 CURVE SMOOTH",
"357.333 1101 OFFCURVE",
"212.5 980.5 OFFCURVE",
"130.5 726.5 CURVE SMOOTH",
"89.5 599.5 OFFCURVE",
"69 468.333 OFFCURVE",
"69 333 CURVE SMOOTH",
"69 113 OFFCURVE",
"191.667 -21 OFFCURVE",
"401 -21 CURVE"
);
},
{
closed = 1;
nodes = (
"453 118 LINE",
"317 118 OFFCURVE",
"257 201 OFFCURVE",
"257 365 CURVE SMOOTH",
"257 537 OFFCURVE",
"319.333 798.833 OFFCURVE",
"414 895.5 CURVE SMOOTH",
"461.333 943.833 OFFCURVE",
"525.667 968 OFFCURVE",
"607 968 CURVE SMOOTH",
"757.667 968 OFFCURVE",
"847 870.667 OFFCURVE",
"847 704 CURVE SMOOTH",
"847 574.667 OFFCURVE",
"807.333 389.167 OFFCURVE",
"742 280.5 CURVE SMOOTH",
"676.667 171.833 OFFCURVE",
"585 118 OFFCURVE",
"453 118 CURVE"
);
}
);
width = 1139;
}
);
note = d;
unicode = 0064;
},
{
glyphname = e;
lastChange = "2020-03-13 21:33:49 +0000";
layers = (
{
layerId = "B8E4E6F7-CD69-4587-8CB0-DED49904045E";
paths = (
{
closed = 1;
nodes = (
"256 503 LINE",
"1039 503 LINE",
"1055 569.667 OFFCURVE",
"1063 638 OFFCURVE",
"1063 708 CURVE SMOOTH",
"1063 958.667 OFFCURVE",
"903.333 1102 OFFCURVE",
"630 1102 CURVE SMOOTH",
"415.333 1102 OFFCURVE",
"234.667 978.167 OFFCURVE",
"140 765.5 CURVE SMOOTH",
"92.667 659.167 OFFCURVE",
"69 539 OFFCURVE",
"69 405 CURVE SMOOTH",
"69 135.667 OFFCURVE",
"225 -20 OFFCURVE",
"493 -20 CURVE SMOOTH",
"706.333 -20 OFFCURVE",
"853.667 56.333 OFFCURVE",
"951 231 CURVE",
"813 294 LINE",
"754.333 183.333 OFFCURVE",
"643.333 115 OFFCURVE",
"514 115 CURVE SMOOTH",
"335.333 115 OFFCURVE",
"247 212.667 OFFCURVE",
"247 390 CURVE SMOOTH",
"249 442 OFFCURVE",
"252 479.667 OFFCURVE",
"256 503 CURVE"
);
},
{
closed = 1;
nodes = (
"880 641 LINE",
"280 641 LINE",
"329.333 850.333 OFFCURVE",
"455.333 969 OFFCURVE",
"634 969 CURVE SMOOTH",
"795.333 969 OFFCURVE",
"884 878.333 OFFCURVE",
"884 713 CURVE",
"880 641 LINE"
);
}
);
width = 1139;
}
);
note = e;
unicode = 0065;
},
{
glyphname = f;
lastChange = "2020-03-13 21:33:49 +0000";
layers = (
{
layerId = "B8E4E6F7-CD69-4587-8CB0-DED49904045E";
paths = (
{
closed = 1;
nodes = (
"434 951 LINE",
"645 951 LINE",
"671 1082 LINE",
"460 1082 LINE",
"479 1179 LINE SMOOTH",
"505.667 1311 OFFCURVE",
"545 1343 OFFCURVE",
"629 1343 CURVE SMOOTH",
"675 1341 LINE",
"720 1335 LINE",
"746 1472 LINE",
"712.667 1480 OFFCURVE",
"671.333 1484 OFFCURVE",
"622 1484 CURVE SMOOTH",
"492.667 1484 OFFCURVE",
"413.5 1445.5 OFFCURVE",
"363.5 1371.5 CURVE SMOOTH",
"338.5 1334.5 OFFCURVE",
"318.333 1278.667 OFFCURVE",
"303 1204 CURVE SMOOTH",
"280 1082 LINE",
"128 1082 LINE",
"102 951 LINE",
"254 951 LINE",
"69 0 LINE",
"249 0 LINE",
"434 951 LINE"
);
}
);
width = 569;
}
);
note = f;
unicode = 0066;
},
{
glyphname = g;
lastChange = "2020-03-13 21:33:49 +0000";
layers = (
{
layerId = "B8E4E6F7-CD69-4587-8CB0-DED49904045E";
paths = (
{
closed = 1;
nodes = (
"397 -425 LINE",
"687.667 -425 OFFCURVE",
"847 -291.667 OFFCURVE",
"911 31 CURVE SMOOTH",
"1072 858 LINE",
"1102 1000 LINE",
"1121 1082 LINE",
"950 1082 LINE",
"943.333 1070 OFFCURVE",
"911.333 946.333 OFFCURVE",
"902 897 CURVE",
"900 897 LINE",
"868 1017 OFFCURVE",
"749.333 1101 OFFCURVE",
"588 1101 CURVE SMOOTH",
"418.667 1101 OFFCURVE",
"296.667 1038 OFFCURVE",
"210 902 CURVE SMOOTH",
"123.333 766 OFFCURVE",
"70 536.333 OFFCURVE",
"70 359 CURVE SMOOTH",
"70 137.667 OFFCURVE",
"206 -8 OFFCURVE",
"410 -8 CURVE SMOOTH",
"512.667 -8 OFFCURVE",
"590.167 21 OFFCURVE",
"653.5 73 CURVE SMOOTH",
"685.167 99 OFFCURVE",
"721.667 141.667 OFFCURVE",
"763 201 CURVE",
"765 201 LINE",
"731 27 LINE SMOOTH",
"688.333 -197 OFFCURVE",
"590.333 -288 OFFCURVE",
"401 -288 CURVE SMOOTH",
"268.333 -288 OFFCURVE",
"190.333 -235.667 OFFCURVE",
"167 -131 CURVE",
"4 -173 LINE",
"40 -341 OFFCURVE",
"171 -425 OFFCURVE",
"397 -425 CURVE"
);
},
{
closed = 1;
nodes = (
"259 373 LINE",
"259 506.333 OFFCURVE",
"301.333 709.667 OFFCURVE",
"356 815 CURVE SMOOTH",
"410.667 920.333 OFFCURVE",
"487 968 OFFCURVE",
"607 968 CURVE SMOOTH",
"756.333 968 OFFCURVE",
"847 870.667 OFFCURVE",
"847 704 CURVE SMOOTH",
"847 506.667 OFFCURVE",
"779.333 308.167 OFFCURVE",
"662 203.5 CURVE SMOOTH",
"603.333 151.167 OFFCURVE",
"538 125 OFFCURVE",
"466 125 CURVE SMOOTH",
"330 125 OFFCURVE",
"259 211.667 OFFCURVE",
"259 373 CURVE"
);
}
);
width = 1139;
}
);
note = g;
unicode = 0067;
},
{
glyphname = h;
lastChange = "2020-03-13 21:33:49 +0000";
layers = (
{
layerId = "B8E4E6F7-CD69-4587-8CB0-DED49904045E";
paths = (
{
closed = 1;
nodes = (
"383 897 LINE",
"380 897 LINE",
"399.333 964.333 OFFCURVE",
"415 1031.333 OFFCURVE",
"427 1098 CURVE SMOOTH",
"502 1484 LINE",
"322 1484 LINE",
"34 0 LINE",
"213 0 LINE",
"331 606 LINE SMOOTH",
"373.667 824.667 OFFCURVE",
"513 962 OFFCURVE",
"681 962 CURVE SMOOTH",
"800.333 962 OFFCURVE",
"860 906.333 OFFCURVE",
"860 795 CURVE SMOOTH",
"860 753.667 OFFCURVE",
"854 703.667 OFFCURVE",
"842 645 CURVE SMOOTH",
"716 0 LINE",
"897 0 LINE",
"1024 653 LINE SMOOTH",
"1038 719.667 OFFCURVE",
"1045 774.333 OFFCURVE",
"1045 817 CURVE SMOOTH",
"1045 1001 OFFCURVE",
"945.333 1101 OFFCURVE",
"748 1101 CURVE SMOOTH",
"594.667 1101 OFFCURVE",
"493.667 1050.333 OFFCURVE",
"383 897 CURVE"
);
}
);
width = 1139;
}
);
note = h;
unicode = 0068;
},
{
glyphname = i;
lastChange = "2020-03-13 21:33:49 +0000";
layers = (
{
layerId = "B8E4E6F7-CD69-4587-8CB0-DED49904045E";
paths = (
{
closed = 1;
nodes = (
"287 1312 LINE",
"467 1312 LINE",
"501 1484 LINE",
"321 1484 LINE",
"287 1312 LINE"
);
},
{
closed = 1;
nodes = (
"33 0 LINE",
"212 0 LINE",
"423 1082 LINE",
"243 1082 LINE",
"33 0 LINE"
);
}
);
width = 455;
}
);
note = i;
unicode = 0069;
},
{
glyphname = j;
lastChange = "2020-03-13 21:33:49 +0000";
layers = (
{
layerId = "B8E4E6F7-CD69-4587-8CB0-DED49904045E";
paths = (
{
closed = 1;
nodes = (
"289 1312 LINE",
"469 1312 LINE",
"502 1484 LINE",
"322 1484 LINE",
"289 1312 LINE"
);
},
{
closed = 1;
nodes = (
"-100 -425 LINE",
"54.667 -425 OFFCURVE",
"145.667 -344.667 OFFCURVE",
"187 -134 CURVE SMOOTH",
"424 1082 LINE",
"244 1082 LINE",
"13 -107 LINE SMOOTH",
"-9.667 -229.667 OFFCURVE",
"-44.333 -283 OFFCURVE",
"-123 -283 CURVE SMOOTH",
"-143.667 -283 OFFCURVE",
"-171.333 -280.333 OFFCURVE",
"-206 -275 CURVE",
"-229 -411 LINE",
"-180.333 -420.333 OFFCURVE",
"-137.333 -425 OFFCURVE",
"-100 -425 CURVE"
);
}
);
width = 455;
}
);
note = j;
unicode = 006A;
},
{
glyphname = k;
lastChange = "2020-03-13 21:33:49 +0000";
layers = (
{
layerId = "B8E4E6F7-CD69-4587-8CB0-DED49904045E";
paths = (
{
closed = 1;
nodes = (
"721 0 LINE",
"916 0 LINE",
"580 617 LINE",
"1110 1082 LINE",
"888 1082 LINE",
"527 757 LINE",
"323 567 LINE",
"502 1484 LINE",
"322 1484 LINE",
"34 0 LINE",
"213 0 LINE",
"285 378 LINE",
"453 502 LINE",
"721 0 LINE"
);
}
);
width = 1024;
}
);
note = k;
unicode = 006B;
},
{
glyphname = l;
lastChange = "2020-03-13 21:33:49 +0000";
layers = (
{
layerId = "B8E4E6F7-CD69-4587-8CB0-DED49904045E";
paths = (
{
closed = 1;
nodes = (
"33 0 LINE",
"212 0 LINE",
"501 1484 LINE",
"321 1484 LINE",
"33 0 LINE"
);
}
);
width = 455;
}
);
note = l;
unicode = 006C;
},
{
glyphname = m;
lastChange = "2020-03-13 21:33:49 +0000";
layers = (
{
layerId = "B8E4E6F7-CD69-4587-8CB0-DED49904045E";
paths = (
{
closed = 1;
nodes = (
"660 0 LINE",
"838 0 LINE",
"956 607 LINE SMOOTH",
"993.333 820.333 OFFCURVE",
"1117.333 962 OFFCURVE",
"1272 962 CURVE SMOOTH",
"1386.667 962 OFFCURVE",
"1434 908 OFFCURVE",
"1434 808 CURVE SMOOTH",
"1434 775.333 OFFCURVE",
"1425.667 717.333 OFFCURVE",
"1409 634 CURVE SMOOTH",
"1285 0 LINE",
"1463 0 LINE",
"1590 653 LINE SMOOTH",
"1604 719.667 OFFCURVE",
"1611 774.333 OFFCURVE",
"1611 817 CURVE SMOOTH",
"1611 1001 OFFCURVE",
"1511 1101 OFFCURVE",
"1331 1101 CURVE SMOOTH",
"1192.333 1101 OFFCURVE",
"1093.667 1042.333 OFFCURVE",
"983 869 CURVE",
"964.333 1019.667 OFFCURVE",
"867.333 1101 OFFCURVE",
"706 1101 CURVE SMOOTH",
"570 1101 OFFCURVE",
"481.333 1049 OFFCURVE",
"384 897 CURVE",
"381 897 LINE",
"390.333 951.667 OFFCURVE",
"409 1067.333 OFFCURVE",
"409 1082 CURVE",
"239 1082 LINE",
"226.333 991.333 OFFCURVE",
"213.333 914.333 OFFCURVE",
"200 851 CURVE SMOOTH",
"34 0 LINE",
"213 0 LINE",
"331 604 LINE",
"367 817.333 OFFCURVE",
"492.333 962 OFFCURVE",
"647 962 CURVE SMOOTH",
"761.667 962 OFFCURVE",
"809 908 OFFCURVE",
"809 808 CURVE SMOOTH",
"809 775.333 OFFCURVE",
"800.667 717.333 OFFCURVE",
"784 634 CURVE SMOOTH",
"660 0 LINE"
);
}
);
width = 1706;
}
);
note = m;
unicode = 006D;
},
{
glyphname = n;
lastChange = "2020-03-13 21:33:49 +0000";
layers = (
{
layerId = "B8E4E6F7-CD69-4587-8CB0-DED49904045E";
paths = (
{
closed = 1;
nodes = (
"717 0 LINE",
"898 0 LINE",
"1025 653 LINE SMOOTH",
"1039 719.667 OFFCURVE",
"1046 774.333 OFFCURVE",
"1046 817 CURVE SMOOTH",
"1046 1001 OFFCURVE",
"946.333 1101 OFFCURVE",
"749 1101 CURVE SMOOTH",
"595.667 1101 OFFCURVE",
"494.667 1050.333 OFFCURVE",
"384 897 CURVE",
"381 897 LINE",
"390.333 951.667 OFFCURVE",
"409 1067.333 OFFCURVE",
"409 1082 CURVE",
"239 1082 LINE",
"226.333 991.333 OFFCURVE",
"213.333 914.333 OFFCURVE",
"200 851 CURVE SMOOTH",
"34 0 LINE",
"214 0 LINE",
"332 606 LINE SMOOTH",
"374.667 824.667 OFFCURVE",
"514 962 OFFCURVE",
"682 962 CURVE SMOOTH",
"801.333 962 OFFCURVE",
"861 906.333 OFFCURVE",
"861 795 CURVE SMOOTH",
"861 753.667 OFFCURVE",
"855 703.667 OFFCURVE",
"843 645 CURVE SMOOTH",
"717 0 LINE"
);
}
);
width = 1139;
}
);
note = n;
unicode = 006E;
},
{
glyphname = o;
lastChange = "2020-03-13 21:33:49 +0000";
layers = (
{
layerId = "B8E4E6F7-CD69-4587-8CB0-DED49904045E";
paths = (
{
closed = 1;
nodes = (
"1074 683 LINE",
"1074 948.333 OFFCURVE",
"922 1101 OFFCURVE",
"642 1101 CURVE SMOOTH",
"398 1101 OFFCURVE",
"234.333 991.667 OFFCURVE",
"141 781 CURVE SMOOTH",
"94.333 675.667 OFFCURVE",
"69.667 555 OFFCURVE",
"67 419 CURVE SMOOTH",
"67 148.333 OFFCURVE",
"229.667 -20 OFFCURVE",
"491 -20 CURVE SMOOTH",
"675 -20 OFFCURVE",
"820.167 44.5 OFFCURVE",
"919.5 174.5 CURVE SMOOTH",
"1018.833 304.5 OFFCURVE",
"1074 509.667 OFFCURVE",
"1074 683 CURVE"
);
},
{
closed = 1;
nodes = (
"888 683 LINE",
"881.333 515 OFFCURVE",
"839.667 353.5 OFFCURVE",
"777 255.5 CURVE SMOOTH",
"714.333 157.5 OFFCURVE",
"639.333 113 OFFCURVE",
"502 113 CURVE SMOOTH",
"339.333 113 OFFCURVE",
"252 218.667 OFFCURVE",
"252 416 CURVE SMOOTH",
"252 592 OFFCURVE",
"314.833 806.833 OFFCURVE",
"423.5 899.5 CURVE SMOOTH",
"477.833 945.833 OFFCURVE",
"550 969 OFFCURVE",
"640 969 CURVE SMOOTH",
"805.333 969 OFFCURVE",
"888 873.667 OFFCURVE",
"888 683 CURVE"
);
}
);
width = 1139;
}
);
note = o;
unicode = 006F;
},
{
glyphname = p;
lastChange = "2020-03-13 21:33:49 +0000";
layers = (
{
layerId = "B8E4E6F7-CD69-4587-8CB0-DED49904045E";
paths = (
{
closed = 1;
nodes = (
"554 -20 LINE",
"784.667 -20 OFFCURVE",
"929.5 100.5 OFFCURVE",
"1011.5 354.5 CURVE SMOOTH",
"1052.5 481.5 OFFCURVE",
"1073 612.667 OFFCURVE",
"1073 748 CURVE SMOOTH",
"1073 968 OFFCURVE",
"950.333 1102 OFFCURVE",
"741 1102 CURVE SMOOTH",
"582.333 1102 OFFCURVE",
"484.333 1047.667 OFFCURVE",
"387 921 CURVE",
"383 921 LINE",
"388.333 951.667 OFFCURVE",
"400 1046 OFFCURVE",
"400 1082 CURVE",
"233 1082 LINE",
"225 1008.667 OFFCURVE",
"213.333 935 OFFCURVE",
"198 861 CURVE SMOOTH",
"-51 -425 LINE",
"128 -425 LINE",
"190.667 -102.333 OFFCURVE",
"224.833 77 OFFCURVE",
"230.5 113 CURVE SMOOTH",
"236.167 149 OFFCURVE",
"239 170.667 OFFCURVE",
"239 178 CURVE",
"244 178 LINE",
"286.667 52.667 OFFCURVE",
"390 -20 OFFCURVE",
"554 -20 CURVE"
);
},
{
closed = 1;
nodes = (
"689 963 LINE",
"825 963 OFFCURVE",
"885 880 OFFCURVE",
"885 716 CURVE SMOOTH",
"885 552 OFFCURVE",
"827 289.167 OFFCURVE",
"731 188.5 CURVE SMOOTH",
"683 138.167 OFFCURVE",
"617.667 113 OFFCURVE",
"535 113 CURVE SMOOTH",
"384.333 113 OFFCURVE",
"295 210.333 OFFCURVE",
"295 377 CURVE SMOOTH",
"295 506.333 OFFCURVE",
"334.667 691.833 OFFCURVE",
"400 800.5 CURVE SMOOTH",
"465.333 909.167 OFFCURVE",
"557 963 OFFCURVE",
"689 963 CURVE"
);
}
);
width = 1139;
}
);
note = p;
unicode = 0070;
},
{
glyphname = q;
lastChange = "2020-03-13 21:33:49 +0000";
layers = (
{
layerId = "B8E4E6F7-CD69-4587-8CB0-DED49904045E";
paths = (
{
closed = 1;
nodes = (
"401 -21 LINE",
"559.667 -21 OFFCURVE",
"657.667 33.333 OFFCURVE",
"755 160 CURVE",
"759 160 LINE",
"727 14 LINE",
"642 -425 LINE",
"822 -425 LINE",
"1060 801 LINE SMOOTH",
"1088 945.667 OFFCURVE",
"1109.667 1044 OFFCURVE",
"1125 1096 CURVE",
"952 1096 LINE",
"944 1081.333 OFFCURVE",
"917.667 975 OFFCURVE",
"903 903 CURVE",
"898 903 LINE",
"855.333 1028.333 OFFCURVE",
"752 1101 OFFCURVE",
"588 1101 CURVE SMOOTH",
"357.333 1101 OFFCURVE",
"212.5 980.5 OFFCURVE",
"130.5 726.5 CURVE SMOOTH",
"89.5 599.5 OFFCURVE",
"69 468.333 OFFCURVE",
"69 333 CURVE SMOOTH",
"69 113 OFFCURVE",
"191.667 -21 OFFCURVE",
"401 -21 CURVE"
);
},
{
closed = 1;
nodes = (
"453 118 LINE",
"317 118 OFFCURVE",
"257 201 OFFCURVE",
"257 365 CURVE SMOOTH",
"257 537 OFFCURVE",
"319.333 798.833 OFFCURVE",
"414 895.5 CURVE SMOOTH",
"461.333 943.833 OFFCURVE",
"525.667 968 OFFCURVE",
"607 968 CURVE SMOOTH",
"757.667 968 OFFCURVE",
"847 870.667 OFFCURVE",
"847 704 CURVE SMOOTH",
"847 574.667 OFFCURVE",
"807.333 389.167 OFFCURVE",
"742 280.5 CURVE SMOOTH",
"676.667 171.833 OFFCURVE",
"585 118 OFFCURVE",
"453 118 CURVE"
);
}
);
width = 1139;
}
);
note = q;
unicode = 0071;
},
{
glyphname = r;
lastChange = "2020-03-13 21:33:49 +0000";
layers = (
{
layerId = "B8E4E6F7-CD69-4587-8CB0-DED49904045E";
paths = (
{
closed = 1;
nodes = (
"718 938 LINE",
"751 1088 LINE",
"718.333 1097.333 OFFCURVE",
"686.667 1102 OFFCURVE",
"656 1102 CURVE SMOOTH",
"544 1102 OFFCURVE",
"466 1038.333 OFFCURVE",
"378 861 CURVE",
"374 861 LINE",
"409 1082 LINE",
"239 1082 LINE",
"221 968 LINE",
"196 830 LINE",
"34 0 LINE",
"214 0 LINE",
"324 564 LINE SMOOTH",
"364 786.667 OFFCURVE",
"488 951 OFFCURVE",
"628 951 CURVE SMOOTH",
"658.667 951 OFFCURVE",
"688.667 946.667 OFFCURVE",
"718 938 CURVE"
);
}
);
width = 682;
}
);
note = r;
unicode = 0072;
},
{
glyphname = s;
lastChange = "2020-03-13 21:33:49 +0000";
layers = (
{
layerId = "B8E4E6F7-CD69-4587-8CB0-DED49904045E";
paths = (
{
closed = 1;
nodes = (
"907 317 LINE",
"907 418.333 OFFCURVE",
"856.5 491.333 OFFCURVE",
"770.5 546 CURVE SMOOTH",
"727.5 573.333 OFFCURVE",
"663.667 600.333 OFFCURVE",
"579 627 CURVE SMOOTH",
"483.667 657 OFFCURVE",
"422.833 679.5 OFFCURVE",
"396.5 694.5 CURVE SMOOTH",
"343.833 724.5 OFFCURVE",
"315 761 OFFCURVE",
"315 817 CURVE SMOOTH",
"315 913 OFFCURVE",
"406.667 968 OFFCURVE",
"572 968 CURVE SMOOTH",
"709.333 968 OFFCURVE",
"789.667 924.333 OFFCURVE",
"819 819 CURVE",
"982 844 LINE",
"952.667 1014 OFFCURVE",
"820 1099 OFFCURVE",
"584 1099 CURVE SMOOTH",
"302.667 1099 OFFCURVE",
"141 990.333 OFFCURVE",
"141 797 CURVE SMOOTH",
"141 702.333 OFFCURVE",
"187.667 632.333 OFFCURVE",
"273 579 CURVE SMOOTH",
"315.667 552.333 OFFCURVE",
"379.667 525 OFFCURVE",
"465 497 CURVE SMOOTH",
"575 463 OFFCURVE",
"647 432.167 OFFCURVE",
"681 404.5 CURVE SMOOTH",
"715 376.833 OFFCURVE",
"732 342.333 OFFCURVE",
"732 301 CURVE SMOOTH",
"732 177 OFFCURVE",
"631.667 111 OFFCURVE",
"441 111 CURVE SMOOTH",
"285 111 OFFCURVE",
"196 161.667 OFFCURVE",
"152 279 CURVE",
"5 223 LINE",
"59.667 55 OFFCURVE",
"193 -20 OFFCURVE",
"425 -20 CURVE SMOOTH",
"737 -20 OFFCURVE",
"907 101 OFFCURVE",
"907 317 CURVE"
);
}
);
width = 1024;
}
);
note = s;
unicode = 0073;
},
{
glyphname = t;
lastChange = "2020-03-13 21:33:49 +0000";
layers = (
{
layerId = "B8E4E6F7-CD69-4587-8CB0-DED49904045E";
paths = (
{
closed = 1;
nodes = (
"275 -20 LINE",
"324.333 -20 OFFCURVE",
"382 -12 OFFCURVE",
"448 4 CURVE",
"467 137 LINE",
"428.333 127.667 OFFCURVE",
"395 123 OFFCURVE",
"367 123 CURVE SMOOTH",
"307 123 OFFCURVE",
"277 152.333 OFFCURVE",
"277 211 CURVE SMOOTH",
"277 234.333 OFFCURVE",
"281 266 OFFCURVE",
"289 306 CURVE SMOOTH",
"414 951 LINE",
"614 951 LINE",
"640 1082 LINE",
"440 1082 LINE",
"487 1324 LINE",
"367 1324 LINE",
"262 1082 LINE",
"135 1082 LINE",
"109 951 LINE",
"234 951 LINE",
"108 296 LINE SMOOTH",
"98 246 OFFCURVE",
"93 202.667 OFFCURVE",
"93 166 CURVE SMOOTH",
"93 54 OFFCURVE",
"161.667 -20 OFFCURVE",
"275 -20 CURVE"
);
}
);
width = 569;
}
);
note = t;
unicode = 0074;
},
{
glyphname = u;
lastChange = "2020-03-13 21:33:49 +0000";
layers = (
{
layerId = "B8E4E6F7-CD69-4587-8CB0-DED49904045E";
paths = (
{
closed = 1;
nodes = (
"415 1082 LINE",
"234 1082 LINE",
"107 429 LINE SMOOTH",
"93 362.333 OFFCURVE",
"86 307.667 OFFCURVE",
"86 265 CURVE SMOOTH",
"86 81 OFFCURVE",
"185.667 -19 OFFCURVE",
"383 -19 CURVE SMOOTH",
"536.333 -19 OFFCURVE",
"637.333 31.667 OFFCURVE",
"748 185 CURVE",
"751 185 LINE",
"741.667 130.333 OFFCURVE",
"723 14.667 OFFCURVE",
"723 0 CURVE",
"893 0 LINE",
"905.667 90.667 OFFCURVE",
"918.667 167.667 OFFCURVE",
"932 231 CURVE SMOOTH",
"1098 1082 LINE",
"918 1082 LINE",
"800 476 LINE SMOOTH",
"757.333 257.333 OFFCURVE",
"618 120 OFFCURVE",
"450 120 CURVE SMOOTH",
"330.667 120 OFFCURVE",
"271 175.667 OFFCURVE",
"271 287 CURVE SMOOTH",
"271 328.333 OFFCURVE",
"277 378.333 OFFCURVE",
"289 437 CURVE SMOOTH",
"415 1082 LINE"
);
}
);
width = 1139;
}
);
note = u;
unicode = 0075;
},
{
glyphname = v;
lastChange = "2020-03-13 21:33:49 +0000";
layers = (
{
layerId = "B8E4E6F7-CD69-4587-8CB0-DED49904045E";
paths = (
{
closed = 1;
nodes = (
"507 0 LINE",
"1122 1082 LINE",
"926 1082 LINE",
"542 376 LINE SMOOTH",
"510 317.333 OFFCURVE",
"479 256.667 OFFCURVE",
"449 194 CURVE SMOOTH",
"423 141 LINE",
"419 194 LINE SMOOTH",
"412.333 271.333 OFFCURVE",
"406 332.667 OFFCURVE",
"400 378 CURVE SMOOTH",
"299 1082 LINE",
"112 1082 LINE",
"294 0 LINE",
"507 0 LINE"
);
}
);
width = 1024;
}
);
note = v;
unicode = 0076;
},
{
glyphname = w;
lastChange = "2020-03-13 21:33:49 +0000";
layers = (
{
layerId = "B8E4E6F7-CD69-4587-8CB0-DED49904045E";
paths = (
{
closed = 1;
nodes = (
"1068 0 LINE",
"1589 1082 LINE",
"1413 1082 LINE",
"1154.333 512.667 OFFCURVE",
"1014 201.667 OFFCURVE",
"992 149 CURVE",
"992 203.667 OFFCURVE",
"990 267 OFFCURVE",
"986 339 CURVE SMOOTH",
"942 1082 LINE",
"749 1082 LINE",
"408 339 LINE",
"327 149 LINE",
"320 347 LINE",
"280 1082 LINE",
"102 1082 LINE",
"194 0 LINE",
"402 0 LINE",
"626 497.333 OFFCURVE",
"746 764.833 OFFCURVE",
"762 802.5 CURVE SMOOTH",
"778 840.167 OFFCURVE",
"796 884 OFFCURVE",
"816 934 CURVE",
"822 698 LINE",
"859 0 LINE",
"1068 0 LINE"
);
}
);
width = 1479;
}
);
note = w;
unicode = 0077;
},
{
glyphname = x;
lastChange = "2020-03-13 21:33:49 +0000";
layers = (
{
layerId = "B8E4E6F7-CD69-4587-8CB0-DED49904045E";
paths = (
{
closed = 1;
nodes = (
"706 0 LINE",
"896 0 LINE",
"615 558 LINE",
"1084 1082 LINE",
"878 1082 LINE",
"528 661 LINE",
"335 1082 LINE",
"146 1082 LINE",
"410 556 LINE",
"-82 0 LINE",
"117 0 LINE",
"497 444 LINE",
"706 0 LINE"
);
}
);
width = 1024;
}
);
note = x;
unicode = 0078;
},
{
glyphname = y;
lastChange = "2020-03-13 21:33:49 +0000";
layers = (
{
layerId = "B8E4E6F7-CD69-4587-8CB0-DED49904045E";
paths = (
{
closed = 1;
nodes = (
"16 -425 LINE",
"138.667 -425 OFFCURVE",
"232.5 -373.833 OFFCURVE",
"322.5 -270.5 CURVE SMOOTH",
"367.5 -218.833 OFFCURVE",
"427 -128.667 OFFCURVE",
"501 0 CURVE SMOOTH",
"1127 1082 LINE",
"928 1082 LINE",
"636.667 548.667 OFFCURVE",
"485.667 271.333 OFFCURVE",
"475 250 CURVE SMOOTH",
"464.333 228.667 OFFCURVE",
"455.667 210.667 OFFCURVE",
"449 196 CURVE",
"447.667 232 OFFCURVE",
"427 377.333 OFFCURVE",
"407 484 CURVE SMOOTH",
"295 1082 LINE",
"112 1082 LINE",
"329 12 LINE",
"302 -35 LINE SMOOTH",
"208.667 -197.667 OFFCURVE",
"118.667 -285 OFFCURVE",
"-8 -285 CURVE SMOOTH",
"-29.333 -285 OFFCURVE",
"-55 -282.333 OFFCURVE",
"-85 -277 CURVE",
"-116 -411 LINE",
"-76 -420.333 OFFCURVE",
"-32 -425 OFFCURVE",
"16 -425 CURVE"
);
}
);
width = 1024;
}
);
note = y;
unicode = 0079;
},
{
glyphname = z;
lastChange = "2020-03-13 21:33:49 +0000";
layers = (
{
layerId = "B8E4E6F7-CD69-4587-8CB0-DED49904045E";
paths = (
{
closed = 1;
nodes = (
"-12 0 LINE",
"826 0 LINE",
"851 139 LINE",
"230 139 LINE",
"972 945 LINE",
"996 1082 LINE",
"212 1082 LINE",
"187 943 LINE",
"753 943 LINE",
"11 137 LINE",
"-12 0 LINE"
);
}
);
width = 1024;
}
);
note = z;
unicode = 007A;
},
{
glyphname = braceleft;
lastChange = "2020-03-13 21:33:49 +0000";
layers = (
{
layerId = "B8E4E6F7-CD69-4587-8CB0-DED49904045E";
paths = (
{
closed = 1;
nodes = (
"366 -425 LINE",
"462 -425 LINE",
"487 -296 LINE",
"439 -296 LINE SMOOTH",
"336.333 -296 OFFCURVE",
"293 -245.667 OFFCURVE",
"293 -171 CURVE SMOOTH",
"293 -165 LINE SMOOTH",
"294.333 -142.333 OFFCURVE",
"299.333 -75 OFFCURVE",
"306 -43 CURVE SMOOTH",
"367 276 LINE SMOOTH",
"371 297.333 OFFCURVE",
"373 317 OFFCURVE",
"373 335 CURVE SMOOTH",
"373 439 OFFCURVE",
"315 507.333 OFFCURVE",
"223 530 CURVE",
"223 532 LINE",
"347 561.333 OFFCURVE",
"440.667 657.333 OFFCURVE",
"466 784 CURVE SMOOTH",
"535 1140 LINE SMOOTH",
"567 1301.333 OFFCURVE",
"626.333 1355 OFFCURVE",
"745 1355 CURVE SMOOTH",
"808 1355 LINE",
"833 1484 LINE",
"698 1484 LINE SMOOTH",
"508.667 1484 OFFCURVE",
"414.333 1381.667 OFFCURVE",
"377 1191 CURVE SMOOTH",
"307 829 LINE SMOOTH",
"276.333 673 OFFCURVE",
"192.667 598.333 OFFCURVE",
"46 593 CURVE",
"21 466 LINE",
"134.333 460.667 OFFCURVE",
"199 416.667 OFFCURVE",
"199 306 CURVE SMOOTH",
"199 284 OFFCURVE",
"196 258.333 OFFCURVE",
"190 229 CURVE SMOOTH",
"134 -58 LINE SMOOTH",
"127.333 -94.667 OFFCURVE",
"124 -133.667 OFFCURVE",
"124 -175 CURVE SMOOTH",
"124 -331 OFFCURVE",
"218 -425 OFFCURVE",
"366 -425 CURVE"
);
}
);
width = 684;
}
);
note = braceleft;
unicode = 007B;
},
{
glyphname = bar;
lastChange = "2020-03-13 21:33:49 +0000";
layers = (
{
layerId = "B8E4E6F7-CD69-4587-8CB0-DED49904045E";
paths = (
{
closed = 1;
nodes = (
"213 -454 LINE",
"379 -454 LINE",
"379 1484 LINE",
"213 1484 LINE",
"213 -454 LINE"
);
}
);
width = 532;
}
);
note = bar;
unicode = 007C;
},
{
glyphname = braceright;
lastChange = "2020-03-13 21:33:49 +0000";
layers = (
{
layerId = "B8E4E6F7-CD69-4587-8CB0-DED49904045E";
paths = (
{
closed = 1;
nodes = (
"308 1484 LINE",
"212 1484 LINE",
"187 1355 LINE",
"235 1355 LINE SMOOTH",
"337.667 1355 OFFCURVE",
"381 1304.667 OFFCURVE",
"381 1230 CURVE SMOOTH",
"381 1224 LINE SMOOTH",
"379.667 1201.333 OFFCURVE",
"374.667 1134 OFFCURVE",
"368 1102 CURVE SMOOTH",
"307 783 LINE SMOOTH",
"303 762.333 OFFCURVE",
"301 742.667 OFFCURVE",
"301 724 CURVE SMOOTH",
"301 620 OFFCURVE",
"359 551.667 OFFCURVE",
"451 529 CURVE",
"451 527 LINE",
"327 497.667 OFFCURVE",
"233.333 401.667 OFFCURVE",
"208 275 CURVE SMOOTH",
"139 -81 LINE SMOOTH",
"107 -242.333 OFFCURVE",
"47.667 -296 OFFCURVE",
"-71 -296 CURVE SMOOTH",
"-134 -296 LINE",
"-159 -425 LINE",
"-24 -425 LINE SMOOTH",
"165.333 -425 OFFCURVE",
"259.667 -322.667 OFFCURVE",
"297 -132 CURVE SMOOTH",
"367 230 LINE SMOOTH",
"397.667 386 OFFCURVE",
"481.333 460.667 OFFCURVE",
"628 466 CURVE",
"653 593 LINE",
"539.667 598.333 OFFCURVE",
"475 642.333 OFFCURVE",
"475 753 CURVE SMOOTH",
"475 775.667 OFFCURVE",
"478 801.333 OFFCURVE",
"484 830 CURVE SMOOTH",
"540 1117 LINE SMOOTH",
"546.667 1153.667 OFFCURVE",
"550 1192.667 OFFCURVE",
"550 1234 CURVE SMOOTH",
"550 1390 OFFCURVE",
"456 1484 OFFCURVE",
"308 1484 CURVE"
);
}
);
width = 684;
}
);
note = braceright;
unicode = 007D;
},
{
glyphname = asciitilde;
lastChange = "2020-03-13 21:33:49 +0000";
layers = (
{
layerId = "B8E4E6F7-CD69-4587-8CB0-DED49904045E";
paths = (
{
closed = 1;
nodes = (
"874 553 LINE",
"987.333 553 OFFCURVE",
"1054 577 OFFCURVE",
"1134 633 CURVE",
"1134 782 LINE",
"1058 720.667 OFFCURVE",
"976.667 690 OFFCURVE",
"890 690 CURVE SMOOTH",
"866 690 OFFCURVE",
"839.5 693.333 OFFCURVE",
"810.5 700 CURVE SMOOTH",
"781.5 706.667 OFFCURVE",
"718 727 OFFCURVE",
"620 761 CURVE SMOOTH",
"531.333 791.667 OFFCURVE",
"453 807 OFFCURVE",
"385 807 CURVE SMOOTH",
"283.667 807 OFFCURVE",
"196 779 OFFCURVE",
"122 723 CURVE",
"122 580 LINE",
"208.667 642.667 OFFCURVE",
"280.667 668 OFFCURVE",
"370 668 CURVE SMOOTH",
"428.667 668 OFFCURVE",
"501 653 OFFCURVE",
"587 623 CURVE SMOOTH",
"684.333 588.333 OFFCURVE",
"782 553 OFFCURVE",
"874 553 CURVE"
);
}
);
width = 1196;
}
);
note = asciitilde;
unicode = 007E;
},
{
glyphname = dagger;
lastChange = "2020-03-13 21:33:49 +0000";
layers = (
{
layerId = "B8E4E6F7-CD69-4587-8CB0-DED49904045E";
paths = (
{
closed = 1;
nodes = (
"732 1000 LINE",
"1080 973 LINE",
"1112 1137 LINE",
"753 1108 LINE",
"854 1484 LINE",
"639 1484 LINE",
"594 1108 LINE",
"248 1137 LINE",
"216 973 LINE",
"573 1000 LINE",
"374 -138 LINE",
"489 -138 LINE",
"732 1000 LINE"
);
}
);
width = 1139;
}
);
note = dagger;
unicode = 2020;
},
{
glyphname = degree;
lastChange = "2020-03-13 21:33:49 +0000";
layers = (
{
layerId = "B8E4E6F7-CD69-4587-8CB0-DED49904045E";
paths = (
{
closed = 1;
nodes = (
"770 1145 LINE",
"770 1303.667 OFFCURVE",
"643 1430 OFFCURVE",
"483 1430 CURVE SMOOTH",
"323 1430 OFFCURVE",
"196 1301 OFFCURVE",
"196 1145 CURVE SMOOTH",
"196 989 OFFCURVE",
"325.667 860 OFFCURVE",
"483 860 CURVE SMOOTH",
"640.333 860 OFFCURVE",
"770 986.333 OFFCURVE",
"770 1145 CURVE"
);
},
{
closed = 1;
nodes = (
"661 1145 LINE",
"661 1045 OFFCURVE",
"581.667 965 OFFCURVE",
"483 965 CURVE SMOOTH",
"385.667 965 OFFCURVE",
"305 1046.333 OFFCURVE",
"305 1145 CURVE SMOOTH",
"305 1243.667 OFFCURVE",
"383 1325 OFFCURVE",
"483 1325 CURVE SMOOTH",
"583 1325 OFFCURVE",
"661 1246.333 OFFCURVE",
"661 1145 CURVE"
);
}
);
width = 819;
}
);
note = degree;
unicode = 00B0;
},
{
glyphname = cent;
lastChange = "2020-03-13 21:33:49 +0000";
layers = (
{
layerId = "B8E4E6F7-CD69-4587-8CB0-DED49904045E";
paths = (
{
closed = 1;
nodes = (
"560 278 LINE",
"414.667 278 OFFCURVE",
"342 367 OFFCURVE",
"342 545 CURVE SMOOTH",
"342 735.667 OFFCURVE",
"402 959.5 OFFCURVE",
"506 1049.5 CURVE SMOOTH",
"558 1094.5 OFFCURVE",
"626 1117 OFFCURVE",
"710 1117 CURVE SMOOTH",
"831.333 1117 OFFCURVE",
"907 1044.333 OFFCURVE",
"915 915 CURVE",
"1092 940 LINE",
"1081.333 1110.667 OFFCURVE",
"980.667 1225.667 OFFCURVE",
"806 1251 CURVE",
"835 1409 LINE",
"711 1409 LINE",
"683 1257 LINE",
"505.667 1249 OFFCURVE",
"385.667 1179.333 OFFCURVE",
"299 1054 CURVE SMOOTH",
"212.333 928.667 OFFCURVE",
"158 732.333 OFFCURVE",
"158 551 CURVE SMOOTH",
"158 319 OFFCURVE",
"267.333 171.333 OFFCURVE",
"466 142 CURVE",
"432 -31 LINE",
"556 -31 LINE",
"588 136 LINE",
"788.667 146 OFFCURVE",
"927.667 253.667 OFFCURVE",
"1005 459 CURVE",
"849 508 LINE",
"793 354.667 OFFCURVE",
"696.667 278 OFFCURVE",
"560 278 CURVE"
);
}
);
width = 1139;
}
);
note = cent;
unicode = 00A2;
},
{
glyphname = sterling;
lastChange = "2020-03-13 21:33:49 +0000";
layers = (
{
layerId = "B8E4E6F7-CD69-4587-8CB0-DED49904045E";
paths = (
{
closed = 1;
nodes = (
"1075 310 LINE",
"924 334 LINE",
"889.333 206 OFFCURVE",
"803.333 153 OFFCURVE",
"666 153 CURVE SMOOTH",
"202 153 LINE",
"320.667 209 OFFCURVE",
"409.333 330 OFFCURVE",
"436 478 CURVE SMOOTH",
"463 625 LINE",
"871 625 LINE",
"896 754 LINE",
"488 754 LINE",
"544 1042 LINE SMOOTH",
"576 1208.667 OFFCURVE",
"657 1282 OFFCURVE",
"809 1282 CURVE SMOOTH",
"906.333 1282 OFFCURVE",
"987.333 1235.333 OFFCURVE",
"1014 1150 CURVE",
"1178 1200 LINE",
"1147.333 1340 OFFCURVE",
"1013.333 1430 OFFCURVE",
"816 1430 CURVE SMOOTH",
"565.333 1430 OFFCURVE",
"416.333 1307.333 OFFCURVE",
"363 1034 CURVE SMOOTH",
"308 754 LINE",
"122 754 LINE",
"97 625 LINE",
"283 625 LINE",
"255 481 LINE SMOOTH",
"223 315.667 OFFCURVE",
"146.333 215.333 OFFCURVE",
"17 154 CURVE",
"-12 0 LINE",
"688 0 LINE SMOOTH",
"888 0 OFFCURVE",
"1025.667 107.333 OFFCURVE",
"1075 310 CURVE"
);
}
);
width = 1139;
}
);
note = sterling;
unicode = 00A3;
},
{
glyphname = section;
lastChange = "2020-03-13 21:33:49 +0000";
layers = (
{
layerId = "B8E4E6F7-CD69-4587-8CB0-DED49904045E";
paths = (
{
closed = 1;
nodes = (
"1010 673 LINE",
"1010 819.667 OFFCURVE",
"922.667 923 OFFCURVE",
"680 999 CURVE SMOOTH",
"576.667 1032.333 OFFCURVE",
"507.167 1063.333 OFFCURVE",
"471.5 1092 CURVE SMOOTH",
"435.833 1120.667 OFFCURVE",
"418 1153.333 OFFCURVE",
"418 1190 CURVE SMOOTH",
"418 1298.667 OFFCURVE",
"508 1353 OFFCURVE",
"688 1353 CURVE SMOOTH",
"816.667 1353 OFFCURVE",
"894.667 1303.333 OFFCURVE",
"922 1204 CURVE",
"1085 1229 LINE",
"1055.667 1399 OFFCURVE",
"925.667 1484 OFFCURVE",
"695 1484 CURVE SMOOTH",
"405.667 1484 OFFCURVE",
"244 1375.333 OFFCURVE",
"244 1182 CURVE SMOOTH",
"244 1088.667 OFFCURVE",
"288.667 1013.667 OFFCURVE",
"378 957 CURVE",
"198 917 OFFCURVE",
"102 819.667 OFFCURVE",
"102 673 CURVE SMOOTH",
"102 523 OFFCURVE",
"210.333 414.667 OFFCURVE",
"427 348 CURVE SMOOTH",
"533.667 315.333 OFFCURVE",
"604.667 284.5 OFFCURVE",
"640 255.5 CURVE SMOOTH",
"675.333 226.5 OFFCURVE",
"693 191 OFFCURVE",
"693 149 CURVE SMOOTH",
"693 25 OFFCURVE",
"592.667 -41 OFFCURVE",
"402 -41 CURVE SMOOTH",
"246 -41 OFFCURVE",
"157 9.667 OFFCURVE",
"113 127 CURVE",
"-34 71 LINE",
"19.333 -97 OFFCURVE",
"155 -172 OFFCURVE",
"383 -172 CURVE SMOOTH",
"699 -172 OFFCURVE",
"868 -51 OFFCURVE",
"868 165 CURVE SMOOTH",
"868 258.333 OFFCURVE",
"824 332.667 OFFCURVE",
"736 388 CURVE",
"918.667 428.667 OFFCURVE",
"1010 523.667 OFFCURVE",
"1010 673 CURVE"
);
},
{
closed = 1;
nodes = (
"276 688 LINE",
"276 800 OFFCURVE",
"377 878 OFFCURVE",
"533 886 CURVE",
"624.333 859.333 OFFCURVE",
"688 836.333 OFFCURVE",
"724 817 CURVE SMOOTH",
"796 778.333 OFFCURVE",
"835 730 OFFCURVE",
"835 662 CURVE SMOOTH",
"835 544.667 OFFCURVE",
"726 474.667 OFFCURVE",
"550 468 CURVE",
"348.667 529.333 OFFCURVE",
"276 596 OFFCURVE",
"276 688 CURVE"
);
}
);
width = 1139;
}
);
note = section;
unicode = 00A7;
},
{
glyphname = bullet;
lastChange = "2020-03-13 21:33:49 +0000";
layers = (
{
layerId = "B8E4E6F7-CD69-4587-8CB0-DED49904045E";
paths = (
{
closed = 1;
nodes = (
"652 682 LINE",
"652 835.333 OFFCURVE",
"524.333 956 OFFCURVE",
"371 956 CURVE SMOOTH",
"221.667 956 OFFCURVE",
"97 835.333 OFFCURVE",
"97 682 CURVE SMOOTH",
"97 526 OFFCURVE",
"223 401 OFFCURVE",
"371 401 CURVE SMOOTH",
"523 401 OFFCURVE",
"652 526 OFFCURVE",
"652 682 CURVE"
);
}
);
width = 717;
}
);
note = bullet;
unicode = 2022;
},
{
glyphname = paragraph;
lastChange = "2020-03-13 21:33:49 +0000";
layers = (
{
layerId = "B8E4E6F7-CD69-4587-8CB0-DED49904045E";
paths = (
{
closed = 1;
nodes = (
"948 1307 LINE",
"1077 1307 LINE",
"1077 1409 LINE",
"514 1409 LINE SMOOTH",
"283.333 1409 OFFCURVE",
"144 1274.333 OFFCURVE",
"144 1049 CURVE SMOOTH",
"144 822.333 OFFCURVE",
"282 694 OFFCURVE",
"506 694 CURVE",
"506 -264 LINE",
"619 -264 LINE",
"619 1307 LINE",
"836 1307 LINE",
"836 -264 LINE",
"948 -264 LINE",
"948 1307 LINE"
);
}
);
width = 1100;
}
);
note = paragraph;
unicode = 00B6;
},
{
glyphname = germandbls;
lastChange = "2020-03-13 21:33:49 +0000";
layers = (
{
layerId = "B8E4E6F7-CD69-4587-8CB0-DED49904045E";
paths = (
{
closed = 1;
nodes = (
"34 0 LINE",
"214 0 LINE",
"412 1021 LINE SMOOTH",
"454.667 1238.333 OFFCURVE",
"559.667 1343 OFFCURVE",
"753 1343 CURVE SMOOTH",
"889 1343 OFFCURVE",
"975 1278 OFFCURVE",
"975 1186 CURVE SMOOTH",
"975 1108.667 OFFCURVE",
"932.333 1055 OFFCURVE",
"823 991 CURVE SMOOTH",
"721.667 931 OFFCURVE",
"670 857.333 OFFCURVE",
"670 756 CURVE SMOOTH",
"670 680 OFFCURVE",
"711.667 613 OFFCURVE",
"809 529 CURVE SMOOTH",
"907.667 442.333 OFFCURVE",
"947 379.667 OFFCURVE",
"947 305 CURVE SMOOTH",
"947 183.667 OFFCURVE",
"865.667 115 OFFCURVE",
"719 115 CURVE SMOOTH",
"632.333 115 OFFCURVE",
"550.333 133 OFFCURVE",
"473 169 CURVE",
"417 26 LINE",
"481 -4.667 OFFCURVE",
"599.333 -29 OFFCURVE",
"714 -29 CURVE SMOOTH",
"971.333 -29 OFFCURVE",
"1123 96 OFFCURVE",
"1123 308 CURVE SMOOTH",
"1123 401.333 OFFCURVE",
"1076.333 491.667 OFFCURVE",
"983 579 CURVE SMOOTH",
"930.333 627.667 OFFCURVE",
"893.667 666.167 OFFCURVE",
"873 694.5 CURVE SMOOTH",
"852.333 722.833 OFFCURVE",
"842 750.333 OFFCURVE",
"842 777 CURVE SMOOTH",
"842 801 OFFCURVE",
"851.833 823.333 OFFCURVE",
"871.5 844 CURVE SMOOTH",
"891.167 864.667 OFFCURVE",
"933 896.667 OFFCURVE",
"997 940 CURVE SMOOTH",
"1100.333 1010 OFFCURVE",
"1152 1095.333 OFFCURVE",
"1152 1196 CURVE SMOOTH",
"1152 1364 OFFCURVE",
"998 1484 OFFCURVE",
"762 1484 CURVE SMOOTH",
"468.667 1484 OFFCURVE",
"296.667 1343 OFFCURVE",
"234 1027 CURVE SMOOTH",
"34 0 LINE"
);
}
);
width = 1251;
}
);
note = germandbls;
unicode = 00DF;
},
{
glyphname = registered;
lastChange = "2020-03-13 21:33:49 +0000";
layers = (
{
layerId = "B8E4E6F7-CD69-4587-8CB0-DED49904045E";
paths = (
{
closed = 1;
nodes = (
"1509 707 LINE",
"1509 965.667 OFFCURVE",
"1373.167 1202.5 OFFCURVE",
"1148.5 1332.5 CURVE SMOOTH",
"1036.167 1397.5 OFFCURVE",
"915.333 1430 OFFCURVE",
"786 1430 CURVE SMOOTH",
"528.667 1430 OFFCURVE",
"289.333 1292 OFFCURVE",
"160 1068 CURVE SMOOTH",
"95.333 956 OFFCURVE",
"63 835.667 OFFCURVE",
"63 707 CURVE SMOOTH",
"63 455 OFFCURVE",
"193.5 218.5 OFFCURVE",
"419.5 84.5 CURVE SMOOTH",
"532.5 17.5 OFFCURVE",
"654.667 -16 OFFCURVE",
"786 -16 CURVE SMOOTH",
"1043.333 -16 OFFCURVE",
"1283.833 120.833 OFFCURVE",
"1412.5 345.5 CURVE SMOOTH",
"1476.833 457.833 OFFCURVE",
"1509 578.333 OFFCURVE",
"1509 707 CURVE"
);
},
{
closed = 1;
nodes = (
"1417 707 LINE",
"1417 481.667 OFFCURVE",
"1297.833 275.167 OFFCURVE",
"1102.5 162.5 CURVE SMOOTH",
"1004.833 106.167 OFFCURVE",
"899.333 78 OFFCURVE",
"786 78 CURVE SMOOTH",
"560.667 78 OFFCURVE",
"355.167 197.333 OFFCURVE",
"242.5 392 CURVE SMOOTH",
"186.167 489.333 OFFCURVE",
"158 594.333 OFFCURVE",
"158 707 CURVE SMOOTH",
"158 929.667 OFFCURVE",
"277.333 1137.833 OFFCURVE",
"472 1250.5 CURVE SMOOTH",
"569.333 1306.833 OFFCURVE",
"674 1335 OFFCURVE",
"786 1335 CURVE SMOOTH",
"1011.333 1335 OFFCURVE",
"1219.833 1214.5 OFFCURVE",
"1332.5 1020.5 CURVE SMOOTH",
"1388.833 923.5 OFFCURVE",
"1417 819 OFFCURVE",
"1417 707 CURVE"
);
},
{
closed = 1;
nodes = (
"987 289 LINE",
"1132 289 LINE",
"911 639 LINE",
"1024.333 664.333 OFFCURVE",
"1100 747 OFFCURVE",
"1100 883 CURVE SMOOTH",
"1100 1031 OFFCURVE",
"996.333 1120 OFFCURVE",
"807 1120 CURVE SMOOTH",
"500 1120 LINE",
"500 289 LINE",
"627 289 LINE",
"627 625 LINE",
"788 625 LINE",
"987 289 LINE"
);
},
{
closed = 1;
nodes = (
"973 881 LINE",
"973 781 OFFCURVE",
"915.667 721 OFFCURVE",
"809 721 CURVE SMOOTH",
"627 721 LINE",
"627 1022 LINE",
"797 1022 LINE SMOOTH",
"905 1022 OFFCURVE",
"973 973 OFFCURVE",
"973 881 CURVE"
);
}
);
width = 1509;
}
);
note = registered;
unicode = 00AE;
},
{
glyphname = copyright;
lastChange = "2020-03-13 21:33:49 +0000";
layers = (
{
layerId = "B8E4E6F7-CD69-4587-8CB0-DED49904045E";
paths = (
{
closed = 1;
nodes = (
"1509 707 LINE",
"1509 965.667 OFFCURVE",
"1373.167 1202.5 OFFCURVE",
"1148.5 1332.5 CURVE SMOOTH",
"1036.167 1397.5 OFFCURVE",
"915.333 1430 OFFCURVE",
"786 1430 CURVE SMOOTH",
"528.667 1430 OFFCURVE",
"289.333 1292 OFFCURVE",
"160 1068 CURVE SMOOTH",
"95.333 956 OFFCURVE",
"63 835.667 OFFCURVE",
"63 707 CURVE SMOOTH",
"63 455 OFFCURVE",
"193.5 218.5 OFFCURVE",
"419.5 84.5 CURVE SMOOTH",
"532.5 17.5 OFFCURVE",
"654.667 -16 OFFCURVE",
"786 -16 CURVE SMOOTH",
"1043.333 -16 OFFCURVE",
"1283.833 120.833 OFFCURVE",
"1412.5 345.5 CURVE SMOOTH",
"1476.833 457.833 OFFCURVE",
"1509 578.333 OFFCURVE",
"1509 707 CURVE"
);
},
{
closed = 1;
nodes = (
"1417 707 LINE",
"1417 481.667 OFFCURVE",
"1297.833 275.167 OFFCURVE",
"1102.5 162.5 CURVE SMOOTH",
"1004.833 106.167 OFFCURVE",
"899.333 78 OFFCURVE",
"786 78 CURVE SMOOTH",
"560.667 78 OFFCURVE",
"355.167 197.333 OFFCURVE",
"242.5 392 CURVE SMOOTH",
"186.167 489.333 OFFCURVE",
"158 594.333 OFFCURVE",
"158 707 CURVE SMOOTH",
"158 929.667 OFFCURVE",
"277.333 1137.833 OFFCURVE",
"472 1250.5 CURVE SMOOTH",
"569.333 1306.833 OFFCURVE",
"674 1335 OFFCURVE",
"786 1335 CURVE SMOOTH",
"1011.333 1335 OFFCURVE",
"1219.833 1214.5 OFFCURVE",
"1332.5 1020.5 CURVE SMOOTH",
"1388.833 923.5 OFFCURVE",
"1417 819 OFFCURVE",
"1417 707 CURVE"
);
},
{
closed = 1;
nodes = (
"797 279 LINE",
"953 279 OFFCURVE",
"1062.333 342.667 OFFCURVE",
"1145 504 CURVE",
"1030 539 LINE",
"976.667 431 OFFCURVE",
"901 383 OFFCURVE",
"797 383 CURVE SMOOTH",
"630.333 383 OFFCURVE",
"530 502.333 OFFCURVE",
"530 709 CURVE SMOOTH",
"530 919.667 OFFCURVE",
"622.667 1028 OFFCURVE",
"792 1028 CURVE SMOOTH",
"893.333 1028 OFFCURVE",
"973.333 983 OFFCURVE",
"1016 891 CURVE",
"1130 924 LINE",
"1066 1063.333 OFFCURVE",
"952.667 1133 OFFCURVE",
"790 1133 CURVE SMOOTH",
"538 1133 OFFCURVE",
"401 979.667 OFFCURVE",
"401 709 CURVE SMOOTH",
"401 437 OFFCURVE",
"546.333 279 OFFCURVE",
"797 279 CURVE"
);
}
);
width = 1509;
}
);
note = copyright;
unicode = 00A9;
},
{
glyphname = trademark;
lastChange = "2020-03-13 21:33:49 +0000";
layers = (
{
layerId = "B8E4E6F7-CD69-4587-8CB0-DED49904045E";
paths = (
{
closed = 1;
nodes = (
"1691 634 LINE",
"1817 634 LINE",
"1817 1409 LINE",
"1633 1409 LINE",
"1465 996 LINE",
"1391 804 LINE",
"1376 846 LINE",
"1153 1409 LINE",
"963 1409 LINE",
"963 634 LINE",
"1091 634 LINE",
"1091 1217 LINE",
"1093 1253 LINE",
"1170 1047 LINE",
"1333 634 LINE",
"1441 634 LINE",
"1683 1231 LINE",
"1691 1253 LINE",
"1691 634 LINE"
);
},
{
closed = 1;
nodes = (
"577 1298 LINE",
"838 1298 LINE",
"838 1409 LINE",
"188 1409 LINE",
"188 1298 LINE",
"443 1298 LINE",
"443 634 LINE",
"577 634 LINE",
"577 1298 LINE"
);
}
);
width = 2048;
}
);
note = trademark;
unicode = 2122;
},
{
glyphname = acute;
lastChange = "2020-03-13 21:33:49 +0000";
layers = (
{
layerId = "B8E4E6F7-CD69-4587-8CB0-DED49904045E";
paths = (
{
closed = 1;
nodes = (
"175 1201 LINE",
"269 1201 LINE",
"643 1479 LINE",
"648 1508 LINE",
"431 1508 LINE",
"178 1221 LINE",
"175 1201 LINE"
);
}
);
width = 682;
}
);
note = acute;
unicode = 00B4;
},
{
glyphname = dieresis;
lastChange = "2020-03-13 21:33:49 +0000";
layers = (
{
layerId = "B8E4E6F7-CD69-4587-8CB0-DED49904045E";
paths = (
{
closed = 1;
nodes = (
"521 1219 LINE",
"694 1219 LINE",
"729 1403 LINE",
"556 1403 LINE",
"521 1219 LINE"
);
},
{
closed = 1;
nodes = (
"137 1219 LINE",
"312 1219 LINE",
"347 1403 LINE",
"172 1403 LINE",
"137 1219 LINE"
);
}
);
width = 682;
}
);
note = dieresis;
unicode = 00A8;
},
{
glyphname = notequal;
lastChange = "2020-03-13 21:33:49 +0000";
layers = (
{
layerId = "B8E4E6F7-CD69-4587-8CB0-DED49904045E";
paths = (
{
closed = 1;
nodes = (
"448 344 LINE",
"1060 344 LINE",
"1060 492 LINE",
"519 492 LINE",
"710 856 LINE",
"1060 856 LINE",
"1060 1004 LINE",
"783 1004 LINE",
"935 1296 LINE",
"792 1296 LINE",
"638 1004 LINE",
"65 1004 LINE",
"65 856 LINE",
"566 856 LINE",
"376 492 LINE",
"65 492 LINE",
"65 344 LINE",
"302 344 LINE",
"151 55 LINE",
"296 55 LINE",
"448 344 LINE"
);
}
);
width = 1124;
}
);
note = notequal;
unicode = 2260;
},
{
glyphname = AE;
lastChange = "2020-03-13 21:33:49 +0000";
layers = (
{
layerId = "B8E4E6F7-CD69-4587-8CB0-DED49904045E";
paths = (
{
closed = 1;
nodes = (
"863 0 LINE",
"1834 0 LINE",
"1865 156 LINE",
"1085 156 LINE",
"1180 647 LINE",
"1859 647 LINE",
"1889 801 LINE",
"1210 801 LINE",
"1298 1253 LINE",
"2037 1253 LINE",
"2067 1409 LINE",
"878 1409 LINE",
"-81 0 LINE",
"122 0 LINE",
"401 412 LINE",
"944 412 LINE",
"863 0 LINE"
);
},
{
closed = 1;
nodes = (
"1109 1262 LINE",
"973 561 LINE",
"500 561 LINE",
"822 1046 LINE",
"958 1262 LINE",
"1109 1262 LINE"
);
}
);
width = 2048;
}
);
note = AE;
unicode = 00C6;
},
{
glyphname = Oslash;
lastChange = "2020-03-13 21:33:49 +0000";
layers = (
{
layerId = "B8E4E6F7-CD69-4587-8CB0-DED49904045E";
paths = (
{
closed = 1;
nodes = (
"1423 1205 LINE",
"1691 1466 LINE",
"1499 1466 LINE",
"1332 1303 LINE",
"1228 1387.667 OFFCURVE",
"1093.333 1430 OFFCURVE",
"928 1430 CURVE SMOOTH",
"610.667 1430 OFFCURVE",
"347.167 1279.833 OFFCURVE",
"206.5 1012.5 CURVE SMOOTH",
"136.167 878.833 OFFCURVE",
"101 732.333 OFFCURVE",
"101 573 CURVE SMOOTH",
"101 424.333 OFFCURVE",
"135.333 300.333 OFFCURVE",
"204 201 CURVE",
"-56 -53 LINE",
"133 -53 LINE",
"294 104 LINE",
"396 21.333 OFFCURVE",
"531 -20 OFFCURVE",
"699 -20 CURVE SMOOTH",
"1013.667 -20 OFFCURVE",
"1271.333 126.833 OFFCURVE",
"1414 387.5 CURVE SMOOTH",
"1485.333 517.833 OFFCURVE",
"1522.667 672.333 OFFCURVE",
"1526 851 CURVE SMOOTH",
"1526 990.333 OFFCURVE",
"1491.667 1108.333 OFFCURVE",
"1423 1205 CURVE"
);
},
{
closed = 1;
nodes = (
"919 1276 LINE",
"1039 1276 OFFCURVE",
"1135.333 1244.667 OFFCURVE",
"1208 1182 CURVE",
"338 332 LINE",
"307.333 395.333 OFFCURVE",
"292 472.333 OFFCURVE",
"292 563 CURVE SMOOTH",
"292 804.333 OFFCURVE",
"393.5 1068.333 OFFCURVE",
"579.5 1187 CURVE SMOOTH",
"672.5 1246.333 OFFCURVE",
"785.667 1276 OFFCURVE",
"919 1276 CURVE"
);
},
{
closed = 1;
nodes = (
"1335 847 LINE",
"1335 589.667 OFFCURVE",
"1228.167 336.833 OFFCURVE",
"1043.5 221.5 CURVE SMOOTH",
"951.167 163.833 OFFCURVE",
"839.333 135 OFFCURVE",
"708 135 CURVE SMOOTH",
"585.333 135 OFFCURVE",
"489 165.333 OFFCURVE",
"419 226 CURVE",
"1289 1074 LINE",
"1319.667 1011.333 OFFCURVE",
"1335 935.667 OFFCURVE",
"1335 847 CURVE"
);
}
);
width = 1593;
}
);
note = Oslash;
unicode = 00D8;
},
{
glyphname = infinity;
lastChange = "2020-03-13 21:33:49 +0000";
layers = (
{
layerId = "B8E4E6F7-CD69-4587-8CB0-DED49904045E";
paths = (
{
closed = 1;
nodes = (
"1391 590 LINE",
"1391 820.667 OFFCURVE",
"1268.667 977 OFFCURVE",
"1082 977 CURVE SMOOTH",
"954 977 OFFCURVE",
"842.333 884.667 OFFCURVE",
"747 700 CURVE",
"661.667 888.667 OFFCURVE",
"552 983 OFFCURVE",
"418 983 CURVE SMOOTH",
"236.667 983 OFFCURVE",
"105 824 OFFCURVE",
"105 596 CURVE SMOOTH",
"105 361.333 OFFCURVE",
"232.667 209 OFFCURVE",
"418 209 CURVE SMOOTH",
"538 209 OFFCURVE",
"661 315.667 OFFCURVE",
"745 485 CURVE",
"833 297 OFFCURVE",
"944.667 203 OFFCURVE",
"1080 203 CURVE SMOOTH",
"1260 203 OFFCURVE",
"1391 368.667 OFFCURVE",
"1391 590 CURVE"
);
},
{
closed = 1;
nodes = (
"1058 846 LINE",
"1171.333 846 OFFCURVE",
"1252 734.667 OFFCURVE",
"1252 592 CURVE SMOOTH",
"1252 441.333 OFFCURVE",
"1170.667 334 OFFCURVE",
"1060 334 CURVE SMOOTH",
"957.333 334 OFFCURVE",
"881 419.333 OFFCURVE",
"813 590 CURVE",
"887.667 763.333 OFFCURVE",
"964.667 846 OFFCURVE",
"1058 846 CURVE"
);
},
{
closed = 1;
nodes = (
"682 596 LINE",
"607.333 422.667 OFFCURVE",
"529.333 340 OFFCURVE",
"436 340 CURVE SMOOTH",
"320 340 OFFCURVE",
"245 444.667 OFFCURVE",
"245 594 CURVE SMOOTH",
"245 742 OFFCURVE",
"322 852 OFFCURVE",
"434 852 CURVE SMOOTH",
"538 852 OFFCURVE",
"614 766.667 OFFCURVE",
"682 596 CURVE"
);
}
);
width = 1460;
}
);
note = infinity;
unicode = 221E;
},
{
glyphname = plusminus;
lastChange = "2020-03-13 21:33:49 +0000";
layers = (
{
layerId = "B8E4E6F7-CD69-4587-8CB0-DED49904045E";
paths = (
{
closed = 1;
nodes = (
"636 680 LINE",
"1060 680 LINE",
"1060 825 LINE",
"636 825 LINE",
"636 1219 LINE",
"489 1219 LINE",
"489 825 LINE",
"65 825 LINE",
"65 680 LINE",
"489 680 LINE",
"489 285 LINE",
"636 285 LINE",
"636 680 LINE"
);
},
{
closed = 1;
nodes = (
"65 0 LINE",
"1060 0 LINE",
"1060 145 LINE",
"65 145 LINE",
"65 0 LINE"
);
}
);
width = 1124;
}
);
note = plusminus;
unicode = 00B1;
},
{
glyphname = lessequal;
lastChange = "2020-03-13 21:33:49 +0000";
layers = (
{
layerId = "B8E4E6F7-CD69-4587-8CB0-DED49904045E";
paths = (
{
closed = 1;
nodes = (
"65 631 LINE",
"1060 236 LINE",
"1060 389 LINE",
"202 733 LINE",
"1060 1077 LINE",
"1060 1231 LINE",
"65 836 LINE",
"65 631 LINE"
);
},
{
closed = 1;
nodes = (
"63 0 LINE",
"1058 0 LINE",
"1058 145 LINE",
"63 145 LINE",
"63 0 LINE"
);
}
);
width = 1124;
}
);
note = lessequal;
unicode = 2264;
},
{
glyphname = greaterequal;
lastChange = "2020-03-13 21:33:49 +0000";
layers = (
{
layerId = "B8E4E6F7-CD69-4587-8CB0-DED49904045E";
paths = (
{
closed = 1;
nodes = (
"65 236 LINE",
"1060 631 LINE",
"1060 836 LINE",
"65 1231 LINE",
"65 1077 LINE",
"923 733 LINE",
"65 389 LINE",
"65 236 LINE"
);
},
{
closed = 1;
nodes = (
"65 0 LINE",
"1060 0 LINE",
"1060 145 LINE",
"65 145 LINE",
"65 0 LINE"
);
}
);
width = 1124;
}
);
note = greaterequal;
unicode = 2265;
},
{
glyphname = yen;
lastChange = "2020-03-13 21:33:49 +0000";
layers = (
{
layerId = "B8E4E6F7-CD69-4587-8CB0-DED49904045E";
paths = (
{
closed = 1;
nodes = (
"745 709 LINE",
"1303 1409 LINE",
"1098 1409 LINE",
"598 762 LINE",
"352 1409 LINE",
"159 1409 LINE",
"444 709 LINE",
"124 709 LINE",
"100 584 LINE",
"483 584 LINE",
"451 430 LINE",
"70 430 LINE",
"45 303 LINE",
"426 303 LINE",
"367 0 LINE",
"545 0 LINE",
"604 303 LINE",
"987 303 LINE",
"1012 430 LINE",
"629 430 LINE",
"659 584 LINE",
"1042 584 LINE",
"1066 709 LINE",
"745 709 LINE"
);
}
);
width = 1139;
}
);
note = yen;
unicode = 00A5;
},
{
glyphname = mu1;
lastChange = "2020-03-13 21:33:49 +0000";
layers = (
{
layerId = "B8E4E6F7-CD69-4587-8CB0-DED49904045E";
paths = (
{
closed = 1;
nodes = (
"-1 -425 LINE",
"179 -425 LINE",
"273 59 LINE",
"303.667 9.667 OFFCURVE",
"365.333 -20 OFFCURVE",
"448 -20 CURVE SMOOTH",
"568 -20 OFFCURVE",
"671 43 OFFCURVE",
"757 169 CURVE",
"759 169 LINE",
"759 46.333 OFFCURVE",
"796.333 -20 OFFCURVE",
"895 -20 CURVE SMOOTH",
"929 -20 OFFCURVE",
"970 -13.333 OFFCURVE",
"1018 0 CURVE",
"1040 129 LINE",
"1010.667 123.667 OFFCURVE",
"992 121 OFFCURVE",
"984 121 CURVE SMOOTH",
"946 121 OFFCURVE",
"927 145 OFFCURVE",
"927 193 CURVE SMOOTH",
"927 220.333 OFFCURVE",
"930 247.667 OFFCURVE",
"936 275 CURVE SMOOTH",
"1093 1082 LINE",
"913 1082 LINE",
"795 472 LINE SMOOTH",
"757.667 254.667 OFFCURVE",
"639.333 119 OFFCURVE",
"490 119 CURVE SMOOTH",
"382 119 OFFCURVE",
"328 177.667 OFFCURVE",
"328 295 CURVE SMOOTH",
"328 319.667 OFFCURVE",
"331.667 353.333 OFFCURVE",
"339 396 CURVE SMOOTH",
"473 1082 LINE",
"292 1082 LINE",
"-1 -425 LINE"
);
}
);
width = 1180;
}
);
note = mu1;
unicode = 00B5;
},
{
glyphname = partialdiff;
lastChange = "2020-03-13 21:33:49 +0000";
layers = (
{
layerId = "B8E4E6F7-CD69-4587-8CB0-DED49904045E";
paths = (
{
closed = 1;
nodes = (
"954 938 LINE",
"954 1283.333 OFFCURVE",
"812 1477 OFFCURVE",
"552 1477 CURVE SMOOTH",
"477.333 1477 OFFCURVE",
"402.333 1456.333 OFFCURVE",
"327 1415 CURVE",
"291 1268 LINE",
"356.333 1316 OFFCURVE",
"443.667 1343 OFFCURVE",
"513 1343 CURVE SMOOTH",
"685 1343 OFFCURVE",
"772 1199.333 OFFCURVE",
"772 938 CURVE",
"768 821 LINE",
"764 821 LINE",
"721.333 933 OFFCURVE",
"627 1004 OFFCURVE",
"515 1004 CURVE SMOOTH",
"347 1004 OFFCURVE",
"204.167 893 OFFCURVE",
"119.5 681 CURVE SMOOTH",
"77.167 575 OFFCURVE",
"56 466.667 OFFCURVE",
"56 356 CURVE SMOOTH",
"56 116 OFFCURVE",
"174.333 -27 OFFCURVE",
"389 -27 CURVE SMOOTH",
"565 -27 OFFCURVE",
"710.5 72.833 OFFCURVE",
"808.5 261.5 CURVE SMOOTH",
"906.5 450.167 OFFCURVE",
"954 727.333 OFFCURVE",
"954 938 CURVE"
);
},
{
closed = 1;
nodes = (
"743 680 LINE",
"720.333 476 OFFCURVE",
"653.5 285.167 OFFCURVE",
"563.5 184.5 CURVE SMOOTH",
"518.5 134.167 OFFCURVE",
"470 109 OFFCURVE",
"418 109 CURVE SMOOTH",
"308.667 109 OFFCURVE",
"246 204.667 OFFCURVE",
"246 358 CURVE SMOOTH",
"246 534 OFFCURVE",
"310.667 729 OFFCURVE",
"400 817 CURVE SMOOTH",
"444.667 861 OFFCURVE",
"494 883 OFFCURVE",
"548 883 CURVE SMOOTH",
"640 883 OFFCURVE",
"720.333 797.333 OFFCURVE",
"743 680 CURVE"
);
}
);
width = 1012;
}
);
note = partialdiff;
unicode = 2202;
},
{
glyphname = summation;
lastChange = "2020-03-13 21:33:49 +0000";
layers = (
{
layerId = "B8E4E6F7-CD69-4587-8CB0-DED49904045E";
paths = (
{
closed = 1;
nodes = (
"202 -455 LINE",
"1376 -455 LINE",
"1376 -303 LINE",
"446 -303 LINE",
"1046 483 LINE",
"462 1257 LINE",
"1308 1257 LINE",
"1308 1409 LINE",
"218 1409 LINE",
"218 1303 LINE",
"837 481 LINE",
"202 -346 LINE",
"202 -455 LINE"
);
}
);
width = 1460;
}
);
note = summation;
unicode = 2211;
},
{
glyphname = product;
lastChange = "2020-03-13 21:33:49 +0000";
layers = (
{
layerId = "B8E4E6F7-CD69-4587-8CB0-DED49904045E";
paths = (
{
closed = 1;
nodes = (
"1284 -455 LINE",
"1468 -455 LINE",
"1468 1409 LINE",
"251 1409 LINE",
"251 -455 LINE",
"442 -455 LINE",
"442 1247 LINE",
"1284 1247 LINE",
"1284 -455 LINE"
);
}
);
width = 1686;
}
);
note = product;
unicode = 220F;
},
{
glyphname = integral;
lastChange = "2020-03-13 21:33:49 +0000";
layers = (
{
layerId = "B8E4E6F7-CD69-4587-8CB0-DED49904045E";
paths = (
{
closed = 1;
nodes = (
"36 -455 LINE",
"253.333 -455 OFFCURVE",
"373 -329.333 OFFCURVE",
"373 -100 CURVE SMOOTH",
"373 1135 LINE SMOOTH",
"373 1287 OFFCURVE",
"434.333 1368 OFFCURVE",
"545 1368 CURVE SMOOTH",
"589 1368 OFFCURVE",
"627.333 1359 OFFCURVE",
"660 1341 CURVE",
"660 1489 LINE",
"630.667 1501 OFFCURVE",
"587 1507 OFFCURVE",
"529 1507 CURVE SMOOTH",
"307.667 1507 OFFCURVE",
"189 1382.333 OFFCURVE",
"189 1153 CURVE SMOOTH",
"191 -80 LINE SMOOTH",
"191 -235.333 OFFCURVE",
"133.667 -313 OFFCURVE",
"19 -313 CURVE SMOOTH",
"-19 -313 OFFCURVE",
"-58 -305 OFFCURVE",
"-98 -289 CURVE",
"-98 -436 LINE",
"-61.333 -448.667 OFFCURVE",
"-16.667 -455 OFFCURVE",
"36 -455 CURVE"
);
}
);
width = 561;
}
);
note = integral;
unicode = 222B;
},
{
glyphname = ordfeminine;
lastChange = "2020-03-13 21:33:49 +0000";
layers = (
{
layerId = "B8E4E6F7-CD69-4587-8CB0-DED49904045E";
paths = (
{
closed = 1;
nodes = (
"723 657 LINE",
"749 657 OFFCURVE",
"774.333 661.333 OFFCURVE",
"799 670 CURVE",
"814 774 LINE",
"798 768.667 OFFCURVE",
"783.333 766 OFFCURVE",
"770 766 CURVE SMOOTH",
"738 766 OFFCURVE",
"722 784.333 OFFCURVE",
"722 821 CURVE SMOOTH",
"722 835.667 OFFCURVE",
"724 853.333 OFFCURVE",
"728 874 CURVE SMOOTH",
"781 1149 LINE SMOOTH",
"787.667 1179 OFFCURVE",
"791 1207 OFFCURVE",
"791 1233 CURVE SMOOTH",
"791 1355.667 OFFCURVE",
"694.333 1432 OFFCURVE",
"525 1432 CURVE SMOOTH",
"351.667 1432 OFFCURVE",
"245.667 1359 OFFCURVE",
"207 1213 CURVE",
"339 1196 LINE",
"360.333 1286 OFFCURVE",
"421.667 1331 OFFCURVE",
"523 1331 CURVE SMOOTH",
"607.667 1331 OFFCURVE",
"650 1297 OFFCURVE",
"650 1229 CURVE SMOOTH",
"650 1213.667 OFFCURVE",
"644 1176 OFFCURVE",
"632 1116 CURVE",
"453 1112 LINE SMOOTH",
"210.333 1108.667 OFFCURVE",
"89 1024 OFFCURVE",
"89 858 CURVE SMOOTH",
"89 731.333 OFFCURVE",
"176.333 651 OFFCURVE",
"311 651 CURVE SMOOTH",
"416.333 651 OFFCURVE",
"498 691.667 OFFCURVE",
"586 805 CURVE",
"590 805 LINE",
"586 765 LINE",
"586 699.667 OFFCURVE",
"635 657 OFFCURVE",
"723 657 CURVE"
);
},
{
closed = 1;
nodes = (
"614 1024 LINE",
"604 972 LINE SMOOTH",
"581.333 858.667 OFFCURVE",
"470.667 762 OFFCURVE",
"352 762 CURVE SMOOTH",
"284 762 OFFCURVE",
"243 802.333 OFFCURVE",
"243 865 CURVE SMOOTH",
"243 965 OFFCURVE",
"311 1016 OFFCURVE",
"475 1020 CURVE SMOOTH",
"614 1024 LINE"
);
}
);
width = 758;
}
);
note = ordfeminine;
unicode = 00AA;
},
{
glyphname = ordmasculine;
lastChange = "2020-03-13 21:33:49 +0000";
layers = (
{
layerId = "B8E4E6F7-CD69-4587-8CB0-DED49904045E";
paths = (
{
closed = 1;
nodes = (
"403 651 LINE",
"628.333 651 OFFCURVE",
"763.667 769 OFFCURVE",
"809 1005 CURVE SMOOTH",
"817.667 1051 OFFCURVE",
"822 1093.667 OFFCURVE",
"822 1133 CURVE SMOOTH",
"822 1322.333 OFFCURVE",
"713.333 1432 OFFCURVE",
"520 1432 CURVE SMOOTH",
"294.667 1432 OFFCURVE",
"159.333 1314 OFFCURVE",
"114 1078 CURVE SMOOTH",
"105.333 1032 OFFCURVE",
"101 989.333 OFFCURVE",
"101 950 CURVE SMOOTH",
"101 760.667 OFFCURVE",
"209.667 651 OFFCURVE",
"403 651 CURVE"
);
},
{
closed = 1;
nodes = (
"513 1325 LINE",
"617 1325 OFFCURVE",
"678 1279.333 OFFCURVE",
"678 1154 CURVE SMOOTH",
"678 1043.333 OFFCURVE",
"633.333 873.5 OFFCURVE",
"560 807.5 CURVE SMOOTH",
"523.333 774.5 OFFCURVE",
"472.667 758 OFFCURVE",
"408 758 CURVE SMOOTH",
"301.333 758 OFFCURVE",
"248 818 OFFCURVE",
"248 938 CURVE SMOOTH",
"248 1052.667 OFFCURVE",
"292 1214.167 OFFCURVE",
"364 1277.5 CURVE SMOOTH",
"400 1309.167 OFFCURVE",
"449.667 1325 OFFCURVE",
"513 1325 CURVE"
);
}
);
width = 748;
}
);
note = ordmasculine;
unicode = 00BA;
},
{
glyphname = Ohm;
lastChange = "2020-03-13 21:33:49 +0000";
layers = (
{
layerId = "B8E4E6F7-CD69-4587-8CB0-DED49904045E";
paths = (
{
closed = 1;
nodes = (
"788 1430 LINE",
"384 1430 OFFCURVE",
"138 1193 OFFCURVE",
"138 801 CURVE SMOOTH",
"138 531.667 OFFCURVE",
"284.667 295.667 OFFCURVE",
"562 145 CURVE",
"459.333 152.333 OFFCURVE",
"390 156 OFFCURVE",
"354 156 CURVE SMOOTH",
"110 156 LINE",
"110 0 LINE",
"699 0 LINE",
"699 224 LINE",
"459 352 OFFCURVE",
"333 544 OFFCURVE",
"333 788 CURVE SMOOTH",
"333 1097.333 OFFCURVE",
"498.333 1274 OFFCURVE",
"789 1274 CURVE SMOOTH",
"1077 1274 OFFCURVE",
"1243 1097.333 OFFCURVE",
"1243 788 CURVE SMOOTH",
"1243 542.667 OFFCURVE",
"1115.667 350.667 OFFCURVE",
"877 224 CURVE",
"877 0 LINE",
"1466 0 LINE",
"1466 156 LINE",
"1222 156 LINE SMOOTH",
"1186 156 OFFCURVE",
"1116.667 152.333 OFFCURVE",
"1014 145 CURVE",
"1292.667 298.333 OFFCURVE",
"1438 533 OFFCURVE",
"1438 801 CURVE SMOOTH",
"1438 1193 OFFCURVE",
"1192 1430 OFFCURVE",
"788 1430 CURVE"
);
}
);
width = 1573;
}
);
note = Ohm;
unicode = 2126;
},
{
glyphname = ae;
lastChange = "2020-03-13 21:33:49 +0000";
layers = (
{
layerId = "B8E4E6F7-CD69-4587-8CB0-DED49904045E";
paths = (
{
closed = 1;
nodes = (
"989 503 LINE",
"1723 503 LINE",
"1733.667 548.333 OFFCURVE",
"1746 644 OFFCURVE",
"1746 708 CURVE SMOOTH",
"1746 956 OFFCURVE",
"1595 1102 OFFCURVE",
"1335 1102 CURVE SMOOTH",
"1187.667 1102 OFFCURVE",
"1072.667 1049.333 OFFCURVE",
"990 944 CURVE",
"921.333 1049.333 OFFCURVE",
"813 1102 OFFCURVE",
"665 1102 CURVE SMOOTH",
"405 1102 OFFCURVE",
"254.667 1018 OFFCURVE",
"192 822 CURVE",
"370 793 LINE",
"408.667 910.333 OFFCURVE",
"484.667 965 OFFCURVE",
"650 965 CURVE SMOOTH",
"788.667 965 OFFCURVE",
"858 905.667 OFFCURVE",
"858 787 CURVE SMOOTH",
"858 767.667 OFFCURVE",
"851.667 725.333 OFFCURVE",
"839 660 CURVE",
"601 657 LINE SMOOTH",
"203.667 650.333 OFFCURVE",
"32 524.667 OFFCURVE",
"32 278 CURVE SMOOTH",
"32 164.667 OFFCURVE",
"85.167 68.667 OFFCURVE",
"180.5 18 CURVE SMOOTH",
"228.167 -7.333 OFFCURVE",
"283.667 -20 OFFCURVE",
"347 -20 CURVE SMOOTH",
"536.333 -20 OFFCURVE",
"696.667 62.667 OFFCURVE",
"826 248 CURVE",
"872.667 77.333 OFFCURVE",
"1000.667 -20 OFFCURVE",
"1202 -20 CURVE SMOOTH",
"1400.667 -20 OFFCURVE",
"1539.333 55 OFFCURVE",
"1634 231 CURVE",
"1496 294 LINE",
"1437.333 176.667 OFFCURVE",
"1340 115 OFFCURVE",
"1224 115 CURVE SMOOTH",
"1062.667 115 OFFCURVE",
"980 212.667 OFFCURVE",
"980 390 CURVE SMOOTH",
"982 442 OFFCURVE",
"985 479.667 OFFCURVE",
"989 503 CURVE"
);
},
{
closed = 1;
nodes = (
"814 534 LINE",
"797 445 LINE SMOOTH",
"775.667 330.333 OFFCURVE",
"694.5 220.833 OFFCURVE",
"580.5 161.5 CURVE SMOOTH",
"523.5 131.833 OFFCURVE",
"461.333 117 OFFCURVE",
"394 117 CURVE SMOOTH",
"290 117 OFFCURVE",
"223 183.333 OFFCURVE",
"223 286 CURVE SMOOTH",
"223 391.333 OFFCURVE",
"273.167 463 OFFCURVE",
"380.5 499 CURVE SMOOTH",
"434.167 517 OFFCURVE",
"510 527.333 OFFCURVE",
"608 530 CURVE SMOOTH",
"814 534 LINE"
);
},
{
closed = 1;
nodes = (
"1563 641 LINE",
"1013 641 LINE",
"1058.333 851.667 OFFCURVE",
"1174 969 OFFCURVE",
"1338 969 CURVE SMOOTH",
"1486 969 OFFCURVE",
"1567 878.333 OFFCURVE",
"1567 713 CURVE",
"1563 641 LINE"
);
}
);
width = 1821;
}
);
note = ae;
unicode = 00E6;
},
{
glyphname = oslash;
lastChange = "2020-03-13 21:33:49 +0000";
layers = (
{
layerId = "B8E4E6F7-CD69-4587-8CB0-DED49904045E";
paths = (
{
closed = 1;
nodes = (
"201 145 LINE",
"44 -38 LINE",
"211 -38 LINE",
"291 56 LINE",
"360.333 8.667 OFFCURVE",
"446.333 -15 OFFCURVE",
"549 -15 CURVE SMOOTH",
"847 -15 OFFCURVE",
"1032.667 145.667 OFFCURVE",
"1106 467 CURVE SMOOTH",
"1123.333 540.333 OFFCURVE",
"1132 612.333 OFFCURVE",
"1132 683 CURVE SMOOTH",
"1132 790.333 OFFCURVE",
"1107.333 878.333 OFFCURVE",
"1058 947 CURVE",
"1204 1116 LINE",
"1037 1116 LINE",
"967 1034 LINE",
"897 1078.667 OFFCURVE",
"808 1101 OFFCURVE",
"700 1101 CURVE SMOOTH",
"456 1101 OFFCURVE",
"292.333 991.667 OFFCURVE",
"199 781 CURVE SMOOTH",
"152.333 675.667 OFFCURVE",
"127.667 555 OFFCURVE",
"125 419 CURVE SMOOTH",
"125 309 OFFCURVE",
"150.333 217.667 OFFCURVE",
"201 145 CURVE"
);
},
{
closed = 1;
nodes = (
"310 416 LINE",
"310 592 OFFCURVE",
"372.833 806.833 OFFCURVE",
"481.5 899.5 CURVE SMOOTH",
"535.833 945.833 OFFCURVE",
"608 969 OFFCURVE",
"698 969 CURVE SMOOTH",
"767.333 969 OFFCURVE",
"823 951.333 OFFCURVE",
"865 916 CURVE",
"325 289 LINE",
"315 325 OFFCURVE",
"310 367.333 OFFCURVE",
"310 416 CURVE"
);
},
{
closed = 1;
nodes = (
"946 683 LINE",
"938 468.333 OFFCURVE",
"876.833 273.167 OFFCURVE",
"773.5 184.5 CURVE SMOOTH",
"721.833 140.167 OFFCURVE",
"650.667 118 OFFCURVE",
"560 118 CURVE SMOOTH",
"490 118 OFFCURVE",
"434 136.333 OFFCURVE",
"392 173 CURVE",
"932 800 LINE",
"941.333 766 OFFCURVE",
"946 727 OFFCURVE",
"946 683 CURVE"
);
}
);
width = 1251;
}
);
note = oslash;
unicode = 00F8;
},
{
glyphname = questiondown;
lastChange = "2020-03-13 21:33:49 +0000";
layers = (
{
layerId = "B8E4E6F7-CD69-4587-8CB0-DED49904045E";
paths = (
{
closed = 1;
nodes = (
"497 -347 LINE",
"774.333 -347 OFFCURVE",
"955 -225 OFFCURVE",
"1039 35 CURVE",
"874 75 LINE",
"823.333 -87.667 OFFCURVE",
"700.667 -187 OFFCURVE",
"514 -187 CURVE SMOOTH",
"359.333 -187 OFFCURVE",
"252 -99.667 OFFCURVE",
"252 31 CURVE SMOOTH",
"252 119 OFFCURVE",
"283.667 181.167 OFFCURVE",
"345 236.5 CURVE SMOOTH",
"375.667 264.167 OFFCURVE",
"426 297.667 OFFCURVE",
"496 337 CURVE SMOOTH",
"674.667 438.333 OFFCURVE",
"723.333 487.167 OFFCURVE",
"770 566.5 CURVE SMOOTH",
"793.333 606.167 OFFCURVE",
"809.333 652.667 OFFCURVE",
"818 706 CURVE",
"643 706 LINE",
"624.333 615.333 OFFCURVE",
"573.333 550 OFFCURVE",
"404 454 CURVE SMOOTH",
"324 408.667 OFFCURVE",
"239.167 361.833 OFFCURVE",
"174.5 294.5 CURVE SMOOTH",
"109.833 227.167 OFFCURVE",
"65 139.333 OFFCURVE",
"65 10 CURVE SMOOTH",
"65 -199.333 OFFCURVE",
"234.333 -347 OFFCURVE",
"497 -347 CURVE"
);
},
{
closed = 1;
nodes = (
"899 1083 LINE",
"704 1083 LINE",
"665 882 LINE",
"860 882 LINE",
"899 1083 LINE"
);
}
);
width = 1251;
}
);
note = questiondown;
unicode = 00BF;
},
{
glyphname = exclamdown;
lastChange = "2020-03-13 21:33:49 +0000";
layers = (
{
layerId = "B8E4E6F7-CD69-4587-8CB0-DED49904045E";
paths = (
{
closed = 1;
nodes = (
"284 686 LINE",
"64 -326 LINE",
"260 -326 LINE",
"432 686 LINE",
"284 686 LINE"
);
},
{
closed = 1;
nodes = (
"536 1083 LINE",
"342 1083 LINE",
"302 882 LINE",
"496 882 LINE",
"536 1083 LINE"
);
}
);
width = 682;
}
);
note = exclamdown;
unicode = 00A1;
},
{
glyphname = logicalnot;
lastChange = "2020-03-13 21:33:49 +0000";
layers = (
{
layerId = "B8E4E6F7-CD69-4587-8CB0-DED49904045E";
paths = (
{
closed = 1;
nodes = (
"950 180 LINE",
"1095 180 LINE",
"1095 754 LINE",
"100 754 LINE",
"100 608 LINE",
"950 608 LINE",
"950 180 LINE"
);
}
);
width = 1196;
}
);
note = logicalnot;
unicode = 00AC;
},
{
glyphname = radical;
lastChange = "2020-03-13 21:33:49 +0000";
layers = (
{
layerId = "B8E4E6F7-CD69-4587-8CB0-DED49904045E";
paths = (
{
closed = 1;
nodes = (
"622 -14 LINE",
"1122 1620 LINE",
"993 1620 LINE",
"563 205 LINE",
"321 895 LINE",
"51 895 LINE",
"51 778 LINE",
"233 778 LINE",
"516 -14 LINE",
"622 -14 LINE"
);
}
);
width = 1124;
}
);
note = radical;
unicode = 221A;
},
{
glyphname = florin;
lastChange = "2020-03-13 21:33:49 +0000";
layers = (
{
layerId = "B8E4E6F7-CD69-4587-8CB0-DED49904045E";
paths = (
{
closed = 1;
nodes = (
"1028 1312 LINE",
"1059 1434 LINE",
"1012.333 1447.333 OFFCURVE",
"962.667 1454 OFFCURVE",
"910 1454 CURVE SMOOTH",
"732.667 1454 OFFCURVE",
"638.333 1378 OFFCURVE",
"597 1174 CURVE SMOOTH",
"568 1022 LINE",
"417 1022 LINE",
"390 891 LINE",
"542 891 LINE",
"284 -456 LINE",
"464 -456 LINE",
"722 891 LINE",
"935 891 LINE",
"960 1022 LINE",
"749 1022 LINE",
"775 1159 LINE SMOOTH",
"800.333 1284.333 OFFCURVE",
"838 1327 OFFCURVE",
"918 1327 CURVE SMOOTH",
"957.333 1327 OFFCURVE",
"994 1322 OFFCURVE",
"1028 1312 CURVE"
);
}
);
width = 1139;
}
);
note = florin;
unicode = 0192;
},
{
glyphname = approxequal;
lastChange = "2020-03-13 21:33:49 +0000";
layers = (
{
layerId = "B8E4E6F7-CD69-4587-8CB0-DED49904045E";
paths = (
{
closed = 1;
nodes = (
"828 758 LINE",
"941.333 758 OFFCURVE",
"1008 782 OFFCURVE",
"1088 838 CURVE",
"1088 987 LINE",
"1012 924.333 OFFCURVE",
"930.667 893 OFFCURVE",
"844 893 CURVE SMOOTH",
"780 893 OFFCURVE",
"718 911.667 OFFCURVE",
"574 965 CURVE SMOOTH",
"486 996.333 OFFCURVE",
"407.667 1012 OFFCURVE",
"339 1012 CURVE SMOOTH",
"239.667 1012 OFFCURVE",
"152 984 OFFCURVE",
"76 928 CURVE",
"76 784 LINE",
"170.667 852 OFFCURVE",
"240 872 OFFCURVE",
"324 872 CURVE SMOOTH",
"380 872 OFFCURVE",
"452.333 857 OFFCURVE",
"541 827 CURVE SMOOTH",
"638.333 792.333 OFFCURVE",
"736 758 OFFCURVE",
"828 758 CURVE"
);
},
{
closed = 1;
nodes = (
"828 336 LINE",
"938.667 336 OFFCURVE",
"1008 358 OFFCURVE",
"1088 418 CURVE",
"1088 565 LINE",
"1012 503.667 OFFCURVE",
"930.667 473 OFFCURVE",
"844 473 CURVE SMOOTH",
"820 473 OFFCURVE",
"793.5 476.333 OFFCURVE",
"764.5 483 CURVE SMOOTH",
"735.5 489.667 OFFCURVE",
"672 510 OFFCURVE",
"574 544 CURVE SMOOTH",
"485.333 574.667 OFFCURVE",
"407 590 OFFCURVE",
"339 590 CURVE SMOOTH",
"237.667 590 OFFCURVE",
"150 562 OFFCURVE",
"76 506 CURVE",
"76 365 LINE",
"162.667 427.667 OFFCURVE",
"234.667 453 OFFCURVE",
"324 453 CURVE SMOOTH",
"380 453 OFFCURVE",
"452.333 437.333 OFFCURVE",
"541 406 CURVE SMOOTH",
"638.333 371.333 OFFCURVE",
"736 336 OFFCURVE",
"828 336 CURVE"
);
}
);
width = 1124;
}
);
note = approxequal;
unicode = 2248;
},
{
glyphname = uni2206;
lastChange = "2020-03-13 21:33:49 +0000";
layers = (
{
layerId = "B8E4E6F7-CD69-4587-8CB0-DED49904045E";
paths = (
{
closed = 1;
nodes = (
"24 0 LINE",
"1228 0 LINE",
"1228 147 LINE",
"745 1409 LINE",
"501 1409 LINE",
"24 145 LINE",
"24 0 LINE"
);
},
{
closed = 1;
nodes = (
"624 1274 LINE",
"722 997 LINE",
"1036 156 LINE",
"216 156 LINE",
"526 997 LINE",
"624 1274 LINE"
);
}
);
width = 1253;
}
);
note = uni2206;
unicode = 2206;
},
{
glyphname = guillemotleft;
lastChange = "2020-03-13 21:33:49 +0000";
layers = (
{
layerId = "B8E4E6F7-CD69-4587-8CB0-DED49904045E";
paths = (
{
closed = 1;
nodes = (
"818 141 LINE",
"978 141 LINE",
"983 164 LINE",
"715 531 LINE",
"1125 903 LINE",
"1131 940 LINE",
"973 940 LINE",
"563 569 LINE",
"551 506 LINE",
"818 141 LINE"
);
},
{
closed = 1;
nodes = (
"341 141 LINE",
"500 141 LINE",
"505 163 LINE",
"240 530 LINE",
"647 902 LINE",
"653 940 LINE",
"496 940 LINE",
"88 569 LINE",
"76 506 LINE",
"341 141 LINE"
);
}
);
width = 1139;
}
);
note = guillemotleft;
unicode = 00AB;
},
{
glyphname = guillemotright;
lastChange = "2020-03-13 21:33:49 +0000";
layers = (
{
layerId = "B8E4E6F7-CD69-4587-8CB0-DED49904045E";
paths = (
{
closed = 1;
nodes = (
"640 141 LINE",
"1049 506 LINE",
"1061 569 LINE",
"795 940 LINE",
"639 940 LINE",
"635 919 LINE",
"899 547 LINE",
"489 180 LINE",
"482 141 LINE",
"640 141 LINE"
);
},
{
closed = 1;
nodes = (
"165 141 LINE",
"571 506 LINE",
"583 569 LINE",
"320 940 LINE",
"162 940 LINE",
"158 919 LINE",
"422 547 LINE",
"12 180 LINE",
"5 141 LINE",
"165 141 LINE"
);
}
);
width = 1139;
}
);
note = guillemotright;
unicode = 00BB;
},
{
glyphname = ellipsis;
lastChange = "2020-03-13 21:33:49 +0000";
layers = (
{
layerId = "B8E4E6F7-CD69-4587-8CB0-DED49904045E";
paths = (
{
closed = 1;
nodes = (
"1484 0 LINE",
"1678 0 LINE",
"1721 219 LINE",
"1527 219 LINE",
"1484 0 LINE"
);
},
{
closed = 1;
nodes = (
"837 0 LINE",
"1029 0 LINE",
"1072 219 LINE",
"880 219 LINE",
"837 0 LINE"
);
},
{
closed = 1;
nodes = (
"186 0 LINE",
"381 0 LINE",
"424 219 LINE",
"229 219 LINE",
"186 0 LINE"
);
}
);
width = 2048;
}
);
note = ellipsis;
unicode = 2026;
},
{
glyphname = OE;
lastChange = "2020-03-13 21:33:49 +0000";
layers = (
{
layerId = "B8E4E6F7-CD69-4587-8CB0-DED49904045E";
paths = (
{
closed = 1;
nodes = (
"893 0 LINE",
"1835 0 LINE",
"1865 156 LINE",
"1114 156 LINE",
"1209 647 LINE",
"1859 647 LINE",
"1889 801 LINE",
"1239 801 LINE",
"1327 1253 LINE",
"2037 1253 LINE",
"2067 1409 LINE",
"1194 1409 LINE",
"1094.667 1416.333 OFFCURVE",
"1005 1420 OFFCURVE",
"925 1420 CURVE SMOOTH",
"610.333 1420 OFFCURVE",
"349.5 1272.833 OFFCURVE",
"207.5 1013.5 CURVE SMOOTH",
"136.5 883.833 OFFCURVE",
"101 737 OFFCURVE",
"101 573 CURVE SMOOTH",
"101 211.667 OFFCURVE",
"326 -10 OFFCURVE",
"702 -10 CURVE SMOOTH",
"778.667 -10 OFFCURVE",
"842.333 -6.667 OFFCURVE",
"893 0 CURVE"
);
},
{
closed = 1;
nodes = (
"712 145 LINE",
"444 145 OFFCURVE",
"292 292.333 OFFCURVE",
"292 563 CURVE SMOOTH",
"292 817.667 OFFCURVE",
"394.5 1065.333 OFFCURVE",
"580.5 1180 CURVE SMOOTH",
"673.5 1237.333 OFFCURVE",
"785 1266 OFFCURVE",
"915 1266 CURVE SMOOTH",
"1006.333 1266 OFFCURVE",
"1080 1262.333 OFFCURVE",
"1136 1255 CURVE",
"923 156 LINE",
"868.333 148.667 OFFCURVE",
"798 145 OFFCURVE",
"712 145 CURVE"
);
}
);
width = 2048;
}
);
note = OE;
unicode = 0152;
},
{
glyphname = oe;
lastChange = "2020-03-13 21:33:49 +0000";
layers = (
{
layerId = "B8E4E6F7-CD69-4587-8CB0-DED49904045E";
paths = (
{
closed = 1;
nodes = (
"1055 503 LINE",
"1833 503 LINE",
"1849 569.667 OFFCURVE",
"1857 638 OFFCURVE",
"1857 708 CURVE SMOOTH",
"1857 958.667 OFFCURVE",
"1699 1102 OFFCURVE",
"1427 1102 CURVE SMOOTH",
"1265.667 1102 OFFCURVE",
"1125.333 1033 OFFCURVE",
"1024 909 CURVE",
"956.667 1037 OFFCURVE",
"829.333 1101 OFFCURVE",
"642 1101 CURVE SMOOTH",
"399.333 1101 OFFCURVE",
"235.167 990.833 OFFCURVE",
"142.5 779.5 CURVE SMOOTH",
"96.167 673.833 OFFCURVE",
"71.667 553.667 OFFCURVE",
"69 419 CURVE SMOOTH",
"69 149.667 OFFCURVE",
"225.667 -15 OFFCURVE",
"491 -15 CURVE SMOOTH",
"677 -15 OFFCURVE",
"819 47.667 OFFCURVE",
"917 173 CURVE",
"987 44.333 OFFCURVE",
"1111.333 -20 OFFCURVE",
"1290 -20 CURVE SMOOTH",
"1499.333 -20 OFFCURVE",
"1646.333 53.667 OFFCURVE",
"1745 231 CURVE",
"1607 294 LINE",
"1547 180.667 OFFCURVE",
"1439 115 OFFCURVE",
"1311 115 CURVE SMOOTH",
"1132.333 115 OFFCURVE",
"1044 212.667 OFFCURVE",
"1044 390 CURVE SMOOTH",
"1044 431.333 OFFCURVE",
"1047.667 469 OFFCURVE",
"1055 503 CURVE"
);
},
{
closed = 1;
nodes = (
"888 683 LINE",
"880 468.333 OFFCURVE",
"818.833 273.167 OFFCURVE",
"715.5 184.5 CURVE SMOOTH",
"663.833 140.167 OFFCURVE",
"592.667 118 OFFCURVE",
"502 118 CURVE SMOOTH",
"336.667 118 OFFCURVE",
"254 217.333 OFFCURVE",
"254 416 CURVE SMOOTH",
"254 589.333 OFFCURVE",
"316 804.5 OFFCURVE",
"424 898.5 CURVE SMOOTH",
"478 945.5 OFFCURVE",
"550 969 OFFCURVE",
"640 969 CURVE SMOOTH",
"805.333 969 OFFCURVE",
"888 873.667 OFFCURVE",
"888 683 CURVE"
);
},
{
closed = 1;
nodes = (
"1674 641 LINE",
"1077 641 LINE",
"1126.333 850.333 OFFCURVE",
"1252.333 969 OFFCURVE",
"1431 969 CURVE SMOOTH",
"1593.667 969 OFFCURVE",
"1678 878.333 OFFCURVE",
"1678 713 CURVE",
"1674 641 LINE"
);
}
);
width = 1933;
}
);
note = oe;
unicode = 0153;
},
{
glyphname = endash;
lastChange = "2020-03-13 21:33:49 +0000";
layers = (
{
layerId = "B8E4E6F7-CD69-4587-8CB0-DED49904045E";
paths = (
{
closed = 1;
nodes = (
"-13 451 LINE",
"1124 451 LINE",
"1151 588 LINE",
"13 588 LINE",
"-13 451 LINE"
);
}
);
width = 1139;
}
);
note = endash;
unicode = 2013;
},
{
glyphname = emdash;
lastChange = "2020-03-13 21:33:49 +0000";
layers = (
{
layerId = "B8E4E6F7-CD69-4587-8CB0-DED49904045E";
paths = (
{
closed = 1;
nodes = (
"-13 451 LINE",
"2034 451 LINE",
"2061 588 LINE",
"13 588 LINE",
"-13 451 LINE"
);
}
);
width = 2048;
}
);
note = emdash;
unicode = 2014;
},
{
glyphname = quotedblleft;
lastChange = "2020-03-13 21:33:49 +0000";
layers = (
{
layerId = "B8E4E6F7-CD69-4587-8CB0-DED49904045E";
paths = (
{
closed = 1;
nodes = (
"480 952 LINE",
"674 952 LINE",
"712 1147 LINE",
"624 1147 LINE",
"640.667 1230.333 OFFCURVE",
"689 1317.667 OFFCURVE",
"769 1409 CURVE",
"647 1409 LINE",
"572.333 1318.333 OFFCURVE",
"532 1222 OFFCURVE",
"508 1098 CURVE SMOOTH",
"480 952 LINE"
);
},
{
closed = 1;
nodes = (
"148 952 LINE",
"343 952 LINE",
"381 1147 LINE",
"292 1147 LINE",
"308.667 1231.667 OFFCURVE",
"357.333 1319 OFFCURVE",
"438 1409 CURVE",
"317 1409 LINE",
"242.333 1317 OFFCURVE",
"200 1226 OFFCURVE",
"176 1098 CURVE SMOOTH",
"148 952 LINE"
);
}
);
width = 682;
}
);
note = quotedblleft;
unicode = 201C;
},
{
glyphname = quotedblright;
lastChange = "2020-03-13 21:33:49 +0000";
layers = (
{
layerId = "B8E4E6F7-CD69-4587-8CB0-DED49904045E";
paths = (
{
closed = 1;
nodes = (
"590 952 LINE",
"668.667 1049.333 OFFCURVE",
"706 1140 OFFCURVE",
"730 1264 CURVE SMOOTH",
"758 1409 LINE",
"564 1409 LINE",
"526 1214 LINE",
"614 1214 LINE",
"597.333 1130.667 OFFCURVE",
"549 1043.333 OFFCURVE",
"469 952 CURVE",
"590 952 LINE"
);
},
{
closed = 1;
nodes = (
"260 952 LINE",
"333.333 1042.667 OFFCURVE",
"375 1137.333 OFFCURVE",
"399 1264 CURVE SMOOTH",
"427 1409 LINE",
"232 1409 LINE",
"194 1214 LINE",
"282 1214 LINE",
"265.333 1130.667 OFFCURVE",
"217 1043.333 OFFCURVE",
"137 952 CURVE",
"260 952 LINE"
);
}
);
width = 682;
}
);
note = quotedblright;
unicode = 201D;
},
{
glyphname = quoteleft;
lastChange = "2020-03-13 21:33:49 +0000";
layers = (
{
layerId = "B8E4E6F7-CD69-4587-8CB0-DED49904045E";
paths = (
{
closed = 1;
nodes = (
"199 952 LINE",
"394 952 LINE",
"432 1147 LINE",
"343 1147 LINE",
"359.667 1231.667 OFFCURVE",
"408.333 1319 OFFCURVE",
"489 1409 CURVE",
"368 1409 LINE",
"293.333 1317 OFFCURVE",
"251 1226 OFFCURVE",
"227 1098 CURVE SMOOTH",
"199 952 LINE"
);
}
);
width = 455;
}
);
note = quoteleft;
unicode = 2018;
},
{
glyphname = quoteright;
lastChange = "2020-03-13 21:33:49 +0000";
layers = (
{
layerId = "B8E4E6F7-CD69-4587-8CB0-DED49904045E";
paths = (
{
closed = 1;
nodes = (
"315 952 LINE",
"388.333 1042.667 OFFCURVE",
"430 1137.333 OFFCURVE",
"454 1264 CURVE SMOOTH",
"482 1409 LINE",
"287 1409 LINE",
"249 1212 LINE",
"337 1212 LINE",
"319.667 1129.333 OFFCURVE",
"271.333 1042.667 OFFCURVE",
"192 952 CURVE",
"315 952 LINE"
);
}
);
width = 455;
}
);
note = quoteright;
unicode = 2019;
},
{
glyphname = divide;
lastChange = "2020-03-13 21:33:49 +0000";
layers = (
{
layerId = "B8E4E6F7-CD69-4587-8CB0-DED49904045E";
paths = (
{
closed = 1;
nodes = (
"495 958 LINE",
"663 958 LINE",
"663 1141 LINE",
"495 1141 LINE",
"495 958 LINE"
);
},
{
closed = 1;
nodes = (
"82 608 LINE",
"1077 608 LINE",
"1077 754 LINE",
"82 754 LINE",
"82 608 LINE"
);
},
{
closed = 1;
nodes = (
"495 223 LINE",
"663 223 LINE",
"663 406 LINE",
"495 406 LINE",
"495 223 LINE"
);
}
);
width = 1124;
}
);
note = divide;
unicode = 00F7;
},
{
glyphname = lozenge;
lastChange = "2020-03-13 21:33:49 +0000";
layers = (
{
layerId = "B8E4E6F7-CD69-4587-8CB0-DED49904045E";
paths = (
{
closed = 1;
nodes = (
"576 0 LINE",
"1035 721 LINE",
"576 1440 LINE",
"494 1440 LINE",
"37 719 LINE",
"494 0 LINE",
"576 0 LINE"
);
},
{
closed = 1;
nodes = (
"537 1286 LINE",
"889 721 LINE",
"537 147 LINE",
"183 721 LINE",
"537 1286 LINE"
);
}
);
width = 1012;
}
);
note = lozenge;
unicode = 25CA;
},
{
glyphname = fraction;
lastChange = "2020-03-13 21:33:49 +0000";
layers = (
{
layerId = "B8E4E6F7-CD69-4587-8CB0-DED49904045E";
paths = (
{
closed = 1;
nodes = (
"-404 0 LINE",
"747 1409 LINE",
"593 1409 LINE",
"-557 0 LINE",
"-404 0 LINE"
);
}
);
width = 342;
}
);
note = fraction;
unicode = "2044,2215";
},
{
glyphname = Euro;
lastChange = "2020-03-13 21:33:49 +0000";
layers = (
{
layerId = "B8E4E6F7-CD69-4587-8CB0-DED49904045E";
paths = (
{
closed = 1;
nodes = (
"816 1283 LINE",
"825 1283 LINE SMOOTH",
"943.667 1280.333 OFFCURVE",
"1021 1216.333 OFFCURVE",
"1057 1091 CURVE",
"1228 1126 LINE",
"1190.667 1324.667 OFFCURVE",
"1049.667 1430 OFFCURVE",
"831 1430 CURVE SMOOTH",
"557.667 1428.667 OFFCURVE",
"357 1264.667 OFFCURVE",
"253 922 CURVE",
"140 922 LINE",
"75 795 LINE",
"221 795 LINE",
"217 785.667 OFFCURVE",
"200.333 697.667 OFFCURVE",
"195 631 CURVE",
"83 631 LINE",
"19 502 LINE",
"190 502 LINE",
"195.333 171.333 OFFCURVE",
"353.667 -18 OFFCURVE",
"619 -18 CURVE SMOOTH",
"831 -18 OFFCURVE",
"983 84.333 OFFCURVE",
"1063 279 CURVE",
"911 327 LINE",
"855 197.667 OFFCURVE",
"771.333 125 OFFCURVE",
"630 125 CURVE SMOOTH",
"464.667 125 OFFCURVE",
"373.667 256.667 OFFCURVE",
"371 502 CURVE",
"775 502 LINE",
"840 631 LINE",
"377 631 LINE",
"381 676.333 OFFCURVE",
"389.333 731 OFFCURVE",
"402 795 CURVE",
"832 795 LINE",
"897 922 LINE",
"433 922 LINE",
"483.667 1094 OFFCURVE",
"557.667 1195.5 OFFCURVE",
"647 1245.5 CURVE SMOOTH",
"691.667 1270.5 OFFCURVE",
"748 1283 OFFCURVE",
"816 1283 CURVE"
);
}
);
width = 1139;
}
);
note = Euro;
unicode = 20AC;
},
{
glyphname = guilsinglleft;
lastChange = "2020-03-13 21:33:49 +0000";
layers = (
{
layerId = "B8E4E6F7-CD69-4587-8CB0-DED49904045E";
paths = (
{
closed = 1;
nodes = (
"351 141 LINE",
"510 141 LINE",
"512 161 LINE",
"247 528 LINE",
"654 900 LINE",
"663 940 LINE",
"506 940 LINE",
"98 569 LINE",
"86 506 LINE",
"351 141 LINE"
);
}
);
width = 682;
}
);
note = guilsinglleft;
unicode = 2039;
},
{
glyphname = guilsinglright;
lastChange = "2020-03-13 21:33:49 +0000";
layers = (
{
layerId = "B8E4E6F7-CD69-4587-8CB0-DED49904045E";
paths = (
{
closed = 1;
nodes = (
"174 141 LINE",
"582 506 LINE",
"594 569 LINE",
"329 940 LINE",
"173 940 LINE",
"170 919 LINE",
"434 547 LINE",
"24 180 LINE",
"16 141 LINE",
"174 141 LINE"
);
}
);
width = 682;
}
);
note = guilsinglright;
unicode = 203A;
},
{
glyphname = daggerdbl;
lastChange = "2020-03-13 21:33:49 +0000";
layers = (
{
layerId = "B8E4E6F7-CD69-4587-8CB0-DED49904045E";
paths = (
{
closed = 1;
nodes = (
"583 1000 LINE",
"545 670 LINE",
"456 343 LINE",
"100 370 LINE",
"68 206 LINE",
"435 235 LINE",
"345 -141 LINE",
"520 -141 LINE",
"578 235 LINE",
"932 206 LINE",
"964 370 LINE",
"599 343 LINE",
"636 670 LINE",
"726 1000 LINE",
"1082 973 LINE",
"1114 1137 LINE",
"747 1108 LINE",
"836 1484 LINE",
"661 1484 LINE",
"604 1108 LINE",
"250 1137 LINE",
"218 973 LINE",
"583 1000 LINE"
);
}
);
width = 1139;
}
);
note = daggerdbl;
unicode = 2021;
},
{
glyphname = periodcentered;
lastChange = "2020-03-13 21:33:49 +0000";
layers = (
{
layerId = "B8E4E6F7-CD69-4587-8CB0-DED49904045E";
paths = (
{
closed = 1;
nodes = (
"165 446 LINE",
"360 446 LINE",
"403 666 LINE",
"208 666 LINE",
"165 446 LINE"
);
}
);
width = 569;
}
);
note = periodcentered;
unicode = 2219;
},
{
glyphname = quotesinglbase;
lastChange = "2020-03-13 21:33:49 +0000";
layers = (
{
layerId = "B8E4E6F7-CD69-4587-8CB0-DED49904045E";
paths = (
{
closed = 1;
nodes = (
"117 -260 LINE",
"191.667 -168 OFFCURVE",
"232 -72 OFFCURVE",
"256 52 CURVE SMOOTH",
"284 197 LINE",
"89 197 LINE",
"51 0 LINE",
"139 0 LINE",
"121.667 -82.667 OFFCURVE",
"73.333 -169.333 OFFCURVE",
"-6 -260 CURVE",
"117 -260 LINE"
);
}
);
width = 455;
}
);
note = quotesinglbase;
unicode = 201A;
},
{
glyphname = quotedblbase;
lastChange = "2020-03-13 21:33:49 +0000";
layers = (
{
layerId = "B8E4E6F7-CD69-4587-8CB0-DED49904045E";
paths = (
{
closed = 1;
nodes = (
"382 -262 LINE",
"462 -163.333 OFFCURVE",
"499.333 -71.333 OFFCURVE",
"522 50 CURVE SMOOTH",
"550 195 LINE",
"356 195 LINE",
"318 0 LINE",
"406 0 LINE",
"389.333 -83.333 OFFCURVE",
"341 -170.667 OFFCURVE",
"261 -262 CURVE",
"382 -262 LINE"
);
},
{
closed = 1;
nodes = (
"52 -262 LINE",
"126.667 -170 OFFCURVE",
"167 -74 OFFCURVE",
"191 50 CURVE SMOOTH",
"219 195 LINE",
"24 195 LINE",
"-14 0 LINE",
"74 0 LINE",
"57.333 -83.333 OFFCURVE",
"9 -170.667 OFFCURVE",
"-71 -262 CURVE",
"52 -262 LINE"
);
}
);
width = 682;
}
);
note = quotedblbase;
unicode = 201E;
},
{
glyphname = perthousand;
lastChange = "2020-03-13 21:33:49 +0000";
layers = (
{
layerId = "B8E4E6F7-CD69-4587-8CB0-DED49904045E";
paths = (
{
closed = 1;
nodes = (
"509 1421 LINE",
"349 1421 OFFCURVE",
"233.167 1333.667 OFFCURVE",
"176.5 1183 CURVE SMOOTH",
"148.167 1107.667 OFFCURVE",
"134 1030.667 OFFCURVE",
"134 952 CURVE SMOOTH",
"134 788 OFFCURVE",
"223.333 695 OFFCURVE",
"378 695 CURVE SMOOTH",
"482 695 OFFCURVE",
"579.833 743.833 OFFCURVE",
"648.5 832.5 CURVE SMOOTH",
"717.167 921.167 OFFCURVE",
"752 1056 OFFCURVE",
"752 1172 CURVE SMOOTH",
"752 1330.667 OFFCURVE",
"667.667 1421 OFFCURVE",
"509 1421 CURVE"
);
},
{
closed = 1;
nodes = (
"505 1313 LINE",
"577 1313 OFFCURVE",
"613 1267.667 OFFCURVE",
"613 1177 CURVE SMOOTH",
"613 1082.333 OFFCURVE",
"577.333 928.167 OFFCURVE",
"512 859.5 CURVE SMOOTH",
"479.333 825.167 OFFCURVE",
"437 808 OFFCURVE",
"385 808 CURVE SMOOTH",
"309.667 808 OFFCURVE",
"272 855.333 OFFCURVE",
"272 950 CURVE SMOOTH",
"272 1047.333 OFFCURVE",
"312 1204.5 OFFCURVE",
"376 1266.5 CURVE SMOOTH",
"408 1297.5 OFFCURVE",
"451 1313 OFFCURVE",
"505 1313 CURVE"
);
},
{
closed = 1;
nodes = (
"1093 714 LINE",
"933 714 OFFCURVE",
"817.167 626.667 OFFCURVE",
"760.5 476 CURVE SMOOTH",
"732.167 400.667 OFFCURVE",
"718 323.667 OFFCURVE",
"718 245 CURVE SMOOTH",
"718 81 OFFCURVE",
"807.333 -12 OFFCURVE",
"962 -12 CURVE SMOOTH",
"1066 -12 OFFCURVE",
"1163.833 36.833 OFFCURVE",
"1232.5 125.5 CURVE SMOOTH",
"1301.167 214.167 OFFCURVE",
"1336 349 OFFCURVE",
"1336 465 CURVE SMOOTH",
"1336 623.667 OFFCURVE",
"1251.667 714 OFFCURVE",
"1093 714 CURVE"
);
},
{
closed = 1;
nodes = (
"1089 606 LINE",
"1161 606 OFFCURVE",
"1197 560.667 OFFCURVE",
"1197 470 CURVE SMOOTH",
"1197 375.333 OFFCURVE",
"1161.333 221.167 OFFCURVE",
"1096 152.5 CURVE SMOOTH",
"1063.333 118.167 OFFCURVE",
"1021 101 OFFCURVE",
"969 101 CURVE SMOOTH",
"893.667 101 OFFCURVE",
"856 148.333 OFFCURVE",
"856 243 CURVE SMOOTH",
"856 340.333 OFFCURVE",
"896 497.5 OFFCURVE",
"960 559.5 CURVE SMOOTH",
"992 590.5 OFFCURVE",
"1035 606 OFFCURVE",
"1089 606 CURVE"
);
},
{
closed = 1;
nodes = (
"1752 714 LINE",
"1592 714 OFFCURVE",
"1476.167 626.667 OFFCURVE",
"1419.5 476 CURVE SMOOTH",
"1391.167 400.667 OFFCURVE",
"1377 323.667 OFFCURVE",
"1377 245 CURVE SMOOTH",
"1377 81 OFFCURVE",
"1466.333 -12 OFFCURVE",
"1621 -12 CURVE SMOOTH",
"1725 -12 OFFCURVE",
"1822.833 36.833 OFFCURVE",
"1891.5 125.5 CURVE SMOOTH",
"1960.167 214.167 OFFCURVE",
"1995 349 OFFCURVE",
"1995 465 CURVE SMOOTH",
"1995 623.667 OFFCURVE",
"1910.667 714 OFFCURVE",
"1752 714 CURVE"
);
},
{
closed = 1;
nodes = (
"1748 606 LINE",
"1820 606 OFFCURVE",
"1856 560.667 OFFCURVE",
"1856 470 CURVE SMOOTH",
"1856 375.333 OFFCURVE",
"1820.333 221.167 OFFCURVE",
"1755 152.5 CURVE SMOOTH",
"1722.333 118.167 OFFCURVE",
"1680 101 OFFCURVE",
"1628 101 CURVE SMOOTH",
"1552.667 101 OFFCURVE",
"1515 148.333 OFFCURVE",
"1515 243 CURVE SMOOTH",
"1515 340.333 OFFCURVE",
"1555 497.5 OFFCURVE",
"1619 559.5 CURVE SMOOTH",
"1651 590.5 OFFCURVE",
"1694 606 OFFCURVE",
"1748 606 CURVE"
);
},
{
closed = 1;
nodes = (
"216 0 LINE",
"1404 1409 LINE",
"1237 1409 LINE",
"51 0 LINE",
"216 0 LINE"
);
}
);
width = 2048;
}
);
note = perthousand;
unicode = 2030;
},
{
glyphname = dotlessi;
lastChange = "2020-03-13 21:33:49 +0000";
layers = (
{
layerId = "B8E4E6F7-CD69-4587-8CB0-DED49904045E";
paths = (
{
closed = 1;
nodes = (
"89 0 LINE",
"268 0 LINE",
"479 1082 LINE",
"299 1082 LINE",
"89 0 LINE"
);
}
);
width = 569;
}
);
note = dotlessi;
unicode = 0131;
},
{
glyphname = circumflex;
lastChange = "2020-03-13 21:33:49 +0000";
layers = (
{
layerId = "B8E4E6F7-CD69-4587-8CB0-DED49904045E";
paths = (
{
closed = 1;
nodes = (
"742 1221 LINE",
"571 1491 LINE",
"367 1491 LINE",
"81 1221 LINE",
"77 1201 LINE",
"193 1201 LINE",
"458 1370 LINE",
"460 1370 LINE",
"646 1201 LINE",
"738 1201 LINE",
"742 1221 LINE"
);
}
);
width = 682;
}
);
note = circumflex;
unicode = 02C6;
},
{
glyphname = tilde;
lastChange = "2020-03-13 21:33:49 +0000";
layers = (
{
layerId = "B8E4E6F7-CD69-4587-8CB0-DED49904045E";
paths = (
{
closed = 1;
nodes = (
"567 1201 LINE",
"649.667 1201 OFFCURVE",
"708.333 1242.167 OFFCURVE",
"751 1309.5 CURVE SMOOTH",
"772.333 1343.167 OFFCURVE",
"794.667 1396.333 OFFCURVE",
"818 1469 CURVE",
"726 1469 LINE",
"699.333 1389.667 OFFCURVE",
"652.333 1350 OFFCURVE",
"585 1350 CURVE SMOOTH",
"502.48 1350 OFFCURVE",
"412.031 1469 OFFCURVE",
"304 1469 CURVE SMOOTH",
"193.333 1469 OFFCURVE",
"115.667 1403.667 OFFCURVE",
"53 1201 CURVE",
"143 1201 LINE",
"171 1280.333 OFFCURVE",
"218.333 1320 OFFCURVE",
"285 1320 CURVE SMOOTH",
"369.951 1320 OFFCURVE",
"460.776 1201 OFFCURVE",
"567 1201 CURVE"
);
}
);
width = 682;
}
);
note = tilde;
unicode = 02DC;
},
{
glyphname = macron;
lastChange = "2020-03-13 21:33:49 +0000";
layers = (
{
layerId = "B8E4E6F7-CD69-4587-8CB0-DED49904045E";
paths = (
{
closed = 1;
nodes = (
"692 1236 LINE",
"718 1363 LINE",
"168 1363 LINE",
"142 1236 LINE",
"692 1236 LINE"
);
}
);
width = 682;
}
);
note = macron;
unicode = 02C9;
},
{
glyphname = breve;
lastChange = "2020-03-13 21:33:49 +0000";
layers = (
{
layerId = "B8E4E6F7-CD69-4587-8CB0-DED49904045E";
paths = (
{
closed = 1;
nodes = (
"426 1201 LINE",
"595.333 1201 OFFCURVE",
"727 1312.667 OFFCURVE",
"795 1510 CURVE",
"678 1510 LINE",
"635.333 1401.333 OFFCURVE",
"554.333 1347 OFFCURVE",
"435 1347 CURVE SMOOTH",
"324.333 1347 OFFCURVE",
"250 1396.667 OFFCURVE",
"246 1510 CURVE",
"130 1510 LINE",
"132.667 1326 OFFCURVE",
"248.667 1201 OFFCURVE",
"426 1201 CURVE"
);
}
);
width = 682;
}
);
note = breve;
unicode = 02D8;
},
{
glyphname = dotaccent;
lastChange = "2020-03-13 21:33:49 +0000";
layers = (
{
layerId = "B8E4E6F7-CD69-4587-8CB0-DED49904045E";
paths = (
{
closed = 1;
nodes = (
"342 1312 LINE",
"522 1312 LINE",
"556 1484 LINE",
"376 1484 LINE",
"342 1312 LINE"
);
}
);
width = 682;
}
);
note = dotaccent;
unicode = 02D9;
},
{
glyphname = ring;
lastChange = "2020-03-13 21:33:49 +0000";
layers = (
{
layerId = "B8E4E6F7-CD69-4587-8CB0-DED49904045E";
paths = (
{
closed = 1;
nodes = (
"685 1410 LINE",
"685 1543.333 OFFCURVE",
"575 1651 OFFCURVE",
"443 1651 CURVE SMOOTH",
"309.667 1651 OFFCURVE",
"201 1544.667 OFFCURVE",
"201 1410 CURVE SMOOTH",
"201 1276.667 OFFCURVE",
"309.667 1168 OFFCURVE",
"443 1168 CURVE SMOOTH",
"576.333 1168 OFFCURVE",
"685 1276.667 OFFCURVE",
"685 1410 CURVE"
);
},
{
closed = 1;
nodes = (
"577 1410 LINE",
"577 1334 OFFCURVE",
"520.333 1273 OFFCURVE",
"443 1273 CURVE SMOOTH",
"364.333 1273 OFFCURVE",
"308 1336.667 OFFCURVE",
"308 1410 CURVE SMOOTH",
"308 1483.333 OFFCURVE",
"364.333 1544 OFFCURVE",
"443 1544 CURVE SMOOTH",
"520.333 1544 OFFCURVE",
"577 1487.333 OFFCURVE",
"577 1410 CURVE"
);
}
);
width = 682;
}
);
note = ring;
unicode = 02DA;
},
{
glyphname = cedilla;
lastChange = "2020-03-13 21:33:49 +0000";
layers = (
{
layerId = "B8E4E6F7-CD69-4587-8CB0-DED49904045E";
paths = (
{
closed = 1;
nodes = (
"318 -96 LINE",
"377 0 LINE",
"270 0 LINE",
"169 -174 LINE",
"178.333 -172.667 OFFCURVE",
"197.667 -172 OFFCURVE",
"227 -172 CURVE SMOOTH",
"306.333 -172 OFFCURVE",
"346 -196 OFFCURVE",
"346 -244 CURVE SMOOTH",
"346 -304 OFFCURVE",
"301.333 -333 OFFCURVE",
"180 -333 CURVE SMOOTH",
"153.333 -333 OFFCURVE",
"124 -331 OFFCURVE",
"92 -327 CURVE",
"71 -418 LINE",
"108.333 -422.667 OFFCURVE",
"143.667 -425 OFFCURVE",
"177 -425 CURVE SMOOTH",
"379 -425 OFFCURVE",
"480 -360.667 OFFCURVE",
"480 -232 CURVE SMOOTH",
"480 -153.333 OFFCURVE",
"426 -102.667 OFFCURVE",
"318 -96 CURVE"
);
}
);
width = 682;
}
);
note = cedilla;
unicode = 00B8;
},
{
glyphname = hungarumlaut;
lastChange = "2020-03-13 21:33:49 +0000";
layers = (
{
layerId = "B8E4E6F7-CD69-4587-8CB0-DED49904045E";
paths = (
{
closed = 1;
nodes = (
"23 1201 LINE",
"116 1201 LINE",
"480 1479 LINE",
"485 1508 LINE",
"278 1508 LINE",
"26 1221 LINE",
"23 1201 LINE"
);
},
{
closed = 1;
nodes = (
"369 1201 LINE",
"463 1201 LINE",
"827 1479 LINE",
"832 1508 LINE",
"625 1508 LINE",
"372 1221 LINE",
"369 1201 LINE"
);
}
);
width = 682;
}
);
note = hungarumlaut;
unicode = 02DD;
},
{
glyphname = ogonek;
lastChange = "2020-03-13 21:33:49 +0000";
layers = (
{
layerId = "B8E4E6F7-CD69-4587-8CB0-DED49904045E";
paths = (
{
closed = 1;
nodes = (
"249 -427 LINE",
"300.333 -427 OFFCURVE",
"348.333 -418 OFFCURVE",
"393 -400 CURVE",
"408 -295 LINE",
"368 -309.667 OFFCURVE",
"330 -317 OFFCURVE",
"294 -317 CURVE SMOOTH",
"243.333 -317 OFFCURVE",
"216 -281.333 OFFCURVE",
"216 -236 CURVE SMOOTH",
"216 -152 OFFCURVE",
"285 -64 OFFCURVE",
"409 0 CURVE",
"276 0 LINE",
"154.667 -46.667 OFFCURVE",
"71 -148.333 OFFCURVE",
"71 -259 CURVE SMOOTH",
"71 -357.667 OFFCURVE",
"131.667 -427 OFFCURVE",
"249 -427 CURVE"
);
}
);
width = 682;
}
);
note = ogonek;
unicode = 02DB;
},
{
glyphname = caron;
lastChange = "2020-03-13 21:33:49 +0000";
layers = (
{
layerId = "B8E4E6F7-CD69-4587-8CB0-DED49904045E";
paths = (
{
closed = 1;
nodes = (
"521 1201 LINE",
"798 1471 LINE",
"802 1491 LINE",
"690 1491 LINE",
"438 1322 LINE",
"436 1322 LINE",
"237 1491 LINE",
"140 1491 LINE",
"136 1471 LINE",
"317 1201 LINE",
"521 1201 LINE"
);
}
);
width = 682;
}
);
note = caron;
unicode = 02C7;
},
{
glyphname = Lslash;
lastChange = "2020-03-13 21:33:49 +0000";
layers = (
{
layerId = "B8E4E6F7-CD69-4587-8CB0-DED49904045E";
paths = (
{
closed = 1;
nodes = (
"282 156 LINE",
"377 648 LINE",
"683 797 LINE",
"714 954 LINE",
"408 806 LINE",
"525 1409 LINE",
"334 1409 LINE",
"196 696 LINE",
"31 611 LINE",
"2 453 LINE",
"165 538 LINE",
"60 0 LINE",
"963 0 LINE",
"994 156 LINE",
"282 156 LINE"
);
}
);
width = 1139;
}
);
note = Lslash;
unicode = 0141;
},
{
glyphname = lslash;
lastChange = "2020-03-13 21:33:49 +0000";
layers = (
{
layerId = "B8E4E6F7-CD69-4587-8CB0-DED49904045E";
paths = (
{
closed = 1;
nodes = (
"32 0 LINE",
"211 0 LINE",
"337 646 LINE",
"475 717 LINE",
"506 876 LINE",
"368 804 LINE",
"500 1484 LINE",
"320 1484 LINE",
"167 700 LINE",
"33 632 LINE",
"2 474 LINE",
"137 542 LINE",
"32 0 LINE"
);
}
);
width = 455;
}
);
note = lslash;
unicode = 0142;
},
{
glyphname = brokenbar;
lastChange = "2020-03-13 21:33:49 +0000";
layers = (
{
layerId = "B8E4E6F7-CD69-4587-8CB0-DED49904045E";
paths = (
{
closed = 1;
nodes = (
"213 707 LINE",
"379 707 LINE",
"379 1485 LINE",
"213 1485 LINE",
"213 707 LINE"
);
},
{
closed = 1;
nodes = (
"213 -455 LINE",
"379 -455 LINE",
"379 324 LINE",
"213 324 LINE",
"213 -455 LINE"
);
}
);
width = 532;
}
);
note = brokenbar;
unicode = 00A6;
},
{
glyphname = Eth;
lastChange = "2020-03-13 21:33:49 +0000";
layers = (
{
layerId = "B8E4E6F7-CD69-4587-8CB0-DED49904045E";
paths = (
{
closed = 1;
nodes = (
"764 1409 LINE",
"336 1409 LINE",
"218 801 LINE",
"64 801 LINE",
"34 647 LINE",
"188 647 LINE",
"63 0 LINE",
"612 0 LINE SMOOTH",
"936 0 OFFCURVE",
"1203.167 140.5 OFFCURVE",
"1334.5 378.5 CURVE SMOOTH",
"1400.167 497.5 OFFCURVE",
"1433 635 OFFCURVE",
"1433 791 CURVE SMOOTH",
"1433 1176.333 OFFCURVE",
"1180 1409 OFFCURVE",
"764 1409 CURVE"
);
},
{
closed = 1;
nodes = (
"409 801 LINE",
"498 1256 LINE",
"760 1256 LINE SMOOTH",
"1062.667 1256 OFFCURVE",
"1239 1085 OFFCURVE",
"1239 793 CURVE SMOOTH",
"1239 534.333 OFFCURVE",
"1129.667 333.833 OFFCURVE",
"931 230.5 CURVE SMOOTH",
"831.667 178.833 OFFCURVE",
"717 153 OFFCURVE",
"587 153 CURVE SMOOTH",
"283 153 LINE",
"379 647 LINE",
"785 647 LINE",
"815 801 LINE",
"409 801 LINE"
);
}
);
width = 1479;
}
);
note = Eth;
unicode = 00D0;
},
{
glyphname = eth;
lastChange = "2020-03-13 21:33:49 +0000";
layers = (
{
layerId = "B8E4E6F7-CD69-4587-8CB0-DED49904045E";
paths = (
{
closed = 1;
nodes = (
"625 1328 LINE",
"446 1256 LINE",
"425 1136 LINE",
"698 1249 LINE",
"775.333 1161 OFFCURVE",
"838.667 1024.667 OFFCURVE",
"864 874 CURVE",
"817.333 935.333 OFFCURVE",
"710.333 979 OFFCURVE",
"605 979 CURVE SMOOTH",
"374.333 979 OFFCURVE",
"217.5 883.833 OFFCURVE",
"131.5 700.5 CURVE SMOOTH",
"88.5 608.833 OFFCURVE",
"67 509.667 OFFCURVE",
"67 403 CURVE SMOOTH",
"67 147 OFFCURVE",
"225.667 -15 OFFCURVE",
"491 -15 CURVE SMOOTH",
"749.667 -15 OFFCURVE",
"903.5 95.667 OFFCURVE",
"989.5 337 CURVE SMOOTH",
"1032.5 457.667 OFFCURVE",
"1054 588 OFFCURVE",
"1054 728 CURVE SMOOTH",
"1054 946.667 OFFCURVE",
"993 1123.667 OFFCURVE",
"837 1309 CURVE",
"1006 1376 LINE",
"1025 1484 LINE",
"762 1382 LINE",
"709.333 1424 OFFCURVE",
"657.333 1458 OFFCURVE",
"606 1484 CURVE",
"430 1484 LINE",
"496 1440 OFFCURVE",
"561 1388 OFFCURVE",
"625 1328 CURVE"
);
},
{
closed = 1;
nodes = (
"603 846 LINE",
"700.333 846 OFFCURVE",
"783.167 804.333 OFFCURVE",
"826.5 739 CURVE SMOOTH",
"848.167 706.333 OFFCURVE",
"859 671.667 OFFCURVE",
"859 635 CURVE SMOOTH",
"859 525.667 OFFCURVE",
"821.833 350.5 OFFCURVE",
"762.5 256.5 CURVE SMOOTH",
"703.167 162.5 OFFCURVE",
"619.333 118 OFFCURVE",
"494 118 CURVE SMOOTH",
"338 118 OFFCURVE",
"251 214.667 OFFCURVE",
"251 388 CURVE SMOOTH",
"251 536 OFFCURVE",
"305.667 715.333 OFFCURVE",
"407 790 CURVE SMOOTH",
"457.667 827.333 OFFCURVE",
"523 846 OFFCURVE",
"603 846 CURVE"
);
}
);
width = 1139;
}
);
note = eth;
unicode = 00F0;
},
{
glyphname = Thorn;
lastChange = "2020-03-13 21:33:49 +0000";
layers = (
{
layerId = "B8E4E6F7-CD69-4587-8CB0-DED49904045E";
paths = (
{
closed = 1;
nodes = (
"254 0 LINE",
"314 297 LINE",
"738 297 LINE SMOOTH",
"1090 297 OFFCURVE",
"1307 474.667 OFFCURVE",
"1307 768 CURVE SMOOTH",
"1307 1014.667 OFFCURVE",
"1122 1157 OFFCURVE",
"806 1157 CURVE SMOOTH",
"479 1157 LINE",
"528 1409 LINE",
"337 1409 LINE",
"63 0 LINE",
"254 0 LINE"
);
},
{
closed = 1;
nodes = (
"344 448 LINE",
"452 1004 LINE",
"801 1004 LINE SMOOTH",
"1006.333 1004 OFFCURVE",
"1113 917.667 OFFCURVE",
"1113 759 CURVE SMOOTH",
"1113 551.667 OFFCURVE",
"985.667 448 OFFCURVE",
"731 448 CURVE SMOOTH",
"344 448 LINE"
);
}
);
width = 1366;
}
);
note = Thorn;
unicode = 00DE;
},
{
glyphname = thorn;
lastChange = "2020-03-13 21:33:49 +0000";
layers = (
{
layerId = "B8E4E6F7-CD69-4587-8CB0-DED49904045E";
paths = (
{
closed = 1;
nodes = (
"554 -20 LINE",
"784.667 -20 OFFCURVE",
"929.5 100.5 OFFCURVE",
"1011.5 354.5 CURVE SMOOTH",
"1052.5 481.5 OFFCURVE",
"1073 612.667 OFFCURVE",
"1073 748 CURVE SMOOTH",
"1073 968 OFFCURVE",
"950.333 1102 OFFCURVE",
"741 1102 CURVE SMOOTH",
"582.333 1102 OFFCURVE",
"484.333 1047.667 OFFCURVE",
"387 921 CURVE",
"383 921 LINE",
"400.333 983.667 OFFCURVE",
"411.667 1030.333 OFFCURVE",
"417 1061 CURVE SMOOTH",
"500 1484 LINE",
"320 1484 LINE",
"-51 -425 LINE",
"128 -425 LINE",
"210 -2 LINE SMOOTH",
"222.667 60.667 OFFCURVE",
"232.333 120.667 OFFCURVE",
"239 178 CURVE",
"244 178 LINE",
"286.667 52.667 OFFCURVE",
"390 -20 OFFCURVE",
"554 -20 CURVE"
);
},
{
closed = 1;
nodes = (
"689 963 LINE",
"825 963 OFFCURVE",
"885 880 OFFCURVE",
"885 716 CURVE SMOOTH",
"885 552 OFFCURVE",
"827 289.167 OFFCURVE",
"731 188.5 CURVE SMOOTH",
"683 138.167 OFFCURVE",
"617.667 113 OFFCURVE",
"535 113 CURVE SMOOTH",
"384.333 113 OFFCURVE",
"295 210.333 OFFCURVE",
"295 377 CURVE SMOOTH",
"295 506.333 OFFCURVE",
"334.667 691.833 OFFCURVE",
"400 800.5 CURVE SMOOTH",
"465.333 909.167 OFFCURVE",
"557 963 OFFCURVE",
"689 963 CURVE"
);
}
);
width = 1139;
}
);
note = thorn;
unicode = 00FE;
},
{
glyphname = minus;
lastChange = "2020-03-13 21:33:49 +0000";
layers = (
{
layerId = "B8E4E6F7-CD69-4587-8CB0-DED49904045E";
paths = (
{
closed = 1;
nodes = (
"131 608 LINE",
"1126 608 LINE",
"1126 754 LINE",
"131 754 LINE",
"131 608 LINE"
);
}
);
width = 1196;
}
);
note = minus;
unicode = 2212;
},
{
glyphname = multiply;
lastChange = "2020-03-13 21:33:49 +0000";
layers = (
{
layerId = "B8E4E6F7-CD69-4587-8CB0-DED49904045E";
paths = (
{
closed = 1;
nodes = (
"172 330 LINE",
"274 225 LINE",
"630 580 LINE",
"983 227 LINE",
"1085 332 LINE",
"733 684 LINE",
"1083 1032 LINE",
"978 1137 LINE",
"628 786 LINE",
"278 1139 LINE",
"174 1036 LINE",
"526 684 LINE",
"172 330 LINE"
);
}
);
width = 1196;
}
);
note = multiply;
unicode = 00D7;
},
{
glyphname = onesuperior;
lastChange = "2020-03-13 21:33:49 +0000";
layers = (
{
layerId = "B8E4E6F7-CD69-4587-8CB0-DED49904045E";
paths = (
{
closed = 1;
nodes = (
"61 563 LINE",
"617 563 LINE",
"638 670 LINE",
"423 670 LINE",
"567 1409 LINE",
"444 1409 LINE",
"207 1272 LINE",
"181 1141 LINE",
"410 1279 LINE",
"292 670 LINE",
"81 670 LINE",
"61 563 LINE"
);
}
);
width = 682;
}
);
note = onesuperior;
unicode = 00B9;
},
{
glyphname = twosuperior;
lastChange = "2020-03-13 21:33:49 +0000";
layers = (
{
layerId = "B8E4E6F7-CD69-4587-8CB0-DED49904045E";
paths = (
{
closed = 1;
nodes = (
"30 563 LINE",
"631 563 LINE",
"651 676 LINE",
"203 676 LINE",
"237.667 728 OFFCURVE",
"297.667 773.333 OFFCURVE",
"427 848 CURVE SMOOTH",
"525 905.333 OFFCURVE",
"591.833 949.667 OFFCURVE",
"627.5 981 CURVE SMOOTH",
"698.833 1043.667 OFFCURVE",
"742 1115.333 OFFCURVE",
"742 1206 CURVE SMOOTH",
"742 1332.667 OFFCURVE",
"638.667 1421 OFFCURVE",
"480 1421 CURVE SMOOTH",
"312 1421 OFFCURVE",
"202.667 1341 OFFCURVE",
"164 1189 CURVE",
"289 1174 LINE",
"307.667 1258 OFFCURVE",
"379.667 1315 OFFCURVE",
"473 1315 CURVE SMOOTH",
"559.667 1315 OFFCURVE",
"606 1260 OFFCURVE",
"606 1192 CURVE SMOOTH",
"606 1129.333 OFFCURVE",
"576.5 1081.333 OFFCURVE",
"522.5 1036 CURVE SMOOTH",
"495.5 1013.333 OFFCURVE",
"438.333 976.333 OFFCURVE",
"351 925 CURVE SMOOTH",
"212.333 842.333 OFFCURVE",
"167.833 806.167 OFFCURVE",
"116.5 753.5 CURVE SMOOTH",
"90.833 727.167 OFFCURVE",
"68 698 OFFCURVE",
"48 666 CURVE",
"30 563 LINE"
);
}
);
width = 682;
}
);
note = twosuperior;
unicode = 00B2;
},
{
glyphname = threesuperior;
lastChange = "2020-03-13 21:33:49 +0000";
layers = (
{
layerId = "B8E4E6F7-CD69-4587-8CB0-DED49904045E";
paths = (
{
closed = 1;
nodes = (
"332 1049 LINE",
"311 940 LINE",
"372 940 LINE SMOOTH",
"474.667 940 OFFCURVE",
"537 892 OFFCURVE",
"537 820 CURVE SMOOTH",
"537 718.667 OFFCURVE",
"470.667 655 OFFCURVE",
"356 655 CURVE SMOOTH",
"257.333 655 OFFCURVE",
"194 705 OFFCURVE",
"182 801 CURVE",
"53 785 LINE",
"77 629 OFFCURVE",
"176 551 OFFCURVE",
"350 551 CURVE SMOOTH",
"543.333 551 OFFCURVE",
"673 655.667 OFFCURVE",
"673 817 CURVE SMOOTH",
"673 907.667 OFFCURVE",
"607.333 975.667 OFFCURVE",
"510 993 CURVE",
"510 995 LINE",
"655.333 1024.333 OFFCURVE",
"728 1098.667 OFFCURVE",
"728 1218 CURVE SMOOTH",
"728 1338 OFFCURVE",
"625 1421 OFFCURVE",
"477 1421 CURVE SMOOTH",
"309 1421 OFFCURVE",
"202.667 1349 OFFCURVE",
"158 1205 CURVE",
"283 1180 LINE",
"308.333 1266.667 OFFCURVE",
"376.333 1315 OFFCURVE",
"467 1315 CURVE SMOOTH",
"543 1315 OFFCURVE",
"590 1268 OFFCURVE",
"590 1204 CURVE SMOOTH",
"590 1108 OFFCURVE",
"518.333 1049 OFFCURVE",
"389 1049 CURVE SMOOTH",
"332 1049 LINE"
);
}
);
width = 682;
}
);
note = threesuperior;
unicode = 00B3;
},
{
glyphname = franc;
lastChange = "2020-03-13 21:33:49 +0000";
layers = (
{
layerId = "B8E4E6F7-CD69-4587-8CB0-DED49904045E";
paths = (
{
closed = 1;
nodes = (
"497 1254 LINE",
"1208 1254 LINE",
"1238 1409 LINE",
"347 1409 LINE",
"153 408 LINE",
"-22 408 LINE",
"-47 279 LINE",
"128 279 LINE",
"74 0 LINE",
"254 0 LINE",
"308 279 LINE",
"710 279 LINE",
"735 408 LINE",
"333 408 LINE",
"374 621 LINE",
"1061 621 LINE",
"1092 778 LINE",
"405 778 LINE",
"497 1254 LINE"
);
}
);
width = 1139;
}
);
note = franc;
unicode = 20A3;
},
{
glyphname = dcroat;
lastChange = "2020-03-13 21:33:49 +0000";
layers = (
{
layerId = "B8E4E6F7-CD69-4587-8CB0-DED49904045E";
paths = (
{
closed = 1;
nodes = (
"453 118 LINE",
"317 118 OFFCURVE",
"257 201 OFFCURVE",
"257 365 CURVE SMOOTH",
"257 537 OFFCURVE",
"319.333 798.833 OFFCURVE",
"414 895.5 CURVE SMOOTH",
"461.333 943.833 OFFCURVE",
"525.667 968 OFFCURVE",
"607 968 CURVE SMOOTH",
"757.667 968 OFFCURVE",
"847 870.667 OFFCURVE",
"847 704 CURVE SMOOTH",
"847 574.667 OFFCURVE",
"807.333 389.167 OFFCURVE",
"742 280.5 CURVE SMOOTH",
"676.667 171.833 OFFCURVE",
"585 118 OFFCURVE",
"453 118 CURVE"
);
},
{
closed = 1;
nodes = (
"401 -21 LINE",
"559.667 -21 OFFCURVE",
"657.667 33.333 OFFCURVE",
"755 160 CURVE",
"759 160 LINE",
"745 87.333 OFFCURVE",
"738 34 OFFCURVE",
"738 0 CURVE",
"910 0 LINE",
"916 54.667 OFFCURVE",
"928.667 129 OFFCURVE",
"948 223 CURVE SMOOTH",
"1140 1206 LINE",
"1272 1206 LINE",
"1297 1337 LINE",
"1165 1337 LINE",
"1194 1484 LINE",
"1014 1484 LINE",
"985 1337 LINE",
"685 1337 LINE",
"660 1206 LINE",
"960 1206 LINE",
"903 903 LINE",
"898 903 LINE",
"855.333 1028.333 OFFCURVE",
"752 1101 OFFCURVE",
"588 1101 CURVE SMOOTH",
"357.333 1101 OFFCURVE",
"212.5 980.5 OFFCURVE",
"130.5 726.5 CURVE SMOOTH",
"89.5 599.5 OFFCURVE",
"69 468.333 OFFCURVE",
"69 333 CURVE SMOOTH",
"69 113 OFFCURVE",
"191.667 -21 OFFCURVE",
"401 -21 CURVE"
);
}
);
width = 1139;
}
);
note = dcroat;
unicode = 0111;
},
{
glyphname = overscore;
lastChange = "2020-03-13 21:33:49 +0000";
layers = (
{
layerId = "B8E4E6F7-CD69-4587-8CB0-DED49904045E";
paths = (
{
closed = 1;
nodes = (
"1148 1503 LINE",
"1148 1620 LINE",
"-17 1620 LINE",
"-17 1503 LINE",
"1148 1503 LINE"
);
}
);
width = 1131;
}
);
note = overscore;
unicode = 00AF;
},
{
glyphname = Gamma;
lastChange = "2020-03-13 21:33:49 +0000";
layers = (
{
layerId = "B8E4E6F7-CD69-4587-8CB0-DED49904045E";
paths = (
{
closed = 1;
nodes = (
"1241 1410 LINE",
"337 1410 LINE",
"63 1 LINE",
"254 1 LINE",
"498 1254 LINE",
"1211 1254 LINE",
"1241 1410 LINE"
);
}
);
width = 1168;
}
);
note = Gamma;
unicode = 0393;
},
{
glyphname = Theta;
lastChange = "2020-03-13 21:33:49 +0000";
layers = (
{
layerId = "B8E4E6F7-CD69-4587-8CB0-DED49904045E";
paths = (
{
closed = 1;
nodes = (
"541 794 LINE",
"510 634 LINE",
"1097 634 LINE",
"1128 794 LINE",
"541 794 LINE"
);
},
{
closed = 1;
nodes = (
"928 1430 LINE",
"610.667 1430 OFFCURVE",
"347.167 1279.833 OFFCURVE",
"206.5 1012.5 CURVE SMOOTH",
"136.167 878.833 OFFCURVE",
"101 732.333 OFFCURVE",
"101 573 CURVE SMOOTH",
"101 202.333 OFFCURVE",
"320.333 -20 OFFCURVE",
"699 -20 CURVE SMOOTH",
"1013.667 -20 OFFCURVE",
"1271.333 126.833 OFFCURVE",
"1414 387.5 CURVE SMOOTH",
"1485.333 517.833 OFFCURVE",
"1522.667 672.333 OFFCURVE",
"1526 851 CURVE SMOOTH",
"1526 1204.333 OFFCURVE",
"1297.333 1430 OFFCURVE",
"928 1430 CURVE"
);
},
{
closed = 1;
nodes = (
"919 1276 LINE",
"1184.333 1276 OFFCURVE",
"1335 1123 OFFCURVE",
"1335 847 CURVE SMOOTH",
"1335 589.667 OFFCURVE",
"1228.167 336.833 OFFCURVE",
"1043.5 221.5 CURVE SMOOTH",
"951.167 163.833 OFFCURVE",
"839.333 135 OFFCURVE",
"708 135 CURVE SMOOTH",
"437.333 135 OFFCURVE",
"292 284.333 OFFCURVE",
"292 563 CURVE SMOOTH",
"292 804.333 OFFCURVE",
"393.5 1068.333 OFFCURVE",
"579.5 1187 CURVE SMOOTH",
"672.5 1246.333 OFFCURVE",
"785.667 1276 OFFCURVE",
"919 1276 CURVE"
);
}
);
width = 1593;
}
);
note = Theta;
unicode = 0398;
},
{
glyphname = Phi;
lastChange = "2020-03-13 21:33:49 +0000";
layers = (
{
layerId = "B8E4E6F7-CD69-4587-8CB0-DED49904045E";
paths = (
{
closed = 1;
nodes = (
"640 216 LINE",
"689 216 LINE",
"645 -11 LINE",
"828 -11 LINE",
"874 216 LINE",
"1034 216 LINE SMOOTH",
"1272.667 216 OFFCURVE",
"1461.167 307 OFFCURVE",
"1560.5 475 CURVE SMOOTH",
"1610.167 559 OFFCURVE",
"1635 656.667 OFFCURVE",
"1635 768 CURVE SMOOTH",
"1635 1057.333 OFFCURVE",
"1433 1237 OFFCURVE",
"1121 1237 CURVE SMOOTH",
"1072 1237 LINE",
"1105 1419 LINE",
"922 1419 LINE",
"887 1237 LINE",
"726 1237 LINE SMOOTH",
"362 1237 OFFCURVE",
"126 1026 OFFCURVE",
"126 686 CURVE SMOOTH",
"126 398 OFFCURVE",
"326.667 216 OFFCURVE",
"640 216 CURVE"
);
},
{
closed = 1;
nodes = (
"901 358 LINE",
"1044 1094 LINE",
"1113 1094 LINE SMOOTH",
"1315.667 1094 OFFCURVE",
"1441 972.333 OFFCURVE",
"1441 759 CURVE SMOOTH",
"1441 499 OFFCURVE",
"1293 358 OFFCURVE",
"1025 358 CURVE SMOOTH",
"901 358 LINE"
);
},
{
closed = 1;
nodes = (
"859 1094 LINE",
"716 358 LINE",
"646 358 LINE SMOOTH",
"446 358 OFFCURVE",
"320 481.667 OFFCURVE",
"320 695 CURVE SMOOTH",
"320 952.333 OFFCURVE",
"467 1094 OFFCURVE",
"735 1094 CURVE SMOOTH",
"859 1094 LINE"
);
}
);
width = 1714;
}
);
note = Phi;
unicode = 03A6;
},
{
glyphname = alpha;
lastChange = "2020-03-13 21:33:49 +0000";
layers = (
{
layerId = "B8E4E6F7-CD69-4587-8CB0-DED49904045E";
paths = (
{
closed = 1;
nodes = (
"595 1101 LINE",
"423 1101 OFFCURVE",
"297.167 1037.5 OFFCURVE",
"208.5 903.5 CURVE SMOOTH",
"119.833 769.5 OFFCURVE",
"70 548.333 OFFCURVE",
"70 375 CURVE SMOOTH",
"70 121.667 OFFCURVE",
"194 -21 OFFCURVE",
"406 -21 CURVE SMOOTH",
"558 -21 OFFCURVE",
"671.333 51.667 OFFCURVE",
"790 253 CURVE",
"794 253 LINE",
"794 237 LINE SMOOTH",
"794 139 OFFCURVE",
"800 60 OFFCURVE",
"812 0 CURVE",
"989 0 LINE",
"970.333 125.333 OFFCURVE",
"961 296.667 OFFCURVE",
"961 514 CURVE",
"1006.333 666 OFFCURVE",
"1141.333 971.333 OFFCURVE",
"1216 1082 CURVE",
"1028 1082 LINE",
"981.333 1007.333 OFFCURVE",
"932 907.333 OFFCURVE",
"916 858 CURVE",
"914 858 LINE",
"886 1011.333 OFFCURVE",
"768.333 1101 OFFCURVE",
"595 1101 CURVE"
);
},
{
closed = 1;
nodes = (
"601 969 LINE",
"746.333 969 OFFCURVE",
"826 852 OFFCURVE",
"826 632 CURVE SMOOTH",
"824 557 LINE",
"738.667 285 OFFCURVE",
"592.667 119 OFFCURVE",
"446 119 CURVE SMOOTH",
"321.333 119 OFFCURVE",
"259 201.333 OFFCURVE",
"259 366 CURVE SMOOTH",
"259 540.667 OFFCURVE",
"315.833 785.833 OFFCURVE",
"412.5 890.5 CURVE SMOOTH",
"460.833 942.833 OFFCURVE",
"523.667 969 OFFCURVE",
"601 969 CURVE"
);
}
);
width = 1168;
}
);
note = alpha;
unicode = 03B1;
},
{
glyphname = delta;
lastChange = "2020-03-13 21:33:49 +0000";
layers = (
{
layerId = "B8E4E6F7-CD69-4587-8CB0-DED49904045E";
paths = (
{
closed = 1;
nodes = (
"511 113 LINE",
"356.333 113 OFFCURVE",
"258 215.667 OFFCURVE",
"258 389 CURVE SMOOTH",
"258 647.667 OFFCURVE",
"399 823.667 OFFCURVE",
"727 929 CURVE",
"831 795.667 OFFCURVE",
"868 680 OFFCURVE",
"868 540 CURVE SMOOTH",
"868 280 OFFCURVE",
"731 113 OFFCURVE",
"511 113 CURVE"
);
},
{
closed = 1;
nodes = (
"759 1352 LINE",
"1130 1352 LINE",
"1156 1484 LINE",
"423 1484 LINE",
"400 1365 LINE",
"653 1026 LINE",
"258.333 919.333 OFFCURVE",
"67 702.667 OFFCURVE",
"67 396 CURVE SMOOTH",
"67 142.667 OFFCURVE",
"231.667 -20 OFFCURVE",
"501 -20 CURVE SMOOTH",
"715.667 -20 OFFCURVE",
"894.5 77.667 OFFCURVE",
"988.5 251 CURVE SMOOTH",
"1035.5 337.667 OFFCURVE",
"1059 436.333 OFFCURVE",
"1059 547 CURVE SMOOTH",
"1059 703 OFFCURVE",
"1006.667 850.667 OFFCURVE",
"860 1036 CURVE SMOOTH",
"607 1360 LINE",
"759 1352 LINE"
);
}
);
width = 1138;
}
);
note = delta;
unicode = 03B4;
},
{
glyphname = epsilon;
lastChange = "2020-03-13 21:33:49 +0000";
layers = (
{
layerId = "B8E4E6F7-CD69-4587-8CB0-DED49904045E";
paths = (
{
closed = 1;
nodes = (
"401 116 LINE",
"297 116 OFFCURVE",
"220 181 OFFCURVE",
"220 281 CURVE SMOOTH",
"220 379.667 OFFCURVE",
"269.833 443.667 OFFCURVE",
"378.5 473 CURVE SMOOTH",
"432.833 487.667 OFFCURVE",
"523 495 OFFCURVE",
"649 495 CURVE",
"676 636 LINE",
"457.333 636 OFFCURVE",
"348 689.333 OFFCURVE",
"348 796 CURVE SMOOTH",
"348 898.667 OFFCURVE",
"430 965 OFFCURVE",
"562 965 CURVE SMOOTH",
"662 965 OFFCURVE",
"734.333 930 OFFCURVE",
"789 846 CURVE",
"924 930 LINE",
"854.667 1047.333 OFFCURVE",
"745 1101 OFFCURVE",
"565 1101 CURVE SMOOTH",
"311.667 1101 OFFCURVE",
"167 992.667 OFFCURVE",
"167 806 CURVE SMOOTH",
"167 699.333 OFFCURVE",
"238.667 614.333 OFFCURVE",
"356 581 CURVE",
"355 579 LINE",
"163 560.333 OFFCURVE",
"34 442 OFFCURVE",
"34 278 CURVE SMOOTH",
"34 96.667 OFFCURVE",
"169 -20 OFFCURVE",
"389 -20 CURVE SMOOTH",
"571.667 -20 OFFCURVE",
"700.667 33.667 OFFCURVE",
"826 159 CURVE",
"738 264 LINE",
"644.667 173.333 OFFCURVE",
"542.333 116 OFFCURVE",
"401 116 CURVE"
);
}
);
width = 900;
}
);
note = epsilon;
unicode = 03B5;
},
{
glyphname = sigma;
lastChange = "2020-03-13 21:33:49 +0000";
layers = (
{
layerId = "B8E4E6F7-CD69-4587-8CB0-DED49904045E";
paths = (
{
closed = 1;
nodes = (
"490 -20 LINE",
"723.333 -20 OFFCURVE",
"899.5 91.5 OFFCURVE",
"989.5 289.5 CURVE SMOOTH",
"1034.5 388.5 OFFCURVE",
"1057 502.667 OFFCURVE",
"1057 632 CURVE SMOOTH",
"1057 739.333 OFFCURVE",
"1031.667 846.333 OFFCURVE",
"981 953 CURVE",
"982 957 LINE",
"1128 951 LINE",
"1273 951 LINE",
"1299 1082 LINE",
"747 1082 LINE SMOOTH",
"453.667 1082 OFFCURVE",
"251.167 970.667 OFFCURVE",
"146.5 764 CURVE SMOOTH",
"94.167 660.667 OFFCURVE",
"68 543 OFFCURVE",
"68 411 CURVE SMOOTH",
"68 137.667 OFFCURVE",
"224.667 -20 OFFCURVE",
"490 -20 CURVE"
);
},
{
closed = 1;
nodes = (
"500 113 LINE",
"342.667 113 OFFCURVE",
"256 223.667 OFFCURVE",
"256 409 CURVE SMOOTH",
"256 545 OFFCURVE",
"293.5 696.5 OFFCURVE",
"379.5 798.5 CURVE SMOOTH",
"465.5 900.5 OFFCURVE",
"588.667 951 OFFCURVE",
"750 951 CURVE SMOOTH",
"833 951 LINE",
"859 863 OFFCURVE",
"872 773 OFFCURVE",
"872 681 CURVE SMOOTH",
"872 302.333 OFFCURVE",
"748 113 OFFCURVE",
"500 113 CURVE"
);
}
);
width = 1235;
}
);
note = sigma;
unicode = 03C3;
},
{
glyphname = tau;
lastChange = "2020-03-13 21:33:49 +0000";
layers = (
{
layerId = "B8E4E6F7-CD69-4587-8CB0-DED49904045E";
paths = (
{
closed = 1;
nodes = (
"334 951 LINE",
"361 951 LINE",
"229 271 LINE SMOOTH",
"222.333 241 OFFCURVE",
"219 208.333 OFFCURVE",
"219 173 CURVE SMOOTH",
"219 44.333 OFFCURVE",
"279 -20 OFFCURVE",
"399 -20 CURVE SMOOTH",
"446.333 -20 OFFCURVE",
"497.667 -12.667 OFFCURVE",
"553 2 CURVE",
"568 136 LINE",
"528 126 OFFCURVE",
"496.333 121 OFFCURVE",
"473 121 CURVE SMOOTH",
"425 121 OFFCURVE",
"401 148.333 OFFCURVE",
"401 203 CURVE SMOOTH",
"401 221.667 OFFCURVE",
"403.333 242.667 OFFCURVE",
"408 266 CURVE SMOOTH",
"541 951 LINE",
"845 951 LINE",
"871 1082 LINE",
"291 1082 LINE SMOOTH",
"217.667 1082 OFFCURVE",
"138 1069 OFFCURVE",
"102 1053 CURVE",
"75 914 LINE",
"112.333 932.667 OFFCURVE",
"226 951 OFFCURVE",
"334 951 CURVE"
);
}
);
width = 766;
}
);
note = tau;
unicode = 03C4;
},
{
glyphname = phi;
lastChange = "2020-03-13 21:33:49 +0000";
layers = (
{
layerId = "B8E4E6F7-CD69-4587-8CB0-DED49904045E";
paths = (
{
closed = 1;
nodes = (
"977 1104 LINE",
"773 1104 OFFCURVE",
"663.333 989.667 OFFCURVE",
"606 699 CURVE SMOOTH",
"494 119 LINE",
"336.667 128.333 OFFCURVE",
"259 239 OFFCURVE",
"259 423 CURVE SMOOTH",
"259 588.333 OFFCURVE",
"311.833 772.333 OFFCURVE",
"416.5 871 CURVE SMOOTH",
"468.833 920.333 OFFCURVE",
"534.667 954.333 OFFCURVE",
"614 973 CURVE",
"586 1106 LINE",
"268.667 1058 OFFCURVE",
"71 796.667 OFFCURVE",
"71 434 CURVE SMOOTH",
"71 159.333 OFFCURVE",
"219 -7.333 OFFCURVE",
"467 -18 CURVE",
"388 -425 LINE",
"558 -425 LINE",
"637 -18 LINE",
"853 -11.333 OFFCURVE",
"1004.667 54.833 OFFCURVE",
"1110 191.5 CURVE SMOOTH",
"1215.333 328.167 OFFCURVE",
"1270 541 OFFCURVE",
"1270 729 CURVE SMOOTH",
"1270 967.667 OFFCURVE",
"1161 1104 OFFCURVE",
"977 1104 CURVE"
);
},
{
closed = 1;
nodes = (
"967 971 LINE",
"1047 971 OFFCURVE",
"1087 900 OFFCURVE",
"1087 758 CURVE SMOOTH",
"1087 620.667 OFFCURVE",
"1047.167 413.333 OFFCURVE",
"978.5 296 CURVE SMOOTH",
"909.833 178.667 OFFCURVE",
"812 123 OFFCURVE",
"664 119 CURVE",
"777 702 LINE SMOOTH",
"811.667 887.333 OFFCURVE",
"869.667 971 OFFCURVE",
"967 971 CURVE"
);
}
);
width = 1336;
}
);
note = phi;
unicode = 03C6;
},
{
glyphname = nsuperior;
lastChange = "2020-03-13 21:33:49 +0000";
layers = (
{
layerId = "B8E4E6F7-CD69-4587-8CB0-DED49904045E";
paths = (
{
closed = 1;
nodes = (
"501 519 LINE",
"630 519 LINE",
"705 902 LINE SMOOTH",
"712.333 943.333 OFFCURVE",
"716 976 OFFCURVE",
"716 1000 CURVE SMOOTH",
"716 1122.667 OFFCURVE",
"650 1181 OFFCURVE",
"542 1181 CURVE SMOOTH",
"452.667 1181 OFFCURVE",
"393.333 1155.333 OFFCURVE",
"320 1058 CURVE",
"318 1058 LINE",
"334 1169 LINE",
"215 1169 LINE",
"192 1030 LINE",
"92 519 LINE",
"220 519 LINE",
"291 883 LINE SMOOTH",
"315 1008.333 OFFCURVE",
"390 1077 OFFCURVE",
"486 1077 CURVE SMOOTH",
"552 1077 OFFCURVE",
"585 1045 OFFCURVE",
"585 981 CURVE SMOOTH",
"585 956.333 OFFCURVE",
"581.333 927 OFFCURVE",
"574 893 CURVE SMOOTH",
"501 519 LINE"
);
}
);
width = 747;
}
);
note = nsuperior;
unicode = 207F;
},
{
glyphname = peseta;
lastChange = "2020-03-13 21:33:49 +0000";
layers = (
{
layerId = "B8E4E6F7-CD69-4587-8CB0-DED49904045E";
paths = (
{
closed = 1;
nodes = (
"871 1011 LINE",
"871 803.667 OFFCURVE",
"743.667 700 OFFCURVE",
"489 700 CURVE SMOOTH",
"395 700 LINE",
"503 1256 LINE",
"559 1256 LINE SMOOTH",
"764.333 1256 OFFCURVE",
"871 1169.667 OFFCURVE",
"871 1011 CURVE"
);
},
{
closed = 1;
nodes = (
"1321 813 LINE",
"1368 1055 LINE",
"1258 1055 LINE",
"1158 813 LINE",
"1047 813 LINE",
"1021 682 LINE",
"1125 682 LINE",
"1046 272 LINE SMOOTH",
"1039.333 237.333 OFFCURVE",
"1036 202.667 OFFCURVE",
"1036 168 CURVE SMOOTH",
"1036 53.333 OFFCURVE",
"1103 -16 OFFCURVE",
"1211 -16 CURVE SMOOTH",
"1264.333 -16 OFFCURVE",
"1312 -9 OFFCURVE",
"1354 5 CURVE",
"1373 131 LINE",
"1331 121.667 OFFCURVE",
"1300.333 117 OFFCURVE",
"1281 117 CURVE SMOOTH",
"1233 117 OFFCURVE",
"1209 144.333 OFFCURVE",
"1209 199 CURVE SMOOTH",
"1209 227.667 OFFCURVE",
"1212.333 257.333 OFFCURVE",
"1219 288 CURVE SMOOTH",
"1295 682 LINE",
"1452 682 LINE",
"1478 813 LINE",
"1321 813 LINE"
);
},
{
closed = 1;
nodes = (
"1857 824 LINE",
"1630.333 824 OFFCURVE",
"1507 735.333 OFFCURVE",
"1507 578 CURVE SMOOTH",
"1507 470 OFFCURVE",
"1583 396.667 OFFCURVE",
"1735 358 CURVE SMOOTH",
"1839.047 330.318 OFFCURVE",
"1904.682 311.313 OFFCURVE",
"1930.5 278 CURVE SMOOTH",
"1940.833 264.667 OFFCURVE",
"1946 248.333 OFFCURVE",
"1946 229 CURVE SMOOTH",
"1946 151.667 OFFCURVE",
"1880.667 117 OFFCURVE",
"1742 117 CURVE SMOOTH",
"1624.667 117 OFFCURVE",
"1572.333 153.333 OFFCURVE",
"1547 232 CURVE",
"1394 180 LINE",
"1438 34.667 OFFCURVE",
"1540.333 -20 OFFCURVE",
"1735 -20 CURVE SMOOTH",
"1981.667 -20 OFFCURVE",
"2120 72.667 OFFCURVE",
"2120 246 CURVE SMOOTH",
"2120 364.667 OFFCURVE",
"2047.333 439 OFFCURVE",
"1882 479 CURVE SMOOTH",
"1805.333 497 OFFCURVE",
"1753.667 514.333 OFFCURVE",
"1727 531 CURVE SMOOTH",
"1700.333 547.667 OFFCURVE",
"1687 570.667 OFFCURVE",
"1687 600 CURVE SMOOTH",
"1687 657.333 OFFCURVE",
"1741 686 OFFCURVE",
"1849 686 CURVE SMOOTH",
"1949 686 OFFCURVE",
"2001.333 642 OFFCURVE",
"2016 586 CURVE",
"2176 611 LINE",
"2149.333 739 OFFCURVE",
"2045 824 OFFCURVE",
"1857 824 CURVE"
);
},
{
closed = 1;
nodes = (
"1065 1020 LINE",
"1065 1261.333 OFFCURVE",
"872 1409 OFFCURVE",
"564 1409 CURVE SMOOTH",
"351 1409 LINE",
"78 0 LINE",
"259 0 LINE",
"365 549 LINE",
"495 549 LINE SMOOTH",
"848.333 549 OFFCURVE",
"1065 726.667 OFFCURVE",
"1065 1020 CURVE"
);
}
);
width = 2240;
}
);
note = peseta;
unicode = 20A7;
},
{
glyphname = arrowleft;
lastChange = "2020-03-13 21:33:49 +0000";
layers = (
{
layerId = "B8E4E6F7-CD69-4587-8CB0-DED49904045E";
paths = (
{
closed = 1;
nodes = (
"641 497 LINE",
"1630 497 LINE",
"1630 583 LINE",
"641 583 LINE",
"679 627.667 OFFCURVE",
"718.667 693.333 OFFCURVE",
"760 780 CURVE",
"688 780 LINE",
"603.333 680.667 OFFCURVE",
"513.333 606.667 OFFCURVE",
"418 558 CURVE",
"418 522 LINE",
"513.333 473.333 OFFCURVE",
"603.333 399.333 OFFCURVE",
"688 300 CURVE",
"760 300 LINE",
"718.667 386.667 OFFCURVE",
"679 452.333 OFFCURVE",
"641 497 CURVE"
);
}
);
width = 2048;
}
);
note = arrowleft;
unicode = 2190;
},
{
glyphname = arrowup;
lastChange = "2020-03-13 21:33:49 +0000";
layers = (
{
layerId = "B8E4E6F7-CD69-4587-8CB0-DED49904045E";
paths = (
{
closed = 1;
nodes = (
"469 928 LINE",
"469 -61 LINE",
"555 -61 LINE",
"555 928 LINE",
"599.667 890 OFFCURVE",
"665.333 850.333 OFFCURVE",
"752 809 CURVE",
"752 881 LINE",
"652.667 965.667 OFFCURVE",
"578.667 1055.667 OFFCURVE",
"530 1151 CURVE",
"494 1151 LINE",
"445.333 1055.667 OFFCURVE",
"371.333 965.667 OFFCURVE",
"272 881 CURVE",
"272 809 LINE",
"358.667 850.333 OFFCURVE",
"424.333 890 OFFCURVE",
"469 928 CURVE"
);
}
);
width = 1024;
}
);
note = arrowup;
unicode = 2191;
},
{
glyphname = arrowright;
lastChange = "2020-03-13 21:33:49 +0000";
layers = (
{
layerId = "B8E4E6F7-CD69-4587-8CB0-DED49904045E";
paths = (
{
closed = 1;
nodes = (
"1407 583 LINE",
"418 583 LINE",
"418 497 LINE",
"1407 497 LINE",
"1369 452.333 OFFCURVE",
"1329.333 386.667 OFFCURVE",
"1288 300 CURVE",
"1360 300 LINE",
"1444.667 399.333 OFFCURVE",
"1534.667 473.333 OFFCURVE",
"1630 522 CURVE",
"1630 558 LINE",
"1534.667 606.667 OFFCURVE",
"1444.667 680.667 OFFCURVE",
"1360 780 CURVE",
"1288 780 LINE",
"1329.333 693.333 OFFCURVE",
"1369 627.667 OFFCURVE",
"1407 583 CURVE"
);
}
);
width = 2048;
}
);
note = arrowright;
unicode = 2192;
},
{
glyphname = arrowdown;
lastChange = "2020-03-13 21:33:49 +0000";
layers = (
{
layerId = "B8E4E6F7-CD69-4587-8CB0-DED49904045E";
paths = (
{
closed = 1;
nodes = (
"555 162 LINE",
"555 1151 LINE",
"469 1151 LINE",
"469 162 LINE",
"424.333 200 OFFCURVE",
"358.667 239.667 OFFCURVE",
"272 281 CURVE",
"272 209 LINE",
"371.333 124.333 OFFCURVE",
"445.333 34.333 OFFCURVE",
"494 -61 CURVE",
"530 -61 LINE",
"578.667 34.333 OFFCURVE",
"652.667 124.333 OFFCURVE",
"752 209 CURVE",
"752 281 LINE",
"665.333 239.667 OFFCURVE",
"599.667 200 OFFCURVE",
"555 162 CURVE"
);
}
);
width = 1024;
}
);
note = arrowdown;
unicode = 2193;
},
{
glyphname = arrowboth;
lastChange = "2020-03-13 21:33:49 +0000";
layers = (
{
layerId = "B8E4E6F7-CD69-4587-8CB0-DED49904045E";
paths = (
{
closed = 1;
nodes = (
"641 497 LINE",
"1407 497 LINE",
"1369 452.333 OFFCURVE",
"1329.333 386.667 OFFCURVE",
"1288 300 CURVE",
"1360 300 LINE",
"1444.667 399.333 OFFCURVE",
"1534.667 473.333 OFFCURVE",
"1630 522 CURVE",
"1630 558 LINE",
"1534.667 606.667 OFFCURVE",
"1444.667 680.667 OFFCURVE",
"1360 780 CURVE",
"1288 780 LINE",
"1329.333 693.333 OFFCURVE",
"1369 627.667 OFFCURVE",
"1407 583 CURVE",
"641 583 LINE",
"679 627.667 OFFCURVE",
"718.667 693.333 OFFCURVE",
"760 780 CURVE",
"688 780 LINE",
"603.333 680.667 OFFCURVE",
"513.333 606.667 OFFCURVE",
"418 558 CURVE",
"418 522 LINE",
"513.333 473.333 OFFCURVE",
"603.333 399.333 OFFCURVE",
"688 300 CURVE",
"760 300 LINE",
"718.667 386.667 OFFCURVE",
"679 452.333 OFFCURVE",
"641 497 CURVE"
);
}
);
width = 2048;
}
);
note = arrowboth;
unicode = 2194;
},
{
glyphname = arrowupdn;
lastChange = "2020-03-13 21:33:49 +0000";
layers = (
{
layerId = "B8E4E6F7-CD69-4587-8CB0-DED49904045E";
paths = (
{
closed = 1;
nodes = (
"469 928 LINE",
"469 162 LINE",
"424.333 200 OFFCURVE",
"358.667 239.667 OFFCURVE",
"272 281 CURVE",
"272 209 LINE",
"371.333 124.333 OFFCURVE",
"445.333 34.333 OFFCURVE",
"494 -61 CURVE",
"530 -61 LINE",
"578.667 34.333 OFFCURVE",
"652.667 124.333 OFFCURVE",
"752 209 CURVE",
"752 281 LINE",
"665.333 239.667 OFFCURVE",
"599.667 200 OFFCURVE",
"555 162 CURVE",
"555 928 LINE",
"599.667 890 OFFCURVE",
"665.333 850.333 OFFCURVE",
"752 809 CURVE",
"752 881 LINE",
"652.667 965.667 OFFCURVE",
"578.667 1055.667 OFFCURVE",
"530 1151 CURVE",
"494 1151 LINE",
"445.333 1055.667 OFFCURVE",
"371.333 965.667 OFFCURVE",
"272 881 CURVE",
"272 809 LINE",
"358.667 850.333 OFFCURVE",
"424.333 890 OFFCURVE",
"469 928 CURVE"
);
}
);
width = 1024;
}
);
note = arrowupdn;
unicode = 2195;
},
{
glyphname = arrowupdnbse;
lastChange = "2020-03-13 21:33:49 +0000";
layers = (
{
layerId = "B8E4E6F7-CD69-4587-8CB0-DED49904045E";
paths = (
{
closed = 1;
nodes = (
"272 -104 LINE",
"272 -184 LINE",
"752 -184 LINE",
"752 -104 LINE",
"272 -104 LINE"
);
},
{
closed = 1;
nodes = (
"469 928 LINE",
"469 162 LINE",
"424.333 200 OFFCURVE",
"358.667 239.667 OFFCURVE",
"272 281 CURVE",
"272 209 LINE",
"371.333 124.333 OFFCURVE",
"445.333 34.333 OFFCURVE",
"494 -61 CURVE",
"530 -61 LINE",
"578.667 34.333 OFFCURVE",
"652.667 124.333 OFFCURVE",
"752 209 CURVE",
"752 281 LINE",
"665.333 239.667 OFFCURVE",
"599.667 200 OFFCURVE",
"555 162 CURVE",
"555 928 LINE",
"599.667 890 OFFCURVE",
"665.333 850.333 OFFCURVE",
"752 809 CURVE",
"752 881 LINE",
"652.667 965.667 OFFCURVE",
"578.667 1055.667 OFFCURVE",
"530 1151 CURVE",
"494 1151 LINE",
"445.333 1055.667 OFFCURVE",
"371.333 965.667 OFFCURVE",
"272 881 CURVE",
"272 809 LINE",
"358.667 850.333 OFFCURVE",
"424.333 890 OFFCURVE",
"469 928 CURVE"
);
}
);
width = 1024;
}
);
note = arrowupdnbse;
unicode = 21A8;
},
{
glyphname = orthogonal;
lastChange = "2020-03-13 21:33:49 +0000";
layers = (
{
layerId = "B8E4E6F7-CD69-4587-8CB0-DED49904045E";
paths = (
{
closed = 1;
nodes = (
"408 1223 LINE",
"408 0 LINE",
"1632 0 LINE",
"1632 94 LINE",
"502 94 LINE",
"502 1223 LINE",
"408 1223 LINE"
);
}
);
width = 2005;
}
);
note = orthogonal;
unicode = 221F;
},
{
glyphname = intersection;
lastChange = "2020-03-13 21:33:49 +0000";
layers = (
{
layerId = "B8E4E6F7-CD69-4587-8CB0-DED49904045E";
paths = (
{
closed = 1;
nodes = (
"278 -2 LINE",
"381 -2 LINE",
"381 510 LINE SMOOTH",
"381 768.667 OFFCURVE",
"519 930 OFFCURVE",
"735 930 CURVE SMOOTH",
"948.333 930 OFFCURVE",
"1091 765.333 OFFCURVE",
"1091 512 CURVE SMOOTH",
"1091 -2 LINE",
"1194 -2 LINE",
"1194 510 LINE SMOOTH",
"1194 707.333 OFFCURVE",
"1110.167 878 OFFCURVE",
"969.5 966 CURVE SMOOTH",
"899.167 1010 OFFCURVE",
"820.333 1032 OFFCURVE",
"733 1032 CURVE SMOOTH",
"559.667 1032 OFFCURVE",
"413.333 938.833 OFFCURVE",
"336 779.5 CURVE SMOOTH",
"297.333 699.833 OFFCURVE",
"278 610 OFFCURVE",
"278 510 CURVE SMOOTH",
"278 -2 LINE"
);
}
);
width = 1472;
}
);
note = intersection;
unicode = 2229;
},
{
glyphname = equivalence;
lastChange = "2020-03-13 21:33:49 +0000";
layers = (
{
layerId = "B8E4E6F7-CD69-4587-8CB0-DED49904045E";
paths = (
{
closed = 1;
nodes = (
"100 956 LINE",
"1095 956 LINE",
"1095 1104 LINE",
"100 1104 LINE",
"100 956 LINE"
);
},
{
closed = 1;
nodes = (
"100 244 LINE",
"1095 244 LINE",
"1095 392 LINE",
"100 392 LINE",
"100 244 LINE"
);
},
{
closed = 1;
nodes = (
"100 600 LINE",
"1095 600 LINE",
"1095 748 LINE",
"100 748 LINE",
"100 600 LINE"
);
}
);
width = 1196;
}
);
note = equivalence;
unicode = 2261;
},
{
glyphname = house;
lastChange = "2020-03-13 21:33:49 +0000";
layers = (
{
layerId = "B8E4E6F7-CD69-4587-8CB0-DED49904045E";
paths = (
{
closed = 1;
nodes = (
"157 0 LINE",
"1079 0 LINE",
"1079 635 LINE",
"618 1153 LINE",
"157 635 LINE",
"157 0 LINE"
);
},
{
closed = 1;
nodes = (
"237 82 LINE",
"237 600 LINE",
"618 1026 LINE",
"999 600 LINE",
"999 82 LINE",
"237 82 LINE"
);
}
);
width = 1237;
}
);
note = house;
unicode = 2302;
},
{
glyphname = revlogicalnot;
lastChange = "2020-03-13 21:33:49 +0000";
layers = (
{
layerId = "B8E4E6F7-CD69-4587-8CB0-DED49904045E";
paths = (
{
closed = 1;
nodes = (
"100 180 LINE",
"245 180 LINE",
"245 608 LINE",
"1095 608 LINE",
"1095 754 LINE",
"100 754 LINE",
"100 180 LINE"
);
}
);
width = 1196;
}
);
note = revlogicalnot;
unicode = 2310;
},
{
glyphname = integraltp;
lastChange = "2020-03-13 21:33:49 +0000";
layers = (
{
layerId = "B8E4E6F7-CD69-4587-8CB0-DED49904045E";
paths = (
{
closed = 1;
nodes = (
"693 -614 LINE",
"693 1423 LINE SMOOTH",
"693 1493 OFFCURVE",
"695 1539.667 OFFCURVE",
"699 1563 CURVE SMOOTH",
"705 1589 OFFCURVE",
"720 1602 OFFCURVE",
"744 1602 CURVE SMOOTH",
"754.667 1602 OFFCURVE",
"771 1589 OFFCURVE",
"793 1563 CURVE SMOOTH",
"818.333 1535 OFFCURVE",
"836.333 1518.333 OFFCURVE",
"847 1513 CURVE",
"855.667 1506.333 OFFCURVE",
"870 1503 OFFCURVE",
"890 1503 CURVE SMOOTH",
"939.333 1503 OFFCURVE",
"978 1541.667 OFFCURVE",
"978 1595 CURVE SMOOTH",
"978 1659 OFFCURVE",
"924 1706 OFFCURVE",
"840 1706 CURVE SMOOTH",
"672 1706 OFFCURVE",
"546 1525.333 OFFCURVE",
"546 1264 CURVE SMOOTH",
"546 -614 LINE",
"693 -614 LINE"
);
}
);
width = 1237;
}
);
note = integraltp;
unicode = 2320;
},
{
glyphname = integralbt;
lastChange = "2020-03-13 21:33:49 +0000";
layers = (
{
layerId = "B8E4E6F7-CD69-4587-8CB0-DED49904045E";
paths = (
{
closed = 1;
nodes = (
"546 1706 LINE",
"546 -334 LINE SMOOTH",
"546 -418.667 OFFCURVE",
"542.167 -469.5 OFFCURVE",
"534.5 -486.5 CURVE SMOOTH",
"526.833 -503.5 OFFCURVE",
"513.333 -512 OFFCURVE",
"494 -512 CURVE SMOOTH",
"483.333 -512 OFFCURVE",
"467.667 -499.667 OFFCURVE",
"447 -475 CURVE SMOOTH",
"426.333 -447.667 OFFCURVE",
"412.667 -432.667 OFFCURVE",
"406 -430 CURVE",
"388.667 -419.333 OFFCURVE",
"369 -414 OFFCURVE",
"347 -414 CURVE SMOOTH",
"299 -414 OFFCURVE",
"261 -454 OFFCURVE",
"261 -506 CURVE SMOOTH",
"261 -568.667 OFFCURVE",
"319.333 -614 OFFCURVE",
"398 -614 CURVE SMOOTH",
"574 -614 OFFCURVE",
"693 -434 OFFCURVE",
"693 -174 CURVE SMOOTH",
"693 1706 LINE",
"546 1706 LINE"
);
}
);
width = 1237;
}
);
note = integralbt;
unicode = 2321;
},
{
glyphname = uni2500;
lastChange = "2020-03-13 21:33:49 +0000";
layers = (
{
layerId = "B8E4E6F7-CD69-4587-8CB0-DED49904045E";
paths = (
{
closed = 1;
nodes = (
"-10 549 LINE",
"1461 549 LINE",
"1461 694 LINE",
"-10 694 LINE",
"-10 549 LINE"
);
}
);
width = 1451;
}
);
note = uni2500;
unicode = 2500;
},
{
glyphname = uni2502;
lastChange = "2020-03-13 21:33:49 +0000";
layers = (
{
layerId = "B8E4E6F7-CD69-4587-8CB0-DED49904045E";
paths = (
{
closed = 1;
nodes = (
"472 1864 LINE",
"472 -621 LINE",
"617 -621 LINE",
"617 1864 LINE",
"472 1864 LINE"
);
}
);
width = 1280;
}
);
note = uni2502;
unicode = 2502;
},
{
glyphname = uni250C;
lastChange = "2020-03-13 21:33:49 +0000";
layers = (
{
layerId = "B8E4E6F7-CD69-4587-8CB0-DED49904045E";
paths = (
{
closed = 1;
nodes = (
"653 694 LINE",
"653 -621 LINE",
"798 -621 LINE",
"798 549 LINE",
"1461 549 LINE",
"1461 694 LINE",
"653 694 LINE"
);
}
);
width = 1451;
}
);
note = uni250C;
unicode = 250C;
},
{
glyphname = uni2510;
lastChange = "2020-03-13 21:33:49 +0000";
layers = (
{
layerId = "B8E4E6F7-CD69-4587-8CB0-DED49904045E";
paths = (
{
closed = 1;
nodes = (
"-10 549 LINE",
"653 549 LINE",
"653 -621 LINE",
"798 -621 LINE",
"798 694 LINE",
"-10 694 LINE",
"-10 549 LINE"
);
}
);
width = 1451;
}
);
note = uni2510;
unicode = 2510;
},
{
glyphname = uni2514;
lastChange = "2020-03-13 21:33:49 +0000";
layers = (
{
layerId = "B8E4E6F7-CD69-4587-8CB0-DED49904045E";
paths = (
{
closed = 1;
nodes = (
"653 1864 LINE",
"653 549 LINE",
"1461 549 LINE",
"1461 694 LINE",
"798 694 LINE",
"798 1864 LINE",
"653 1864 LINE"
);
}
);
width = 1451;
}
);
note = uni2514;
unicode = 2514;
},
{
glyphname = uni2518;
lastChange = "2020-03-13 21:33:49 +0000";
layers = (
{
layerId = "B8E4E6F7-CD69-4587-8CB0-DED49904045E";
paths = (
{
closed = 1;
nodes = (
"-10 549 LINE",
"798 549 LINE",
"798 1864 LINE",
"653 1864 LINE",
"653 694 LINE",
"-10 694 LINE",
"-10 549 LINE"
);
}
);
width = 1451;
}
);
note = uni2518;
unicode = 2518;
},
{
glyphname = uni251C;
lastChange = "2020-03-13 21:33:49 +0000";
layers = (
{
layerId = "B8E4E6F7-CD69-4587-8CB0-DED49904045E";
paths = (
{
closed = 1;
nodes = (
"653 1864 LINE",
"653 -621 LINE",
"798 -621 LINE",
"798 549 LINE",
"1461 549 LINE",
"1461 694 LINE",
"798 694 LINE",
"798 1864 LINE",
"653 1864 LINE"
);
}
);
width = 1451;
}
);
note = uni251C;
unicode = 251C;
},
{
glyphname = uni2524;
lastChange = "2020-03-13 21:33:49 +0000";
layers = (
{
layerId = "B8E4E6F7-CD69-4587-8CB0-DED49904045E";
paths = (
{
closed = 1;
nodes = (
"-10 549 LINE",
"653 549 LINE",
"653 -621 LINE",
"798 -621 LINE",
"798 1864 LINE",
"653 1864 LINE",
"653 694 LINE",
"-10 694 LINE",
"-10 549 LINE"
);
}
);
width = 1451;
}
);
note = uni2524;
unicode = 2524;
},
{
glyphname = uni252C;
lastChange = "2020-03-13 21:33:49 +0000";
layers = (
{
layerId = "B8E4E6F7-CD69-4587-8CB0-DED49904045E";
paths = (
{
closed = 1;
nodes = (
"-10 549 LINE",
"653 549 LINE",
"653 -621 LINE",
"798 -621 LINE",
"798 549 LINE",
"1461 549 LINE",
"1461 694 LINE",
"-10 694 LINE",
"-10 549 LINE"
);
}
);
width = 1451;
}
);
note = uni252C;
unicode = 252C;
},
{
glyphname = uni2534;
lastChange = "2020-03-13 21:33:49 +0000";
layers = (
{
layerId = "B8E4E6F7-CD69-4587-8CB0-DED49904045E";
paths = (
{
closed = 1;
nodes = (
"-10 549 LINE",
"1461 549 LINE",
"1461 694 LINE",
"798 694 LINE",
"798 1864 LINE",
"653 1864 LINE",
"653 694 LINE",
"-10 694 LINE",
"-10 549 LINE"
);
}
);
width = 1451;
}
);
note = uni2534;
unicode = 2534;
},
{
glyphname = uni253C;
lastChange = "2020-03-13 21:33:49 +0000";
layers = (
{
layerId = "B8E4E6F7-CD69-4587-8CB0-DED49904045E";
paths = (
{
closed = 1;
nodes = (
"-10 549 LINE",
"653 549 LINE",
"653 -621 LINE",
"798 -621 LINE",
"798 549 LINE",
"1461 549 LINE",
"1461 694 LINE",
"798 694 LINE",
"798 1864 LINE",
"653 1864 LINE",
"653 694 LINE",
"-10 694 LINE",
"-10 549 LINE"
);
}
);
width = 1451;
}
);
note = uni253C;
unicode = 253C;
},
{
glyphname = uni2550;
lastChange = "2020-03-13 21:33:49 +0000";
layers = (
{
layerId = "B8E4E6F7-CD69-4587-8CB0-DED49904045E";
paths = (
{
closed = 1;
nodes = (
"-10 729 LINE",
"1461 729 LINE",
"1461 874 LINE",
"-10 874 LINE",
"-10 729 LINE"
);
},
{
closed = 1;
nodes = (
"-10 369 LINE",
"1461 369 LINE",
"1461 514 LINE",
"-10 514 LINE",
"-10 369 LINE"
);
}
);
width = 1451;
}
);
note = uni2550;
unicode = 2550;
},
{
glyphname = uni2551;
lastChange = "2020-03-13 21:33:49 +0000";
layers = (
{
layerId = "B8E4E6F7-CD69-4587-8CB0-DED49904045E";
paths = (
{
closed = 1;
nodes = (
"473 1864 LINE",
"473 -621 LINE",
"618 -621 LINE",
"618 1864 LINE",
"473 1864 LINE"
);
},
{
closed = 1;
nodes = (
"833 1864 LINE",
"833 -621 LINE",
"978 -621 LINE",
"978 1864 LINE",
"833 1864 LINE"
);
}
);
width = 1451;
}
);
note = uni2551;
unicode = 2551;
},
{
glyphname = uni2552;
lastChange = "2020-03-13 21:33:49 +0000";
layers = (
{
layerId = "B8E4E6F7-CD69-4587-8CB0-DED49904045E";
paths = (
{
closed = 1;
nodes = (
"653 874 LINE",
"653 -621 LINE",
"798 -621 LINE",
"798 369 LINE",
"1461 369 LINE",
"1461 514 LINE",
"798 514 LINE",
"798 729 LINE",
"1461 729 LINE",
"1461 874 LINE",
"653 874 LINE"
);
}
);
width = 1451;
}
);
note = uni2552;
unicode = 2552;
},
{
glyphname = uni2553;
lastChange = "2020-03-13 21:33:49 +0000";
layers = (
{
layerId = "B8E4E6F7-CD69-4587-8CB0-DED49904045E";
paths = (
{
closed = 1;
nodes = (
"1461 694 LINE",
"473 694 LINE",
"473 -621 LINE",
"618 -621 LINE",
"618 549 LINE",
"833 549 LINE",
"833 -621 LINE",
"978 -621 LINE",
"978 549 LINE",
"1461 549 LINE",
"1461 694 LINE"
);
}
);
width = 1451;
}
);
note = uni2553;
unicode = 2553;
},
{
glyphname = uni2554;
lastChange = "2020-03-13 21:33:49 +0000";
layers = (
{
layerId = "B8E4E6F7-CD69-4587-8CB0-DED49904045E";
paths = (
{
closed = 1;
nodes = (
"473 874 LINE",
"473 -621 LINE",
"618 -621 LINE",
"618 729 LINE",
"1461 729 LINE",
"1461 874 LINE",
"473 874 LINE"
);
},
{
closed = 1;
nodes = (
"833 514 LINE",
"833 -621 LINE",
"978 -621 LINE",
"978 369 LINE",
"1461 369 LINE",
"1461 514 LINE",
"833 514 LINE"
);
}
);
width = 1451;
}
);
note = uni2554;
unicode = 2554;
},
{
glyphname = uni2555;
lastChange = "2020-03-13 21:33:49 +0000";
layers = (
{
layerId = "B8E4E6F7-CD69-4587-8CB0-DED49904045E";
paths = (
{
closed = 1;
nodes = (
"-10 369 LINE",
"653 369 LINE",
"653 -621 LINE",
"798 -621 LINE",
"798 874 LINE",
"-10 874 LINE",
"-10 729 LINE",
"653 729 LINE",
"653 514 LINE",
"-10 514 LINE",
"-10 369 LINE"
);
}
);
width = 1451;
}
);
note = uni2555;
unicode = 2555;
},
{
glyphname = uni2556;
lastChange = "2020-03-13 21:33:49 +0000";
layers = (
{
layerId = "B8E4E6F7-CD69-4587-8CB0-DED49904045E";
paths = (
{
closed = 1;
nodes = (
"-10 549 LINE",
"473 549 LINE",
"473 -621 LINE",
"618 -621 LINE",
"618 549 LINE",
"833 549 LINE",
"833 -621 LINE",
"978 -621 LINE",
"978 694 LINE",
"-10 694 LINE",
"-10 549 LINE"
);
}
);
width = 1451;
}
);
note = uni2556;
unicode = 2556;
},
{
glyphname = uni2557;
lastChange = "2020-03-13 21:33:49 +0000";
layers = (
{
layerId = "B8E4E6F7-CD69-4587-8CB0-DED49904045E";
paths = (
{
closed = 1;
nodes = (
"978 874 LINE",
"-10 874 LINE",
"-10 729 LINE",
"833 729 LINE",
"833 -621 LINE",
"978 -621 LINE",
"978 874 LINE"
);
},
{
closed = 1;
nodes = (
"618 -621 LINE",
"618 514 LINE",
"-10 514 LINE",
"-10 369 LINE",
"473 369 LINE",
"473 -621 LINE",
"618 -621 LINE"
);
}
);
width = 1451;
}
);
note = uni2557;
unicode = 2557;
},
{
glyphname = uni2558;
lastChange = "2020-03-13 21:33:49 +0000";
layers = (
{
layerId = "B8E4E6F7-CD69-4587-8CB0-DED49904045E";
paths = (
{
closed = 1;
nodes = (
"653 1864 LINE",
"653 369 LINE",
"1461 369 LINE",
"1461 514 LINE",
"798 514 LINE",
"798 729 LINE",
"1461 729 LINE",
"1461 874 LINE",
"798 874 LINE",
"798 1864 LINE",
"653 1864 LINE"
);
}
);
width = 1451;
}
);
note = uni2558;
unicode = 2558;
},
{
glyphname = uni2559;
lastChange = "2020-03-13 21:33:49 +0000";
layers = (
{
layerId = "B8E4E6F7-CD69-4587-8CB0-DED49904045E";
paths = (
{
closed = 1;
nodes = (
"833 1864 LINE",
"833 694 LINE",
"618 694 LINE",
"618 1864 LINE",
"473 1864 LINE",
"473 549 LINE",
"1461 549 LINE",
"1461 694 LINE",
"978 694 LINE",
"978 1864 LINE",
"833 1864 LINE"
);
}
);
width = 1451;
}
);
note = uni2559;
unicode = 2559;
},
{
glyphname = uni255A;
lastChange = "2020-03-13 21:33:49 +0000";
layers = (
{
layerId = "B8E4E6F7-CD69-4587-8CB0-DED49904045E";
paths = (
{
closed = 1;
nodes = (
"473 1864 LINE",
"473 369 LINE",
"1461 369 LINE",
"1461 514 LINE",
"618 514 LINE",
"618 1864 LINE",
"473 1864 LINE"
);
},
{
closed = 1;
nodes = (
"833 1864 LINE",
"833 729 LINE",
"1461 729 LINE",
"1461 874 LINE",
"978 874 LINE",
"978 1864 LINE",
"833 1864 LINE"
);
}
);
width = 1451;
}
);
note = uni255A;
unicode = 255A;
},
{
glyphname = uni255B;
lastChange = "2020-03-13 21:33:49 +0000";
layers = (
{
layerId = "B8E4E6F7-CD69-4587-8CB0-DED49904045E";
paths = (
{
closed = 1;
nodes = (
"-10 369 LINE",
"798 369 LINE",
"798 1864 LINE",
"653 1864 LINE",
"653 874 LINE",
"-10 874 LINE",
"-10 729 LINE",
"653 729 LINE",
"653 514 LINE",
"-10 514 LINE",
"-10 369 LINE"
);
}
);
width = 1451;
}
);
note = uni255B;
unicode = 255B;
},
{
glyphname = uni255C;
lastChange = "2020-03-13 21:33:49 +0000";
layers = (
{
layerId = "B8E4E6F7-CD69-4587-8CB0-DED49904045E";
paths = (
{
closed = 1;
nodes = (
"978 549 LINE",
"978 1864 LINE",
"833 1864 LINE",
"833 694 LINE",
"618 694 LINE",
"618 1864 LINE",
"473 1864 LINE",
"473 694 LINE",
"-10 694 LINE",
"-10 549 LINE",
"978 549 LINE"
);
}
);
width = 1451;
}
);
note = uni255C;
unicode = 255C;
},
{
glyphname = uni255D;
lastChange = "2020-03-13 21:33:49 +0000";
layers = (
{
layerId = "B8E4E6F7-CD69-4587-8CB0-DED49904045E";
paths = (
{
closed = 1;
nodes = (
"978 369 LINE",
"978 1864 LINE",
"833 1864 LINE",
"833 514 LINE",
"-10 514 LINE",
"-10 369 LINE",
"978 369 LINE"
);
},
{
closed = 1;
nodes = (
"473 1864 LINE",
"473 874 LINE",
"-10 874 LINE",
"-10 729 LINE",
"618 729 LINE",
"618 1864 LINE",
"473 1864 LINE"
);
}
);
width = 1451;
}
);
note = uni255D;
unicode = 255D;
},
{
glyphname = uni255E;
lastChange = "2020-03-13 21:33:49 +0000";
layers = (
{
layerId = "B8E4E6F7-CD69-4587-8CB0-DED49904045E";
paths = (
{
closed = 1;
nodes = (
"653 1864 LINE",
"653 -621 LINE",
"798 -621 LINE",
"798 369 LINE",
"1461 369 LINE",
"1461 514 LINE",
"798 514 LINE",
"798 729 LINE",
"1461 729 LINE",
"1461 874 LINE",
"798 874 LINE",
"798 1864 LINE",
"653 1864 LINE"
);
}
);
width = 1451;
}
);
note = uni255E;
unicode = 255E;
},
{
glyphname = uni255F;
lastChange = "2020-03-13 21:33:49 +0000";
layers = (
{
layerId = "B8E4E6F7-CD69-4587-8CB0-DED49904045E";
paths = (
{
closed = 1;
nodes = (
"833 1864 LINE",
"833 -621 LINE",
"978 -621 LINE",
"978 549 LINE",
"1461 549 LINE",
"1461 694 LINE",
"978 694 LINE",
"978 1864 LINE",
"833 1864 LINE"
);
},
{
closed = 1;
nodes = (
"473 1864 LINE",
"473 -621 LINE",
"618 -621 LINE",
"618 1864 LINE",
"473 1864 LINE"
);
}
);
width = 1451;
}
);
note = uni255F;
unicode = 255F;
},
{
glyphname = uni2560;
lastChange = "2020-03-13 21:33:49 +0000";
layers = (
{
layerId = "B8E4E6F7-CD69-4587-8CB0-DED49904045E";
paths = (
{
closed = 1;
nodes = (
"618 -621 LINE",
"618 1864 LINE",
"473 1864 LINE",
"473 -621 LINE",
"618 -621 LINE"
);
},
{
closed = 1;
nodes = (
"833 514 LINE",
"833 -621 LINE",
"978 -621 LINE",
"978 369 LINE",
"1461 369 LINE",
"1461 514 LINE",
"833 514 LINE"
);
},
{
closed = 1;
nodes = (
"833 1864 LINE",
"833 729 LINE",
"1461 729 LINE",
"1461 874 LINE",
"978 874 LINE",
"978 1864 LINE",
"833 1864 LINE"
);
}
);
width = 1451;
}
);
note = uni2560;
unicode = 2560;
},
{
glyphname = uni2561;
lastChange = "2020-03-13 21:33:49 +0000";
layers = (
{
layerId = "B8E4E6F7-CD69-4587-8CB0-DED49904045E";
paths = (
{
closed = 1;
nodes = (
"-10 369 LINE",
"653 369 LINE",
"653 -621 LINE",
"798 -621 LINE",
"798 1864 LINE",
"653 1864 LINE",
"653 874 LINE",
"-10 874 LINE",
"-10 729 LINE",
"653 729 LINE",
"653 514 LINE",
"-10 514 LINE",
"-10 369 LINE"
);
}
);
width = 1451;
}
);
note = uni2561;
unicode = 2561;
},
{
glyphname = uni2562;
lastChange = "2020-03-13 21:33:49 +0000";
layers = (
{
layerId = "B8E4E6F7-CD69-4587-8CB0-DED49904045E";
paths = (
{
closed = 1;
nodes = (
"-10 549 LINE",
"473 549 LINE",
"473 -621 LINE",
"618 -621 LINE",
"618 1864 LINE",
"473 1864 LINE",
"473 694 LINE",
"-10 694 LINE",
"-10 549 LINE"
);
},
{
closed = 1;
nodes = (
"833 1864 LINE",
"833 -621 LINE",
"978 -621 LINE",
"978 1864 LINE",
"833 1864 LINE"
);
}
);
width = 1451;
}
);
note = uni2562;
unicode = 2562;
},
{
glyphname = uni2563;
lastChange = "2020-03-13 21:33:49 +0000";
layers = (
{
layerId = "B8E4E6F7-CD69-4587-8CB0-DED49904045E";
paths = (
{
closed = 1;
nodes = (
"833 1864 LINE",
"833 -621 LINE",
"978 -621 LINE",
"978 1864 LINE",
"833 1864 LINE"
);
},
{
closed = 1;
nodes = (
"473 1864 LINE",
"473 874 LINE",
"-10 874 LINE",
"-10 729 LINE",
"618 729 LINE",
"618 1864 LINE",
"473 1864 LINE"
);
},
{
closed = 1;
nodes = (
"618 -621 LINE",
"618 514 LINE",
"-10 514 LINE",
"-10 369 LINE",
"473 369 LINE",
"473 -621 LINE",
"618 -621 LINE"
);
}
);
width = 1451;
}
);
note = uni2563;
unicode = 2563;
},
{
glyphname = uni2564;
lastChange = "2020-03-13 21:33:49 +0000";
layers = (
{
layerId = "B8E4E6F7-CD69-4587-8CB0-DED49904045E";
paths = (
{
closed = 1;
nodes = (
"-10 369 LINE",
"653 369 LINE",
"653 -621 LINE",
"798 -621 LINE",
"798 369 LINE",
"1461 369 LINE",
"1461 514 LINE",
"-10 514 LINE",
"-10 369 LINE"
);
},
{
closed = 1;
nodes = (
"-10 729 LINE",
"1461 729 LINE",
"1461 874 LINE",
"-10 874 LINE",
"-10 729 LINE"
);
}
);
width = 1451;
}
);
note = uni2564;
unicode = 2564;
},
{
glyphname = uni2565;
lastChange = "2020-03-13 21:33:49 +0000";
layers = (
{
layerId = "B8E4E6F7-CD69-4587-8CB0-DED49904045E";
paths = (
{
closed = 1;
nodes = (
"-10 549 LINE",
"473 549 LINE",
"473 -621 LINE",
"618 -621 LINE",
"618 549 LINE",
"833 549 LINE",
"833 -621 LINE",
"978 -621 LINE",
"978 549 LINE",
"1461 549 LINE",
"1461 694 LINE",
"-10 694 LINE",
"-10 549 LINE"
);
}
);
width = 1451;
}
);
note = uni2565;
unicode = 2565;
},
{
glyphname = uni2566;
lastChange = "2020-03-13 21:33:49 +0000";
layers = (
{
layerId = "B8E4E6F7-CD69-4587-8CB0-DED49904045E";
paths = (
{
closed = 1;
nodes = (
"618 -621 LINE",
"618 514 LINE",
"-10 514 LINE",
"-10 369 LINE",
"473 369 LINE",
"473 -621 LINE",
"618 -621 LINE"
);
},
{
closed = 1;
nodes = (
"833 514 LINE",
"833 -621 LINE",
"978 -621 LINE",
"978 369 LINE",
"1461 369 LINE",
"1461 514 LINE",
"833 514 LINE"
);
},
{
closed = 1;
nodes = (
"1461 874 LINE",
"-10 874 LINE",
"-10 729 LINE",
"1461 729 LINE",
"1461 874 LINE"
);
}
);
width = 1451;
}
);
note = uni2566;
unicode = 2566;
},
{
glyphname = uni2567;
lastChange = "2020-03-13 21:33:49 +0000";
layers = (
{
layerId = "B8E4E6F7-CD69-4587-8CB0-DED49904045E";
paths = (
{
closed = 1;
nodes = (
"-10 729 LINE",
"1461 729 LINE",
"1461 874 LINE",
"798 874 LINE",
"798 1864 LINE",
"653 1864 LINE",
"653 874 LINE",
"-10 874 LINE",
"-10 729 LINE"
);
},
{
closed = 1;
nodes = (
"-10 369 LINE",
"1461 369 LINE",
"1461 514 LINE",
"-10 514 LINE",
"-10 369 LINE"
);
}
);
width = 1451;
}
);
note = uni2567;
unicode = 2567;
},
{
glyphname = uni2568;
lastChange = "2020-03-13 21:33:49 +0000";
layers = (
{
layerId = "B8E4E6F7-CD69-4587-8CB0-DED49904045E";
paths = (
{
closed = 1;
nodes = (
"-10 549 LINE",
"1461 549 LINE",
"1461 694 LINE",
"978 694 LINE",
"978 1864 LINE",
"833 1864 LINE",
"833 694 LINE",
"618 694 LINE",
"618 1864 LINE",
"473 1864 LINE",
"473 694 LINE",
"-10 694 LINE",
"-10 549 LINE"
);
}
);
width = 1451;
}
);
note = uni2568;
unicode = 2568;
},
{
glyphname = uni2569;
lastChange = "2020-03-13 21:33:49 +0000";
layers = (
{
layerId = "B8E4E6F7-CD69-4587-8CB0-DED49904045E";
paths = (
{
closed = 1;
nodes = (
"833 1864 LINE",
"833 729 LINE",
"1461 729 LINE",
"1461 874 LINE",
"978 874 LINE",
"978 1864 LINE",
"833 1864 LINE"
);
},
{
closed = 1;
nodes = (
"473 1864 LINE",
"473 874 LINE",
"-10 874 LINE",
"-10 729 LINE",
"618 729 LINE",
"618 1864 LINE",
"473 1864 LINE"
);
},
{
closed = 1;
nodes = (
"-10 369 LINE",
"1461 369 LINE",
"1461 514 LINE",
"-10 514 LINE",
"-10 369 LINE"
);
}
);
width = 1451;
}
);
note = uni2569;
unicode = 2569;
},
{
glyphname = uni256A;
lastChange = "2020-03-13 21:33:49 +0000";
layers = (
{
layerId = "B8E4E6F7-CD69-4587-8CB0-DED49904045E";
paths = (
{
closed = 1;
nodes = (
"-10 369 LINE",
"653 369 LINE",
"653 -621 LINE",
"798 -621 LINE",
"798 369 LINE",
"1461 369 LINE",
"1461 514 LINE",
"798 514 LINE",
"798 729 LINE",
"1461 729 LINE",
"1461 874 LINE",
"798 874 LINE",
"798 1864 LINE",
"653 1864 LINE",
"653 874 LINE",
"-10 874 LINE",
"-10 729 LINE",
"653 729 LINE",
"653 514 LINE",
"-10 514 LINE",
"-10 369 LINE"
);
}
);
width = 1451;
}
);
note = uni256A;
unicode = 256A;
},
{
glyphname = uni256B;
lastChange = "2020-03-13 21:33:49 +0000";
layers = (
{
layerId = "B8E4E6F7-CD69-4587-8CB0-DED49904045E";
paths = (
{
closed = 1;
nodes = (
"833 1864 LINE",
"833 694 LINE",
"618 694 LINE",
"618 1864 LINE",
"473 1864 LINE",
"473 694 LINE",
"-10 694 LINE",
"-10 549 LINE",
"473 549 LINE",
"473 -621 LINE",
"618 -621 LINE",
"618 549 LINE",
"833 549 LINE",
"833 -621 LINE",
"978 -621 LINE",
"978 549 LINE",
"1461 549 LINE",
"1461 694 LINE",
"978 694 LINE",
"978 1864 LINE",
"833 1864 LINE"
);
}
);
width = 1451;
}
);
note = uni256B;
unicode = 256B;
},
{
glyphname = uni256C;
lastChange = "2020-03-13 21:33:49 +0000";
layers = (
{
layerId = "B8E4E6F7-CD69-4587-8CB0-DED49904045E";
paths = (
{
closed = 1;
nodes = (
"833 1864 LINE",
"833 729 LINE",
"1461 729 LINE",
"1461 874 LINE",
"978 874 LINE",
"978 1864 LINE",
"833 1864 LINE"
);
},
{
closed = 1;
nodes = (
"618 -621 LINE",
"618 514 LINE",
"-10 514 LINE",
"-10 369 LINE",
"473 369 LINE",
"473 -621 LINE",
"618 -621 LINE"
);
},
{
closed = 1;
nodes = (
"833 514 LINE",
"833 -621 LINE",
"978 -621 LINE",
"978 369 LINE",
"1461 369 LINE",
"1461 514 LINE",
"833 514 LINE"
);
},
{
closed = 1;
nodes = (
"473 1864 LINE",
"473 874 LINE",
"-10 874 LINE",
"-10 729 LINE",
"618 729 LINE",
"618 1864 LINE",
"473 1864 LINE"
);
}
);
width = 1451;
}
);
note = uni256C;
unicode = 256C;
},
{
glyphname = upblock;
lastChange = "2020-03-13 21:33:49 +0000";
layers = (
{
layerId = "B8E4E6F7-CD69-4587-8CB0-DED49904045E";
paths = (
{
closed = 1;
nodes = (
"1451 621 LINE",
"1451 1864 LINE",
"0 1864 LINE",
"0 621 LINE",
"1451 621 LINE"
);
}
);
width = 1451;
}
);
note = upblock;
unicode = 2580;
},
{
glyphname = dnblock;
lastChange = "2020-03-13 21:33:49 +0000";
layers = (
{
layerId = "B8E4E6F7-CD69-4587-8CB0-DED49904045E";
paths = (
{
closed = 1;
nodes = (
"1451 -621 LINE",
"1451 621 LINE",
"0 621 LINE",
"0 -621 LINE",
"1451 -621 LINE"
);
}
);
width = 1451;
}
);
note = dnblock;
unicode = 2584;
},
{
glyphname = block;
lastChange = "2020-03-13 21:33:49 +0000";
layers = (
{
layerId = "B8E4E6F7-CD69-4587-8CB0-DED49904045E";
paths = (
{
closed = 1;
nodes = (
"1451 -621 LINE",
"1451 1864 LINE",
"0 1864 LINE",
"0 -621 LINE",
"1451 -621 LINE"
);
}
);
width = 1451;
}
);
note = block;
unicode = 2588;
},
{
glyphname = lfblock;
lastChange = "2020-03-13 21:33:49 +0000";
layers = (
{
layerId = "B8E4E6F7-CD69-4587-8CB0-DED49904045E";
paths = (
{
closed = 1;
nodes = (
"726 -621 LINE",
"726 1864 LINE",
"0 1864 LINE",
"0 -621 LINE",
"726 -621 LINE"
);
}
);
width = 1451;
}
);
note = lfblock;
unicode = 258C;
},
{
glyphname = rtblock;
lastChange = "2020-03-13 21:33:49 +0000";
layers = (
{
layerId = "B8E4E6F7-CD69-4587-8CB0-DED49904045E";
paths = (
{
closed = 1;
nodes = (
"1451 -621 LINE",
"1451 1864 LINE",
"725 1864 LINE",
"725 -621 LINE",
"1451 -621 LINE"
);
}
);
width = 1451;
}
);
note = rtblock;
unicode = 2590;
},
{
glyphname = ltshade;
lastChange = "2020-03-13 21:33:49 +0000";
layers = (
{
layerId = "B8E4E6F7-CD69-4587-8CB0-DED49904045E";
paths = (
{
closed = 1;
nodes = (
"103 1314 LINE",
"103 1216 LINE",
"207 1216 LINE",
"207 1314 LINE",
"103 1314 LINE"
);
},
{
closed = 1;
nodes = (
"517 1314 LINE",
"517 1216 LINE",
"621 1216 LINE",
"621 1314 LINE",
"517 1314 LINE"
);
},
{
closed = 1;
nodes = (
"933 1314 LINE",
"933 1216 LINE",
"1036 1216 LINE",
"1036 1314 LINE",
"933 1314 LINE"
);
},
{
closed = 1;
nodes = (
"310 1119 LINE",
"310 1023 LINE",
"414 1023 LINE",
"414 1119 LINE",
"310 1119 LINE"
);
},
{
closed = 1;
nodes = (
"725 1119 LINE",
"725 1023 LINE",
"829 1023 LINE",
"829 1119 LINE",
"725 1119 LINE"
);
},
{
closed = 1;
nodes = (
"1140 1119 LINE",
"1140 1023 LINE",
"1244 1023 LINE",
"1244 1119 LINE",
"1140 1119 LINE"
);
},
{
closed = 1;
nodes = (
"933 927 LINE",
"933 831 LINE",
"1036 831 LINE",
"1036 927 LINE",
"933 927 LINE"
);
},
{
closed = 1;
nodes = (
"517 927 LINE",
"517 831 LINE",
"621 831 LINE",
"621 927 LINE",
"517 927 LINE"
);
},
{
closed = 1;
nodes = (
"103 927 LINE",
"103 831 LINE",
"207 831 LINE",
"207 927 LINE",
"103 927 LINE"
);
},
{
closed = 1;
nodes = (
"1140 732 LINE",
"1140 636 LINE",
"1244 636 LINE",
"1244 732 LINE",
"1140 732 LINE"
);
},
{
closed = 1;
nodes = (
"725 732 LINE",
"725 636 LINE",
"829 636 LINE",
"829 732 LINE",
"725 732 LINE"
);
},
{
closed = 1;
nodes = (
"310 732 LINE",
"310 636 LINE",
"414 636 LINE",
"414 732 LINE",
"310 732 LINE"
);
},
{
closed = 1;
nodes = (
"103 540 LINE",
"103 444 LINE",
"207 444 LINE",
"207 540 LINE",
"103 540 LINE"
);
},
{
closed = 1;
nodes = (
"517 540 LINE",
"517 444 LINE",
"621 444 LINE",
"621 540 LINE",
"517 540 LINE"
);
},
{
closed = 1;
nodes = (
"933 540 LINE",
"933 444 LINE",
"1036 444 LINE",
"1036 540 LINE",
"933 540 LINE"
);
},
{
closed = 1;
nodes = (
"1140 345 LINE",
"1140 249 LINE",
"1244 249 LINE",
"1244 345 LINE",
"1140 345 LINE"
);
},
{
closed = 1;
nodes = (
"725 345 LINE",
"725 249 LINE",
"829 249 LINE",
"829 345 LINE",
"725 345 LINE"
);
},
{
closed = 1;
nodes = (
"310 345 LINE",
"310 249 LINE",
"414 249 LINE",
"414 345 LINE",
"310 345 LINE"
);
},
{
closed = 1;
nodes = (
"103 153 LINE",
"103 56 LINE",
"207 56 LINE",
"207 153 LINE",
"103 153 LINE"
);
},
{
closed = 1;
nodes = (
"517 153 LINE",
"517 56 LINE",
"621 56 LINE",
"621 153 LINE",
"517 153 LINE"
);
},
{
closed = 1;
nodes = (
"933 153 LINE",
"933 56 LINE",
"1036 56 LINE",
"1036 153 LINE",
"933 153 LINE"
);
},
{
closed = 1;
nodes = (
"310 -42 LINE",
"310 -136 LINE",
"414 -136 LINE",
"414 -42 LINE",
"310 -42 LINE"
);
},
{
closed = 1;
nodes = (
"725 -42 LINE",
"725 -136 LINE",
"829 -136 LINE",
"829 -42 LINE",
"725 -42 LINE"
);
},
{
closed = 1;
nodes = (
"1140 -42 LINE",
"1140 -136 LINE",
"1244 -136 LINE",
"1244 -42 LINE",
"1140 -42 LINE"
);
},
{
closed = 1;
nodes = (
"933 -234 LINE",
"933 -331 LINE",
"1036 -331 LINE",
"1036 -234 LINE",
"933 -234 LINE"
);
},
{
closed = 1;
nodes = (
"517 -234 LINE",
"517 -331 LINE",
"621 -331 LINE",
"621 -234 LINE",
"517 -234 LINE"
);
},
{
closed = 1;
nodes = (
"103 -234 LINE",
"103 -331 LINE",
"207 -331 LINE",
"207 -234 LINE",
"103 -234 LINE"
);
},
{
closed = 1;
nodes = (
"310 -427 LINE",
"310 -523 LINE",
"414 -523 LINE",
"414 -427 LINE",
"310 -427 LINE"
);
},
{
closed = 1;
nodes = (
"725 -427 LINE",
"725 -523 LINE",
"829 -523 LINE",
"829 -427 LINE",
"725 -427 LINE"
);
},
{
closed = 1;
nodes = (
"1140 -427 LINE",
"1140 -523 LINE",
"1244 -523 LINE",
"1244 -427 LINE",
"1140 -427 LINE"
);
},
{
closed = 1;
nodes = (
"310 1506 LINE",
"310 1408 LINE",
"414 1408 LINE",
"414 1506 LINE",
"310 1506 LINE"
);
},
{
closed = 1;
nodes = (
"725 1506 LINE",
"725 1408 LINE",
"829 1408 LINE",
"829 1506 LINE",
"725 1506 LINE"
);
},
{
closed = 1;
nodes = (
"1140 1506 LINE",
"1140 1408 LINE",
"1244 1408 LINE",
"1244 1506 LINE",
"1140 1506 LINE"
);
},
{
closed = 1;
nodes = (
"103 1699 LINE",
"103 1603 LINE",
"207 1603 LINE",
"207 1699 LINE",
"103 1699 LINE"
);
},
{
closed = 1;
nodes = (
"517 1699 LINE",
"517 1603 LINE",
"621 1603 LINE",
"621 1699 LINE",
"517 1699 LINE"
);
},
{
closed = 1;
nodes = (
"933 1699 LINE",
"933 1603 LINE",
"1036 1603 LINE",
"1036 1699 LINE",
"933 1699 LINE"
);
},
{
closed = 1;
nodes = (
"1347 1314 LINE",
"1347 1216 LINE",
"1451 1216 LINE",
"1451 1314 LINE",
"1347 1314 LINE"
);
},
{
closed = 1;
nodes = (
"1347 927 LINE",
"1347 831 LINE",
"1451 831 LINE",
"1451 927 LINE",
"1347 927 LINE"
);
},
{
closed = 1;
nodes = (
"1347 540 LINE",
"1347 444 LINE",
"1451 444 LINE",
"1451 540 LINE",
"1347 540 LINE"
);
},
{
closed = 1;
nodes = (
"1347 153 LINE",
"1347 56 LINE",
"1451 56 LINE",
"1451 153 LINE",
"1347 153 LINE"
);
},
{
closed = 1;
nodes = (
"1347 -234 LINE",
"1347 -331 LINE",
"1451 -331 LINE",
"1451 -234 LINE",
"1347 -234 LINE"
);
},
{
closed = 1;
nodes = (
"1347 1699 LINE",
"1347 1603 LINE",
"1451 1603 LINE",
"1451 1699 LINE",
"1347 1699 LINE"
);
}
);
width = 1451;
}
);
note = ltshade;
unicode = 2591;
},
